<?xml version="1.0" standalone="no"?>
<!DOCTYPE svg PUBLIC "-//W3C//DTD SVG 1.1//EN" "http://www.w3.org/Graphics/SVG/1.1/DTD/svg11.dtd" >
<svg>
<metadata>
Created by FontForge 20120731 at Wed Jul 18 10:48:25 2018
 By convertio
Digitized data copyright 2012-2018 for Fira GO, bBox Type GmbH and HERE Europe B.V. All rights reserved / Digitized data copyright 2012-2018 for Fira Sans up to version 4.3 The Mozilla Foundation, Telefonica S.A., Carrois Corporate GbR and bBox Type GmbH
</metadata>
<defs>
<font id="FiraGO-Medium" horiz-adv-x="0" >
  <font-face 
    font-family="FiraGO Medium"
    font-weight="500"
    font-stretch="normal"
    units-per-em="1000"
    panose-1="2 11 6 3 5 0 0 2 0 4"
    ascent="800"
    descent="-200"
    x-height="529"
    cap-height="691"
    bbox="-771 -689 2498 1316"
    underline-thickness="50"
    underline-position="-50"
    unicode-range="U+000D-FEFF"
  />
<missing-glyph horiz-adv-x="666" 
d="M543 -350h-420v1400h420v-1400zM178 998v-1296h311v1296h-311zM409.5 419q25.5 -32 25.5 -83q0 -53 -22.5 -82t-72.5 -36v-45q0 -11 -7.5 -17.5t-17.5 -6.5t-17.5 6.5t-7.5 17.5v84q53 3 72 19.5t19 57.5q0 33 -13 51t-48 18q-29 0 -52 -11q-8 -3 -13 -3q-11 0 -17.5 6.5
t-6.5 16.5q0 19 29.5 29t63.5 10q60 0 85.5 -32zM340 110q10 -10 10 -25q0 -16 -10 -26.5t-25 -10.5t-25 10.5t-10 26.5q0 15 10 25t25 10t25 -10z" />
    <glyph glyph-name="fi" unicode="fi" horiz-adv-x="586" 
d="M454 717l-39 -85q-53 25 -112 25q-49 0 -67.5 -17.5t-18.5 -56.5v-54h294v-529h-128v437h-166v-437h-128v437h-83v92h83v56q0 77 50 123.5t153 46.5q84 0 162 -38z" />
    <glyph glyph-name="fl" unicode="fl" horiz-adv-x="618" 
d="M605 3q-43 -18 -91 -18q-60 0 -92 34.5t-32 100.5v525q-46 14 -95 14q-44 0 -61 -17t-17 -56v-57h113l-14 -92h-99v-437h-128v437h-83v92h83v58q0 75 49 121.5t142 46.5q55 0 119 -19l119 13v-620q0 -22 7 -31.5t23 -9.5q15 0 30 5z" />
    <glyph glyph-name="uni05240E45" unicode="&#xe24;&#xe45;" horiz-adv-x="950" 
d="M817 543q51 -45 51 -137v-602l-128 14v582q0 50 -25 70.5t-80 20.5q-49 0 -109 -16q25 -46 25 -113v-568l-128 14v555q0 64 -27.5 93t-91.5 29q-89 0 -149 -56q71 -13 142 -42v-80q-54 -3 -78.5 -27t-24.5 -74v-75q0 -26 9 -36.5t28 -10.5q20 0 35 7l23 -86
q-47 -20 -87 -20q-63 0 -95.5 35.5t-32.5 100.5v82q0 63 33 98.5t91 46.5q-76 23 -147 29v75q103 126 265 126q96 0 153 -39q95 49 188 49q109 0 160 -45z" />
    <glyph glyph-name="uni0E260E45" unicode="&#xe26;&#xe45;" horiz-adv-x="948" 
d="M815 543q51 -45 51 -137v-602l-128 14v582q0 50 -25 70.5t-80 20.5q-50 0 -108 -16q24 -46 24 -113v-568l-128 14v555q0 64 -26.5 93t-88.5 29q-87 0 -145 -56q71 -14 143 -42v-80q-39 -2 -60 -27.5t-21 -81.5v-77q0 -59 -30.5 -94t-107.5 -35q-21 0 -35 2l-3 88h9
q21 0 30 6.5t11 18t2 35.5v76q0 54 28.5 86.5t77.5 42.5q-73 24 -148 30v75q38 48 100.5 87t160.5 39q92 0 150 -38q96 48 187 48q109 0 160 -45z" />
    <glyph glyph-name="uniFEFB" unicode="&#xfedf;&#xfe8e;" horiz-adv-x="644" arabic-form="isolated" 
d="M588 184q0 -95 -59 -139.5t-192 -44.5h-247l10 114q112 86 172.5 139.5t96.5 105.5l-299 274l136 21l210 -203q25 75 25 198v111l104 13v-133q0 -149 -55 -261q98 -101 98 -195zM426.5 126.5q36.5 4.5 54 18.5t17.5 43q0 22 -15.5 48t-45.5 58q-62 -84 -180 -172h63
q70 0 106.5 4.5z" />
    <glyph glyph-name="uniFEFC" unicode="&#xfee0;&#xfe8e;" horiz-adv-x="683" arabic-form="final" 
d="M703 56l-20 -56q-52 0 -92.5 25.5t-59.5 77.5q-41 -56 -112.5 -79.5t-192.5 -23.5h-139l-14 123h161q99 0 154 15l-286 447l130 19l158 -272q51 -90 72 -157q23 22 30.5 54t7.5 81v450l104 14v-534q0 -66 18.5 -91.5t71.5 -25.5z" />
    <glyph glyph-name="uniFEF7" unicode="&#xfedf;&#xfe84;" horiz-adv-x="644" arabic-form="isolated" 
d="M588 184q0 -95 -59 -139.5t-192 -44.5h-247l10 114q112 86 172.5 139.5t96.5 105.5l-299 274l136 21l210 -203q25 75 25 198v111l104 13v-133q0 -149 -55 -261q98 -101 98 -195zM426.5 126.5q36.5 4.5 54 18.5t17.5 43q0 22 -15.5 48t-45.5 58q-62 -84 -180 -172h63
q70 0 106.5 4.5zM259 728l-221 -35l-8 61l63 10q-38 34 -38 68q0 38 27.5 64t78.5 26q38 0 83 -25l-38 -59q-26 16 -47 16q-18 0 -26 -9t-8 -21q0 -22 31 -49l93 15z" />
    <glyph glyph-name="uniFEF8" unicode="&#xfee0;&#xfe84;" horiz-adv-x="683" arabic-form="final" 
d="M703 56l-20 -56q-52 0 -92.5 25.5t-59.5 77.5q-41 -56 -112.5 -79.5t-192.5 -23.5h-139l-14 123h161q99 0 154 15l-286 447l130 19l158 -272q51 -90 72 -157q23 22 30.5 54t7.5 81v450l104 14v-534q0 -66 18.5 -91.5t71.5 -25.5zM269 683l-221 -35l-8 61l63 10
q-38 34 -38 68q0 38 27.5 64t78.5 26q38 0 83 -25l-38 -59q-26 16 -47 16q-18 0 -26 -9t-8 -21q0 -22 31 -49l93 15z" />
    <glyph glyph-name="uniFEF9" unicode="&#xfedf;&#xfe88;" horiz-adv-x="644" arabic-form="isolated" 
d="M588 184q0 -95 -59 -139.5t-192 -44.5h-247l10 114q112 86 172.5 139.5t96.5 105.5l-299 274l136 21l210 -203q25 75 25 198v111l104 13v-133q0 -149 -55 -261q98 -101 98 -195zM426.5 126.5q36.5 4.5 54 18.5t17.5 43q0 22 -15.5 48t-45.5 58q-62 -84 -180 -172h63
q70 0 106.5 4.5zM306 -231l-221 -35l-8 61l63 10q-38 34 -38 68q0 38 27.5 64t78.5 26q38 0 83 -25l-38 -59q-26 16 -47 16q-18 0 -26 -9t-8 -21q0 -22 31 -49l93 15z" />
    <glyph glyph-name="uniFEFA" unicode="&#xfee0;&#xfe88;" horiz-adv-x="683" arabic-form="final" 
d="M703 56l-20 -56q-52 0 -92.5 25.5t-59.5 77.5q-41 -56 -112.5 -79.5t-192.5 -23.5h-139l-14 123h161q99 0 154 15l-286 447l130 19l158 -272q51 -90 72 -157q23 22 30.5 54t7.5 81v450l104 14v-534q0 -66 18.5 -91.5t71.5 -25.5zM307 -231l-221 -35l-8 61l63 10
q-38 34 -38 68q0 38 27.5 64t78.5 26q38 0 83 -25l-38 -59q-26 16 -47 16q-18 0 -26 -9t-8 -21q0 -22 31 -49l93 15z" />
    <glyph glyph-name="uniFEF5" unicode="&#xfedf;&#xfe82;" horiz-adv-x="644" arabic-form="isolated" 
d="M588 184q0 -95 -59 -139.5t-192 -44.5h-247l10 114q112 86 172.5 139.5t96.5 105.5l-299 274l136 21l210 -203q25 75 25 198v111l104 13v-133q0 -149 -55 -261q98 -101 98 -195zM426.5 126.5q36.5 4.5 54 18.5t17.5 43q0 22 -15.5 48t-45.5 58q-62 -84 -180 -172h63
q70 0 106.5 4.5zM22 720q12 42 38.5 68t57.5 26q25 0 51 -16q9 -5 18.5 -8.5t19.5 -3.5q12 0 19 3t22 13l27 -48q-21 -20 -39 -28.5t-38 -8.5q-15 0 -28 6t-15 7q-9 5 -18 8.5t-17 3.5q-27 0 -42 -39z" />
    <glyph glyph-name="uniFEF6" unicode="&#xfee0;&#xfe82;" horiz-adv-x="683" arabic-form="final" 
d="M703 56l-20 -56q-52 0 -92.5 25.5t-59.5 77.5q-41 -56 -112.5 -79.5t-192.5 -23.5h-139l-14 123h161q99 0 154 15l-286 447l130 19l158 -272q51 -90 72 -157q23 22 30.5 54t7.5 81v450l104 14v-534q0 -66 18.5 -91.5t71.5 -25.5zM32 675q12 42 38.5 68t57.5 26
q25 0 51 -16q9 -5 18.5 -8.5t19.5 -3.5q12 0 19 3t22 13l27 -48q-21 -20 -39 -28.5t-38 -8.5q-15 0 -28 6t-15 7q-9 5 -18 8.5t-17 3.5q-27 0 -42 -39z" />
    <glyph glyph-name="uni06440671" unicode="&#xfedf;&#xfb51;" horiz-adv-x="644" 
d="M588 184q0 -95 -59 -139.5t-192 -44.5h-247l10 114q112 86 172.5 139.5t96.5 105.5l-299 274l136 21l210 -203q25 75 25 198v111l104 13v-133q0 -149 -55 -261q98 -101 98 -195zM426.5 126.5q36.5 4.5 54 18.5t17.5 43q0 22 -15.5 48t-45.5 58q-62 -84 -180 -172h63
q70 0 106.5 4.5zM262 887.5q24 -20.5 24 -57.5q0 -51 -34 -72.5t-87 -21.5q-34 0 -72 12l-18 -35l-54 19l29 86q11 -4 33 -10q24 53 56.5 76.5t66.5 23.5q32 0 56 -20.5zM227 824q0 22 -27 22q-18 0 -35 -13.5t-31 -34.5q23 -3 42 -3q51 0 51 29z" />
    <glyph glyph-name="uni06440671.fina" unicode="&#xfee0;&#xfb51;" horiz-adv-x="683" 
d="M703 56l-20 -56q-52 0 -92.5 25.5t-59.5 77.5q-41 -56 -112.5 -79.5t-192.5 -23.5h-139l-14 123h161q99 0 154 15l-286 447l130 19l158 -272q51 -90 72 -157q23 22 30.5 54t7.5 81v450l104 14v-534q0 -66 18.5 -91.5t71.5 -25.5zM272 842.5q24 -20.5 24 -57.5
q0 -51 -34 -72.5t-87 -21.5q-34 0 -72 12l-18 -35l-54 19l29 86q11 -4 33 -10q24 53 56.5 76.5t66.5 23.5q32 0 56 -20.5zM237 779q0 22 -27 22q-18 0 -35 -13.5t-31 -34.5q23 -3 42 -3q51 0 51 29z" />
    <glyph glyph-name="uniFDF2" unicode="&#x627;&#xfedf;&#xfee0;&#xfeea;" horiz-adv-x="1142" arabic-form="isolated" 
d="M610 747h-69v179l69 8v-187zM467.5 631.5q-22.5 19.5 -22.5 57.5q0 32 16 71l52 -13q-6 -22 -6 -42q0 -12 5 -20t14 -8q10 0 16.5 8.5t6.5 24.5v33h54v-35q0 -13 5.5 -20t14.5 -7q21 0 21 33q0 26 -11 53l54 18q9 -21 14.5 -46t5.5 -43q0 -38 -21 -59.5t-55 -21.5
q-38 0 -55 27q-19 -30 -59 -30q-27 0 -49.5 19.5zM1080 774v-774h-107v760zM752 656l104 14v-460q0 -114 -39.5 -162t-116.5 -48q-40 0 -72.5 17.5t-51.5 47.5q-16 -30 -47 -47.5t-71 -17.5q-108 0 -143 92q-22 -30 -59 -46.5t-79 -16.5q-68 0 -111 39.5t-43 103.5
q0 83 74 140.5t198 76.5v77l105 14v-265q0 -54 13 -75t48 -21t48.5 21.5t13.5 82.5v330l104 14v-341q0 -59 14 -83t51 -24q35 0 47.5 24t12.5 82v431zM295 293q-82 -7 -128.5 -37t-46.5 -68q0 -29 18 -44t51 -15q68 0 106 50v114z" />
    <glyph glyph-name="uni0E1B0E31" unicode="&#xe1b;&#xe31;" horiz-adv-x="624" 
d="M542 646v-432q0 -65 -27.5 -117t-81 -82t-128.5 -30q-117 0 -176 58t-59 171v172q0 62 -6 101.5t-19 68.5l120 14q12 -20 22.5 -62t10.5 -84v-204q0 -139 107 -139q109 0 109 139v419h-1q-87 0 -131 27t-44 87q0 29 8 61h88q-3 -18 -3 -38q0 -31 18 -43t65 -13v72
l128 -15v-51q55 6 110 18l14 -79q-59 -13 -124 -19z" />
    <glyph glyph-name="uni0E1B0E49" unicode="&#xe1b;&#xe49;" horiz-adv-x="624" 
d="M542 777v-563q0 -65 -27.5 -117t-81 -82t-128.5 -30q-117 0 -176 58t-59 171v172q0 62 -6 101.5t-19 68.5l120 14q12 -20 22.5 -62t10.5 -84v-204q0 -139 107 -139q109 0 109 139v472q-41 -27 -100.5 -39t-145.5 -14l-27 34q20 31 20 54q0 24 -12 34t-35 10q-19 0 -42 -5
l-11 69q34 12 77 12q53 0 85.5 -22.5t32.5 -64.5q0 -26 -10 -46q64 5 103.5 24t63.5 55l5 -1z" />
    <glyph glyph-name="uni0E1B0E4A" unicode="&#xe1b;&#xe4a;" horiz-adv-x="624" 
d="M542 777v-563q0 -65 -27.5 -117t-81 -82t-128.5 -30q-117 0 -176 58t-59 171v172q0 62 -6 101.5t-19 68.5l120 14q12 -20 22.5 -62t10.5 -84v-204q0 -139 107 -139q109 0 109 139v463q-49 -43 -138 -43q-25 0 -49 4q6 47 6 82q0 21 -9 32.5t-25 11.5q-17 0 -27.5 -16
t-10.5 -46v-39l-86 -7v46q0 30 -10 46t-28 16q-16 0 -25 -11.5t-9 -33.5q0 -38 10 -83h-90q-5 19 -8.5 46t-3.5 50q0 51 29.5 80t78.5 29q45 0 68.5 -22t30.5 -56q6 33 31.5 55.5t71.5 22.5q47 0 74.5 -25.5t27.5 -63.5q0 -22 -7 -45q40 5 64.5 26.5t33.5 52.5z" />
    <glyph glyph-name="uni0E1B0E4B" unicode="&#xe1b;&#xe4b;" horiz-adv-x="624" 
d="M542 777v-563q0 -65 -27.5 -117t-81 -82t-128.5 -30q-117 0 -176 58t-59 171v172q0 62 -6 101.5t-19 68.5l120 14q12 -20 22.5 -62t10.5 -84v-204q0 -139 107 -139q109 0 109 139v572zM362 707l-75 1l1 -63h-98l1 63l-79 -1l8 77l71 -1l-1 57l98 10l-1 -67l75 1v-77z" />
    <glyph glyph-name="uni0E1B0E4C" unicode="&#xe1b;&#xe4c;" horiz-adv-x="624" 
d="M626 675h-84v-461q0 -65 -27.5 -117t-81 -82t-128.5 -30q-117 0 -176 58t-59 171v172q0 62 -6 101.5t-19 68.5l120 14q12 -20 22.5 -62t10.5 -84v-204q0 -139 107 -139q109 0 109 139v455h-39q-23 0 -32.5 -9t-9.5 -33q0 -15 2 -33h-94q-5 30 -5 53q0 52 33.5 76.5
t90.5 24.5h54v38l128 -15v-23h84v-79z" />
    <glyph glyph-name="uni0E1B0E4D" unicode="&#xe1b;&#xe4d;" horiz-adv-x="624" 
d="M542 777v-563q0 -65 -27.5 -117t-81 -82t-128.5 -30q-117 0 -176 58t-59 171v172q0 62 -6 101.5t-19 68.5l120 14q12 -20 22.5 -62t10.5 -84v-204q0 -139 107 -139q109 0 109 139v572zM340 820q32 -31 32 -76t-32 -76t-83 -31t-82.5 31t-31.5 76t31.5 76t82.5 31t83 -31z
M231.5 772q-9.5 -10 -9.5 -28t9.5 -28t25.5 -10t25.5 10t9.5 28t-9.5 28t-25.5 10t-25.5 -10z" />
    <glyph glyph-name="uni0E1D0E31" unicode="&#xe1d;&#xe31;" horiz-adv-x="763" 
d="M681 646v-437q0 -115 -45.5 -169.5t-123.5 -54.5q-115 0 -138 118q-15 -63 -48.5 -90.5t-94.5 -27.5q-75 0 -119 53.5t-44 170.5v81q0 105 15 167t50 91.5t96 29.5q24 0 47.5 -5t37.5 -11l-14 -85q-19 7 -39 7q-24 0 -38.5 -15.5t-21.5 -53.5t-7 -107v-96
q0 -71 15.5 -100.5t48.5 -29.5q29 0 43.5 21.5t14.5 80.5v122l115 13v-135q0 -102 57 -102q32 0 48.5 26.5t16.5 98.5v432h-2q-86 0 -130 27t-44 87q0 29 8 61h88q-4 -24 -4 -38q0 -31 18 -43t66 -13v72l128 -15v-50q51 4 110 17l14 -79q-73 -14 -124 -19z" />
    <glyph glyph-name="uni0E1D0E49" unicode="&#xe1d;&#xe49;" horiz-adv-x="763" 
d="M681 777v-568q0 -115 -45.5 -169.5t-123.5 -54.5q-115 0 -138 118q-15 -63 -48.5 -90.5t-94.5 -27.5q-75 0 -119 53.5t-44 170.5v81q0 105 15 167t50 91.5t96 29.5q24 0 47.5 -5t37.5 -11l-14 -85q-19 7 -39 7q-24 0 -38.5 -15.5t-21.5 -53.5t-7 -107v-96
q0 -71 15.5 -100.5t48.5 -29.5q29 0 43.5 21.5t14.5 80.5v122l115 13v-135q0 -102 57 -102q32 0 48.5 26.5t16.5 98.5v485q-41 -27 -101 -39t-146 -14l-27 34q20 29 20 54q0 24 -11.5 34t-35.5 10q-19 0 -42 -5l-10 69q34 12 76 12q54 0 86.5 -22.5t32.5 -64.5
q0 -27 -11 -46q64 5 103.5 24t63.5 55l4 -1z" />
    <glyph glyph-name="uni0E1D0E4A" unicode="&#xe1d;&#xe4a;" horiz-adv-x="763" 
d="M681 777v-568q0 -115 -45.5 -169.5t-123.5 -54.5q-115 0 -138 118q-15 -63 -48.5 -90.5t-94.5 -27.5q-75 0 -119 53.5t-44 170.5v81q0 105 15 167t50 91.5t96 29.5q24 0 47.5 -5t37.5 -11l-14 -85q-19 7 -39 7q-24 0 -38.5 -15.5t-21.5 -53.5t-7 -107v-96
q0 -71 15.5 -100.5t48.5 -29.5q29 0 43.5 21.5t14.5 80.5v122l115 13v-135q0 -102 57 -102q32 0 48.5 26.5t16.5 98.5v476q-49 -43 -139 -43q-26 0 -48 4q5 39 5 82q0 21 -9 32.5t-24 11.5q-18 0 -28.5 -15.5t-10.5 -46.5v-39l-86 -7v46q0 30 -10 46t-27 16q-16 0 -25 -11.5
t-9 -33.5q0 -42 9 -83h-90q-5 19 -8 46t-3 50q0 51 29 80t78 29q45 0 69 -22t31 -56q6 33 31.5 55.5t70.5 22.5q48 0 75 -25.5t27 -63.5q0 -22 -7 -45q41 5 65.5 26t33.5 53z" />
    <glyph glyph-name="uni0E1D0E4B" unicode="&#xe1d;&#xe4b;" horiz-adv-x="763" 
d="M681 777v-568q0 -115 -45.5 -169.5t-123.5 -54.5q-115 0 -138 118q-15 -63 -48.5 -90.5t-94.5 -27.5q-75 0 -119 53.5t-44 170.5v81q0 105 15 167t50 91.5t96 29.5q24 0 47.5 -5t37.5 -11l-14 -85q-19 7 -39 7q-24 0 -38.5 -15.5t-21.5 -53.5t-7 -107v-96
q0 -71 15.5 -100.5t48.5 -29.5q29 0 43.5 21.5t14.5 80.5v122l115 13v-135q0 -102 57 -102q32 0 48.5 26.5t16.5 98.5v585zM500 707l-75 1l1 -63h-98l1 63l-79 -1l8 77l71 -1l-1 57l98 10l-1 -67l75 1v-77z" />
    <glyph glyph-name="uni0E1D0E4C" unicode="&#xe1d;&#xe4c;" horiz-adv-x="763" 
d="M764 675h-83v-466q0 -115 -45.5 -169.5t-123.5 -54.5q-115 0 -138 118q-15 -63 -48.5 -90.5t-94.5 -27.5q-75 0 -119 53.5t-44 170.5v81q0 105 15 167t50 91.5t96 29.5q24 0 47.5 -5t37.5 -11l-14 -85q-19 7 -39 7q-24 0 -38.5 -15.5t-21.5 -53.5t-7 -107v-96
q0 -71 15.5 -100.5t48.5 -29.5q29 0 43.5 21.5t14.5 80.5v122l115 13v-135q0 -102 57 -102q32 0 48.5 26.5t16.5 98.5v468h-40q-23 0 -32 -9t-9 -33q0 -15 2 -33h-95q0 5 -2 21.5t-2 31.5q0 52 33.5 76.5t90.5 24.5h54v38l128 -15v-23h83v-79z" />
    <glyph glyph-name="uni0E1D0E4D" unicode="&#xe1d;&#xe4d;" horiz-adv-x="763" 
d="M681 777v-568q0 -115 -45.5 -169.5t-123.5 -54.5q-115 0 -138 118q-15 -63 -48.5 -90.5t-94.5 -27.5q-75 0 -119 53.5t-44 170.5v81q0 105 15 167t50 91.5t96 29.5q24 0 47.5 -5t37.5 -11l-14 -85q-19 7 -39 7q-24 0 -38.5 -15.5t-21.5 -53.5t-7 -107v-96
q0 -71 15.5 -100.5t48.5 -29.5q29 0 43.5 21.5t14.5 80.5v122l115 13v-135q0 -102 57 -102q32 0 48.5 26.5t16.5 98.5v585zM478 820q32 -31 32 -76t-32 -76t-83 -31t-82.5 31t-31.5 76t31.5 76t82.5 31t83 -31zM369.5 772q-9.5 -10 -9.5 -28t9.5 -28t25.5 -10t25.5 10
t9.5 28t-9.5 28t-25.5 10t-25.5 -10z" />
    <glyph glyph-name="uni0E1F0E31" unicode="&#xe1f;&#xe31;" horiz-adv-x="784" 
d="M749 644l-15 -78l-105 -566h-166l-81 445l-89 -445h-160l-64 356q-14 83 -28.5 125.5t-32.5 72.5l110 20q47 -60 67 -205l39 -277l92 474h134l90 -474l74 474l11 73q-82 2 -123.5 28.5t-41.5 85.5q0 29 8 61h88q-3 -18 -3 -38q0 -32 18.5 -44t66.5 -12l11 72h127l-12 -66
q55 6 110 18l14 -79q-55 -12 -139 -21z" />
    <glyph glyph-name="uni0E1F0E49" unicode="&#xe1f;&#xe49;" horiz-adv-x="770" 
d="M734 566l-105 -566h-166l-81 445l-89 -445h-160l-64 356q-14 83 -28.5 125.5t-32.5 72.5l110 20q47 -60 67 -205l39 -277l92 474h134l90 -474l74 474l9 50q5 32 16 74q-40 -26 -96.5 -37.5t-132.5 -13.5l-27 35q20 29 20 53t-12 34t-35 10q-19 0 -42 -5l-11 69
q34 12 77 12q53 0 85.5 -23t32.5 -66q0 -22 -11 -43q56 5 95 24t65 53l129 -1z" />
    <glyph glyph-name="uni0E1F0E4A" unicode="&#xe1f;&#xe4a;" horiz-adv-x="770" 
d="M776 791l-42 -225l-105 -566h-166l-81 445l-89 -445h-160l-64 356q-14 83 -28.5 125.5t-32.5 72.5l110 20q47 -60 67 -205l39 -277l92 474h134l90 -474l74 474l7 39q6 38 15 67q-45 -32 -120 -32q-26 0 -48 4q5 52 5 82q0 21 -9 32.5t-25 11.5q-17 0 -27.5 -16t-10.5 -46
v-39l-86 -7v46q0 30 -10 46t-27 16q-16 0 -25 -11.5t-9 -33.5q0 -42 9 -83h-90q-12 50 -12 96q0 51 29.5 80t78.5 29q45 0 68.5 -22t30.5 -56q7 33 32 55.5t71 22.5q47 0 74.5 -25.5t27.5 -63.5q0 -22 -7 -45q38 6 61 27t32 52z" />
    <glyph glyph-name="uni0E1F0E4B" unicode="&#xe1f;&#xe4b;" horiz-adv-x="770" 
d="M776 792l-147 -792h-166l-81 445l-89 -445h-160l-64 356q-14 83 -28.5 125.5t-32.5 72.5l110 20q47 -60 67 -205l39 -277l92 474h134l90 -474l74 474l35 226h127zM585 707l-75 1l1 -63h-98l1 63l-79 -1l8 77l71 -1l-1 57l98 10l-1 -67l75 1v-77z" />
    <glyph glyph-name="uni0E1F0E4C" unicode="&#xe1f;&#xe4c;" horiz-adv-x="784" 
d="M848 675h-94l-20 -109l-105 -566h-166l-81 445l-89 -445h-160l-64 356q-14 83 -28.5 125.5t-32.5 72.5l110 20q47 -60 67 -205l39 -277l92 474h134l90 -474l91 583h-34q-23 0 -32.5 -9t-9.5 -33q0 -15 2 -33h-94q-5 30 -5 53q0 52 33.5 76.5t90.5 24.5h61l6 38h127
l-7 -38h79v-79z" />
    <glyph glyph-name="uni0E1F0E4D" unicode="&#xe1f;&#xe4d;" horiz-adv-x="770" 
d="M776 792l-147 -792h-166l-81 445l-89 -445h-160l-64 356q-14 83 -28.5 125.5t-32.5 72.5l110 20q47 -60 67 -205l39 -277l92 474h134l90 -474l74 474l35 226h127zM563 820q32 -31 32 -76t-32 -76t-83 -31t-82.5 31t-31.5 76t31.5 76t82.5 31t83 -31zM454.5 772
q-9.5 -10 -9.5 -28t9.5 -28t25.5 -10t25.5 10t9.5 28t-9.5 28t-25.5 10t-25.5 -10z" />
    <glyph glyph-name="uni0E310E4A" unicode="&#xe31;&#xe4a;" 
d="M-521.5 670q-37.5 26 -37.5 83q0 16 3 33t7 28h86q-4 -24 -4 -37q0 -26 16 -35.5t60 -9.5q41 0 96 10.5t107 31.5l21 -81q-63 -24 -127 -36.5t-118 -12.5q-72 0 -109.5 26zM-30 1037q-31 -84 -86 -119.5t-137 -35.5q-13 0 -43 3q5 47 5 74q0 20 -8 30t-23 10
q-16 0 -25 -14t-9 -42v-35l-77 -6v41q0 27 -9.5 41.5t-24.5 14.5t-23 -10.5t-8 -30.5q0 -38 9 -74h-81q-11 42 -11 86q0 46 26.5 72t70.5 26q41 0 62 -20t27 -50q6 30 29 50t64 20q43 0 67.5 -23t24.5 -57q0 -22 -7 -43q77 12 107 108z" />
    <glyph glyph-name="uniFE8E" unicode="&#x627;" horiz-adv-x="251" arabic-form="final" 
d="M60 760l104 13v-545q0 -61 21.5 -83t76.5 -22l9 -65l-20 -58q-96 0 -143.5 52.5t-47.5 170.5v537z" />
    <glyph glyph-name="uniFE84" unicode="&#x623;" horiz-adv-x="251" arabic-form="final" 
d="M60 629l104 13v-414q0 -61 21.5 -83t76.5 -22l9 -65l-20 -58q-96 0 -143.5 52.5t-47.5 170.5v406zM225 715l-221 -35l-8 61l63 10q-38 34 -38 68q0 38 27.5 64t78.5 26q38 0 83 -25l-38 -59q-26 16 -47 16q-18 0 -26 -9t-8 -21q0 -22 31 -49l93 15z" />
    <glyph glyph-name="uniFE88" unicode="&#x625;" horiz-adv-x="251" arabic-form="final" 
d="M60 760l104 13v-545q0 -61 21.5 -83t76.5 -22l9 -65l-20 -58q-96 0 -143.5 52.5t-47.5 170.5v537zM239 -231l-221 -35l-8 61l63 10q-38 34 -38 68q0 38 27.5 64t78.5 26q38 0 83 -25l-38 -59q-26 16 -47 16q-18 0 -26 -9t-8 -21q0 -22 31 -49l93 15z" />
    <glyph glyph-name="uniFE82" unicode="&#x622;" horiz-adv-x="251" arabic-form="final" 
d="M60 629l104 13v-414q0 -61 21.5 -83t76.5 -22l9 -65l-20 -58q-96 0 -143.5 52.5t-47.5 170.5v406zM-11 707q12 42 38.5 68t57.5 26q25 0 51 -16q9 -5 18.5 -8.5t19.5 -3.5q12 0 19 3t22 13l27 -48q-21 -20 -39 -28.5t-38 -8.5q-15 0 -28 6t-15 7q-9 5 -18 8.5t-17 3.5
q-27 0 -42 -39z" />
    <glyph glyph-name="uniFB51" unicode="&#x671;" horiz-adv-x="251" arabic-form="final" 
d="M60 629l104 13v-414q0 -61 21.5 -83t76.5 -22l9 -65l-20 -58q-96 0 -143.5 52.5t-47.5 170.5v406zM228 874.5q24 -20.5 24 -57.5q0 -51 -34 -72.5t-87 -21.5q-34 0 -72 12l-18 -35l-54 19l29 86q11 -4 33 -10q24 53 56.5 76.5t66.5 23.5q32 0 56 -20.5zM193 811
q0 22 -27 22q-18 0 -35 -13.5t-31 -34.5q23 -3 42 -3q51 0 51 29z" />
    <glyph glyph-name="uniFD3D" unicode="&#xfd3d;" horiz-adv-x="231" arabic-form="isolated" 
d="M62 0v629l107 13v-642h-107zM4 848l224 43l-2 -65l-224 -43zM4 751l224 43l-2 -65l-224 -43z" />
    <glyph glyph-name="uniFD3C" unicode="&#xfd3c;" horiz-adv-x="251" arabic-form="final" 
d="M60 629l104 13v-414q0 -61 21.5 -83t76.5 -22l9 -65l-20 -58q-96 0 -143.5 52.5t-47.5 170.5v406zM1 847l224 43l-2 -65l-224 -43zM1 750l224 43l-2 -65l-224 -43z" />
    <glyph glyph-name="uni066E.init" unicode="&#x66e;" horiz-adv-x="306" 
d="M99.5 129.5q29.5 6.5 40 22t10.5 46.5q0 59 -47 185l109 36q21 -61 32 -123.5t11 -109.5q0 -75 -23.5 -115t-77.5 -55.5t-154 -15.5l-20 57l30 66q60 0 89.5 6.5z" />
    <glyph glyph-name="uni066E.medi" unicode="&#x66e;" horiz-adv-x="338" 
d="M358 58l-20 -58q-64 0 -103.5 15t-64.5 55q-25 -40 -63.5 -55t-106.5 -15l-20 57l31 66q52 0 74 9.5t27 28t5 62.5v115h105v-114q0 -42 8.5 -62.5t35 -29.5t82.5 -9z" />
    <glyph glyph-name="uni066E.fina" unicode="&#x66e;" horiz-adv-x="982" 
d="M1002 60l-20 -60q-78 0 -124 17.5t-77 62.5q-74 -44 -163 -67t-215 -28v-1h-33h-34v1q-117 4 -181.5 27t-90.5 66.5t-26 116.5q0 40 10 82t28 79l80 -25q-19 -63 -19 -111q0 -41 19.5 -64.5t71 -35t148.5 -13.5q115 3 210.5 22.5t150.5 50.5v163h104v-93q0 -52 11.5 -78
t43.5 -37.5t96 -11.5z" />
    <glyph glyph-name="uniFE90" unicode="&#x628;" horiz-adv-x="982" arabic-form="final" 
d="M1002 60l-20 -60q-78 0 -124 17.5t-77 62.5q-74 -44 -163 -67t-215 -28v-1h-33h-34v1q-117 4 -181.5 27t-90.5 66.5t-26 116.5q0 40 10 82t28 79l80 -25q-19 -63 -19 -111q0 -41 19.5 -64.5t71 -35t148.5 -13.5q115 3 210.5 22.5t150.5 50.5v163h104v-93q0 -52 11.5 -78
t43.5 -37.5t96 -11.5zM331 -196q-18 18 -18 44t18 44t44 18t44 -18t18 -44t-18 -44t-44 -18t-44 18z" />
    <glyph glyph-name="uniFE92" unicode="&#x628;" horiz-adv-x="338" arabic-form="medial" 
d="M358 58l-20 -58q-64 0 -103.5 15t-64.5 55q-25 -40 -63.5 -55t-106.5 -15l-20 57l31 66q52 0 74 9.5t27 28t5 62.5v115h105v-114q0 -42 8.5 -62.5t35 -29.5t82.5 -9zM125 -196q-18 18 -18 44t18 44t44 18t44 -18t18 -44t-18 -44t-44 -18t-44 18z" />
    <glyph glyph-name="uniFE91" unicode="&#x628;" horiz-adv-x="306" arabic-form="initial" 
d="M99.5 129.5q29.5 6.5 40 22t10.5 46.5q0 59 -47 185l109 36q21 -61 32 -123.5t11 -109.5q0 -75 -23.5 -115t-77.5 -55.5t-154 -15.5l-20 57l30 66q60 0 89.5 6.5zM101 -196q-18 18 -18 44t18 44t44 18t44 -18t18 -44t-18 -44t-44 -18t-44 18z" />
    <glyph glyph-name="uniFB57" unicode="&#x67e;" horiz-adv-x="982" arabic-form="final" 
d="M1002 60l-20 -60q-78 0 -124 17.5t-77 62.5q-74 -44 -163 -67t-215 -28v-1h-33h-34v1q-117 4 -181.5 27t-90.5 66.5t-26 116.5q0 40 10 82t28 79l80 -25q-19 -63 -19 -111q0 -41 19.5 -64.5t71 -35t148.5 -13.5q115 3 210.5 22.5t150.5 50.5v163h104v-93q0 -52 11.5 -78
t43.5 -37.5t96 -11.5zM327.5 -106.5q16.5 -16.5 16.5 -38.5q0 -24 -16.5 -40.5t-38.5 -16.5q-24 0 -40.5 16.5t-16.5 40.5q0 23 16.5 39t40.5 16q22 0 38.5 -16.5zM501.5 -106q16.5 -16 16.5 -39q0 -24 -16.5 -40.5t-40.5 -16.5q-22 0 -38.5 16.5t-16.5 40.5q0 22 16.5 38.5
t38.5 16.5q24 0 40.5 -16zM414 -234.5q16 -16.5 16 -39.5t-16 -39.5t-39 -16.5t-39 16.5t-16 39.5t16 39.5t39 16.5t39 -16.5z" />
    <glyph glyph-name="uniFB59" unicode="&#x67e;" horiz-adv-x="338" arabic-form="medial" 
d="M358 58l-20 -58q-64 0 -103.5 15t-64.5 55q-25 -40 -63.5 -55t-106.5 -15l-20 57l31 66q52 0 74 9.5t27 28t5 62.5v115h105v-114q0 -42 8.5 -62.5t35 -29.5t82.5 -9zM121.5 -106.5q16.5 -16.5 16.5 -38.5q0 -24 -16.5 -40.5t-38.5 -16.5q-24 0 -40.5 16.5t-16.5 40.5
q0 23 16.5 39t40.5 16q22 0 38.5 -16.5zM295.5 -106q16.5 -16 16.5 -39q0 -24 -16.5 -40.5t-40.5 -16.5q-22 0 -38.5 16.5t-16.5 40.5q0 22 16.5 38.5t38.5 16.5q24 0 40.5 -16zM208 -234.5q16 -16.5 16 -39.5t-16 -39.5t-39 -16.5t-39 16.5t-16 39.5t16 39.5t39 16.5
t39 -16.5z" />
    <glyph glyph-name="uniFB58" unicode="&#x67e;" horiz-adv-x="306" arabic-form="initial" 
d="M99.5 129.5q29.5 6.5 40 22t10.5 46.5q0 59 -47 185l109 36q21 -61 32 -123.5t11 -109.5q0 -75 -23.5 -115t-77.5 -55.5t-154 -15.5l-20 57l30 66q60 0 89.5 6.5zM97.5 -106.5q16.5 -16.5 16.5 -38.5q0 -24 -16.5 -40.5t-38.5 -16.5q-24 0 -40.5 16.5t-16.5 40.5
q0 23 16.5 39t40.5 16q22 0 38.5 -16.5zM271.5 -106q16.5 -16 16.5 -39q0 -24 -16.5 -40.5t-40.5 -16.5q-22 0 -38.5 16.5t-16.5 40.5q0 22 16.5 38.5t38.5 16.5q24 0 40.5 -16zM184 -234.5q16 -16.5 16 -39.5t-16 -39.5t-39 -16.5t-39 16.5t-16 39.5t16 39.5t39 16.5
t39 -16.5z" />
    <glyph glyph-name="uniFB53" unicode="&#x67b;" horiz-adv-x="982" arabic-form="final" 
d="M1002 60l-20 -60q-78 0 -124 17.5t-77 62.5q-74 -44 -163 -67t-215 -28v-1h-33h-34v1q-117 4 -181.5 27t-90.5 66.5t-26 116.5q0 40 10 82t28 79l80 -25q-19 -63 -19 -111q0 -41 19.5 -64.5t71 -35t148.5 -13.5q115 3 210.5 22.5t150.5 50.5v163h104v-93q0 -52 11.5 -78
t43.5 -37.5t96 -11.5zM334 -173q-17 17 -17 41t17 40.5t41 16.5t41 -16.5t17 -40.5t-17 -41t-41 -17t-41 17zM334.5 -327.5q-16.5 16.5 -16.5 41.5q0 24 16.5 41t41.5 17q23 0 40.5 -17t17.5 -41t-17 -41t-41 -17q-25 0 -41.5 16.5z" />
    <glyph glyph-name="uniFB55" unicode="&#x67b;" horiz-adv-x="338" arabic-form="medial" 
d="M358 58l-20 -58q-64 0 -103.5 15t-64.5 55q-25 -40 -63.5 -55t-106.5 -15l-20 57l31 66q52 0 74 9.5t27 28t5 62.5v115h105v-114q0 -42 8.5 -62.5t35 -29.5t82.5 -9zM128 -173q-17 17 -17 41t17 40.5t41 16.5t41 -16.5t17 -40.5t-17 -41t-41 -17t-41 17zM128.5 -327.5
q-16.5 16.5 -16.5 41.5q0 24 16.5 41t41.5 17q23 0 40.5 -17t17.5 -41t-17 -41t-41 -17q-25 0 -41.5 16.5z" />
    <glyph glyph-name="uniFB54" unicode="&#x67b;" horiz-adv-x="306" arabic-form="initial" 
d="M99.5 129.5q29.5 6.5 40 22t10.5 46.5q0 59 -47 185l109 36q21 -61 32 -123.5t11 -109.5q0 -75 -23.5 -115t-77.5 -55.5t-154 -15.5l-20 57l30 66q60 0 89.5 6.5zM105 -173q-17 17 -17 41t17 40.5t41 16.5t41 -16.5t17 -40.5t-17 -41t-41 -17t-41 17zM105.5 -327.5
q-16.5 16.5 -16.5 41.5q0 24 16.5 41t41.5 17q23 0 40.5 -17t17.5 -41t-17 -41t-41 -17q-25 0 -41.5 16.5z" />
    <glyph glyph-name="uniFB5B" unicode="&#x680;" horiz-adv-x="982" arabic-form="final" 
d="M1002 60l-20 -60q-78 0 -124 17.5t-77 62.5q-74 -44 -163 -67t-215 -28v-1h-33h-34v1q-117 4 -181.5 27t-90.5 66.5t-26 116.5q0 40 10 82t28 79l80 -25q-19 -63 -19 -111q0 -41 19.5 -64.5t71 -35t148.5 -13.5q115 3 210.5 22.5t150.5 50.5v163h104v-93q0 -52 11.5 -78
t43.5 -37.5t96 -11.5zM261 -169.5q-16 15.5 -16 37.5q0 24 16 39.5t39 15.5t38.5 -15.5t15.5 -39.5q0 -22 -16 -37.5t-38 -15.5q-23 0 -39 15.5zM411 -169.5q-16 15.5 -16 37.5q0 24 15.5 39.5t38.5 15.5t39 -15.5t16 -39.5q0 -22 -16 -37.5t-39 -15.5q-22 0 -38 15.5z
M261 -313q-16 16 -16 39t16 38.5t39 15.5t38.5 -16t15.5 -38q0 -23 -15.5 -39t-38.5 -16t-39 16zM410.5 -313q-15.5 16 -15.5 39q0 22 16 38t38 16q23 0 39 -16t16 -38q0 -23 -16 -39t-39 -16t-38.5 16z" />
    <glyph glyph-name="uniFB5D" unicode="&#x680;" horiz-adv-x="338" arabic-form="medial" 
d="M358 58l-20 -58q-64 0 -103.5 15t-64.5 55q-25 -40 -63.5 -55t-106.5 -15l-20 57l31 66q52 0 74 9.5t27 28t5 62.5v115h105v-114q0 -42 8.5 -62.5t35 -29.5t82.5 -9zM55 -169.5q-16 15.5 -16 37.5q0 24 16 39.5t39 15.5t38.5 -15.5t15.5 -39.5q0 -22 -16 -37.5t-38 -15.5
q-23 0 -39 15.5zM205 -169.5q-16 15.5 -16 37.5q0 24 15.5 39.5t38.5 15.5t39 -15.5t16 -39.5q0 -22 -16 -37.5t-39 -15.5q-22 0 -38 15.5zM55 -313q-16 16 -16 39t16 38.5t39 15.5t38.5 -16t15.5 -38q0 -23 -15.5 -39t-38.5 -16t-39 16zM204.5 -313q-15.5 16 -15.5 39
q0 22 16 38t38 16q23 0 39 -16t16 -38q0 -23 -16 -39t-39 -16t-38.5 16z" />
    <glyph glyph-name="uniFB5C" unicode="&#x680;" horiz-adv-x="306" arabic-form="initial" 
d="M99.5 129.5q29.5 6.5 40 22t10.5 46.5q0 59 -47 185l109 36q21 -61 32 -123.5t11 -109.5q0 -75 -23.5 -115t-77.5 -55.5t-154 -15.5l-20 57l30 66q60 0 89.5 6.5zM31 -169.5q-16 15.5 -16 37.5q0 24 16 39.5t39 15.5t38.5 -15.5t15.5 -39.5q0 -22 -16 -37.5t-38 -15.5
q-23 0 -39 15.5zM181 -169.5q-16 15.5 -16 37.5q0 24 15.5 39.5t38.5 15.5t39 -15.5t16 -39.5q0 -22 -16 -37.5t-39 -15.5q-22 0 -38 15.5zM31 -313q-16 16 -16 39t16 38.5t39 15.5t38.5 -16t15.5 -38q0 -23 -15.5 -39t-38.5 -16t-39 16zM180.5 -313q-15.5 16 -15.5 39
q0 22 16 38t38 16q23 0 39 -16t16 -38q0 -23 -16 -39t-39 -16t-38.5 16z" />
    <glyph glyph-name="uniFBE9" unicode="&#x649;" horiz-adv-x="338" arabic-form="medial" 
d="M358 58l-20 -58q-64 0 -103.5 15t-64.5 55q-25 -40 -63.5 -55t-106.5 -15l-20 57l31 66q52 0 74 9.5t27 28t5 62.5v115h105v-114q0 -42 8.5 -62.5t35 -29.5t82.5 -9z" />
    <glyph glyph-name="uniFBE8" unicode="&#x649;" horiz-adv-x="306" arabic-form="initial" 
d="M99.5 129.5q29.5 6.5 40 22t10.5 46.5q0 59 -47 185l109 36q21 -61 32 -123.5t11 -109.5q0 -75 -23.5 -115t-77.5 -55.5t-154 -15.5l-20 57l30 66q60 0 89.5 6.5z" />
    <glyph glyph-name="uniFE96" unicode="&#x62a;" horiz-adv-x="982" arabic-form="final" 
d="M1002 60l-20 -60q-78 0 -124 17.5t-77 62.5q-74 -44 -163 -67t-215 -28v-1h-33h-34v1q-117 4 -181.5 27t-90.5 66.5t-26 116.5q0 40 10 82t28 79l80 -25q-19 -63 -19 -111q0 -41 19.5 -64.5t71 -35t148.5 -13.5q115 3 210.5 22.5t150.5 50.5v163h104v-93q0 -52 11.5 -78
t43.5 -37.5t96 -11.5zM344 413q-17 17 -17 41t17 41t40 17q24 0 41 -17t17 -41t-17 -41t-41 -17q-23 0 -40 17zM504 413q-17 17 -17 41t17 41t41 17q23 0 40.5 -17t17.5 -41t-17.5 -41t-40.5 -17q-24 0 -41 17z" />
    <glyph glyph-name="uniFE98" unicode="&#x62a;" horiz-adv-x="338" arabic-form="medial" 
d="M358 58l-20 -58q-64 0 -103.5 15t-64.5 55q-25 -40 -63.5 -55t-106.5 -15l-20 57l31 66q52 0 74 9.5t27 28t5 62.5v115h105v-114q0 -42 8.5 -62.5t35 -29.5t82.5 -9zM49 449q-17 17 -17 41t17 41t40 17q24 0 41 -17t17 -41t-17 -41t-41 -17q-23 0 -40 17zM209 449
q-17 17 -17 41t17 41t41 17q23 0 40.5 -17t17.5 -41t-17.5 -41t-40.5 -17q-24 0 -41 17z" />
    <glyph glyph-name="uniFE97" unicode="&#x62a;" horiz-adv-x="306" arabic-form="initial" 
d="M99.5 129.5q29.5 6.5 40 22t10.5 46.5q0 59 -47 185l109 36q21 -61 32 -123.5t11 -109.5q0 -75 -23.5 -115t-77.5 -55.5t-154 -15.5l-20 57l30 66q60 0 89.5 6.5zM6 517q-17 17 -17 41t17 41t40 17q24 0 41 -17t17 -41t-17 -41t-41 -17q-23 0 -40 17zM166 517
q-17 17 -17 41t17 41t41 17q23 0 40.5 -17t17.5 -41t-17.5 -41t-40.5 -17q-24 0 -41 17z" />
    <glyph glyph-name="uni067C.init" unicode="&#x67c;" horiz-adv-x="296" 
d="M5.5 517q-17.5 17 -17.5 41t17 41t41 17t41 -16.5t17 -41.5q0 -24 -17 -41t-41 -17q-23 0 -40.5 17zM166 517q-17 17 -17 41q0 25 17 41.5t41 16.5t40.5 -16.5t16.5 -41.5q0 -24 -17 -41t-40 -17q-24 0 -41 17zM242 93.5q-13 -35.5 -42 -56.5q24 -26 24 -62
q0 -38 -26 -63.5t-65 -25.5t-65.5 25.5t-26.5 63.5q0 15 4 26q-14 -1 -45 -1l-20 57l30 66q60 0 89.5 6.5t40 22t10.5 46.5q0 59 -47 185l109 36q21 -61 32 -123.5t11 -109.5q0 -57 -13 -92.5zM131 10l-14 -3q-22 -8 -22 -32q0 -14 10.5 -24.5t27.5 -10.5t27 10.5t10 24.5
q0 16 -10 25.5t-27 9.5h-2z" />
    <glyph glyph-name="uni067C.medi" unicode="&#x67c;" horiz-adv-x="338" 
d="M48 448q-17 17 -17 42q0 24 17 40.5t41 16.5t41 -16.5t17 -40.5q0 -25 -17 -42t-41 -17t-41 17zM209 448q-17 17 -17 42q0 24 17 40.5t41 16.5q23 0 40 -16.5t17 -40.5q0 -25 -17 -42t-40 -17q-24 0 -41 17zM234.5 15q-39.5 15 -64.5 55q-2 -5 -10 -15q20 -12 31.5 -32
t11.5 -45q0 -38 -26 -63.5t-66 -25.5q-39 0 -65.5 25.5t-26.5 63.5q0 11 3 22h-22l-20 57l31 66q52 0 74 9.5t27 28t5 62.5v115h105v-114q0 -42 8.5 -62.5t35 -29.5t82.5 -9l10 -65l-20 -58q-64 0 -103.5 15zM139 -46.5q10 10.5 10 24.5q0 16 -10.5 25.5t-27.5 9.5t-27 -9.5
t-10 -25.5q0 -14 10 -24.5t27 -10.5q18 0 28 10.5z" />
    <glyph glyph-name="uni067C.fina" unicode="&#x67c;" horiz-adv-x="982" 
d="M344 413q-17 17 -17 41q0 25 17 41.5t41 16.5t41 -16.5t17 -41.5q0 -24 -17 -41t-41 -17t-41 17zM504 413q-17 17 -17 41q0 25 17 41.5t42 16.5q24 0 40.5 -16.5t16.5 -41.5q0 -24 -17 -41t-40 -17q-25 0 -42 17zM1002 60l-20 -60q-78 0 -124 17.5t-77 62.5
q-67 -40 -146 -62.5t-186 -29.5q8 -19 8 -38q0 -39 -25.5 -64.5t-65.5 -25.5q-39 0 -65.5 26t-26.5 64q0 20 8 38q-95 8 -148 32.5t-74.5 66t-21.5 108.5q0 40 10 82t28 79l80 -25q-19 -63 -19 -111q0 -41 19.5 -64.5t71 -35t148.5 -13.5q115 3 210.5 22.5t150.5 50.5v163
h104v-93q0 -52 11.5 -78t43.5 -37.5t96 -11.5zM393.5 -74.5q10.5 10.5 10.5 24.5q0 13 -8 22.5t-21 11.5h-5h-13q-13 -2 -21 -11.5t-8 -22.5q0 -14 10.5 -24.5t27.5 -10.5t27.5 10.5z" />
    <glyph glyph-name="uni067D.init" unicode="&#x67d;" horiz-adv-x="306" 
d="M99.5 129.5q29.5 6.5 40 22t10.5 46.5q0 59 -47 185l109 36q21 -61 32 -123.5t11 -109.5q0 -75 -23.5 -115t-77.5 -55.5t-154 -15.5l-20 57l30 66q60 0 89.5 6.5zM79.5 697.5q16.5 -16.5 16.5 -39.5t-16.5 -39.5t-38.5 -16.5q-24 0 -40.5 16.5t-16.5 39.5t16.5 39.5
t40.5 16.5q22 0 38.5 -16.5zM253.5 697.5q16.5 -16.5 16.5 -39.5t-16.5 -39.5t-40.5 -16.5q-22 0 -38.5 16.5t-16.5 39.5t16.5 39.5t38.5 16.5q24 0 40.5 -16.5zM166 568.5q16 -16.5 16 -39.5t-16 -39.5t-39 -16.5t-39 16.5t-16 39.5t16 39.5t39 16.5t39 -16.5z" />
    <glyph glyph-name="uni067D.medi" unicode="&#x67d;" horiz-adv-x="338" 
d="M358 58l-20 -58q-64 0 -103.5 15t-64.5 55q-25 -40 -63.5 -55t-106.5 -15l-20 57l31 66q52 0 74 9.5t27 28t5 62.5v115h105v-114q0 -42 8.5 -62.5t35 -29.5t82.5 -9zM122.5 629.5q16.5 -16.5 16.5 -39.5t-16.5 -39.5t-38.5 -16.5q-24 0 -40.5 16.5t-16.5 39.5t16.5 39.5
t40.5 16.5q22 0 38.5 -16.5zM296.5 629.5q16.5 -16.5 16.5 -39.5t-16.5 -39.5t-40.5 -16.5q-22 0 -38.5 16.5t-16.5 39.5t16.5 39.5t38.5 16.5q24 0 40.5 -16.5zM209 500.5q16 -16.5 16 -39.5t-16 -39.5t-39 -16.5t-39 16.5t-16 39.5t16 39.5t39 16.5t39 -16.5z" />
    <glyph glyph-name="uni067D.fina" unicode="&#x67d;" horiz-adv-x="982" 
d="M1002 60l-20 -60q-78 0 -124 17.5t-77 62.5q-74 -44 -163 -67t-215 -28v-1h-33h-34v1q-117 4 -181.5 27t-90.5 66.5t-26 116.5q0 40 10 82t28 79l80 -25q-19 -63 -19 -111q0 -41 19.5 -64.5t71 -35t148.5 -13.5q115 3 210.5 22.5t150.5 50.5v163h104v-93q0 -52 11.5 -78
t43.5 -37.5t96 -11.5zM417.5 593.5q16.5 -16.5 16.5 -39.5t-16.5 -39.5t-38.5 -16.5q-24 0 -40.5 16.5t-16.5 39.5t16.5 39.5t40.5 16.5q22 0 38.5 -16.5zM591.5 593.5q16.5 -16.5 16.5 -39.5t-16.5 -39.5t-40.5 -16.5q-22 0 -38.5 16.5t-16.5 39.5t16.5 39.5t38.5 16.5
q24 0 40.5 -16.5zM504 464.5q16 -16.5 16 -39.5t-16 -39.5t-39 -16.5t-39 16.5t-16 39.5t16 39.5t39 16.5t39 -16.5z" />
    <glyph glyph-name="uniFE9A" unicode="&#x62b;" horiz-adv-x="982" arabic-form="final" 
d="M1002 60l-20 -60q-78 0 -124 17.5t-77 62.5q-74 -44 -163 -67t-215 -28v-1h-33h-34v1q-117 4 -181.5 27t-90.5 66.5t-26 116.5q0 40 10 82t28 79l80 -25q-19 -63 -19 -111q0 -41 19.5 -64.5t71 -35t148.5 -13.5q115 3 210.5 22.5t150.5 50.5v163h104v-93q0 -52 11.5 -78
t43.5 -37.5t96 -11.5zM426 526.5q-16 16.5 -16 39.5t16 39.5t39 16.5t39 -16.5t16 -39.5t-16 -39.5t-39 -16.5t-39 16.5zM338.5 398q-16.5 16 -16.5 39t16.5 39.5t40.5 16.5q22 0 38.5 -16.5t16.5 -39.5q0 -22 -16.5 -38.5t-38.5 -16.5q-24 0 -40.5 16zM512.5 398.5
q-16.5 16.5 -16.5 38.5q0 23 16.5 39.5t38.5 16.5q24 0 40.5 -16.5t16.5 -39.5t-16.5 -39t-40.5 -16q-22 0 -38.5 16.5z" />
    <glyph glyph-name="uniFE9C" unicode="&#x62b;" horiz-adv-x="338" arabic-form="medial" 
d="M358 58l-20 -58q-64 0 -103.5 15t-64.5 55q-25 -40 -63.5 -55t-106.5 -15l-20 57l31 66q52 0 74 9.5t27 28t5 62.5v115h105v-114q0 -42 8.5 -62.5t35 -29.5t82.5 -9zM131 562.5q-16 16.5 -16 39.5t16 39.5t39 16.5t39 -16.5t16 -39.5t-16 -39.5t-39 -16.5t-39 16.5z
M43.5 434q-16.5 16 -16.5 39t16.5 39.5t40.5 16.5q22 0 38.5 -16.5t16.5 -39.5q0 -22 -16.5 -38.5t-38.5 -16.5q-24 0 -40.5 16zM217.5 434.5q-16.5 16.5 -16.5 38.5q0 23 16.5 39.5t38.5 16.5q24 0 40.5 -16.5t16.5 -39.5t-16.5 -39t-40.5 -16q-22 0 -38.5 16.5z" />
    <glyph glyph-name="uniFE9B" unicode="&#x62b;" horiz-adv-x="306" arabic-form="initial" 
d="M99.5 129.5q29.5 6.5 40 22t10.5 46.5q0 59 -47 185l109 36q21 -61 32 -123.5t11 -109.5q0 -75 -23.5 -115t-77.5 -55.5t-154 -15.5l-20 57l30 66q60 0 89.5 6.5zM88 630.5q-16 16.5 -16 39.5t16 39.5t39 16.5t39 -16.5t16 -39.5t-16 -39.5t-39 -16.5t-39 16.5zM0.5 502
q-16.5 16 -16.5 39t16.5 39.5t40.5 16.5q22 0 38.5 -16.5t16.5 -39.5q0 -22 -16.5 -38.5t-38.5 -16.5q-24 0 -40.5 16zM174.5 502.5q-16.5 16.5 -16.5 38.5q0 23 16.5 39.5t38.5 16.5q24 0 40.5 -16.5t16.5 -39.5t-16.5 -39t-40.5 -16q-22 0 -38.5 16.5z" />
    <glyph glyph-name="uniFB67" unicode="&#x679;" horiz-adv-x="982" arabic-form="final" 
d="M1002 60l-20 -60q-78 0 -124 17.5t-77 62.5q-74 -44 -163 -67t-215 -28v-1h-33h-34v1q-117 4 -181.5 27t-90.5 66.5t-26 116.5q0 40 10 82t28 79l80 -25q-19 -63 -19 -111q0 -41 19.5 -64.5t71 -35t148.5 -13.5q115 3 210.5 22.5t150.5 50.5v163h104v-93q0 -52 11.5 -78
t43.5 -37.5t96 -11.5zM569.5 535q21.5 -26 21.5 -65q0 -33 -24.5 -61t-76.5 -28h-155l7 59h32l2 4v151h58v-71q20 20 38 28.5t38 8.5q38 0 59.5 -26zM523.5 447.5q12.5 7.5 12.5 24.5q0 29 -32 29q-22 0 -44.5 -17t-43.5 -44h64q31 0 43.5 7.5z" />
    <glyph glyph-name="uniFB69" unicode="&#x679;" horiz-adv-x="338" arabic-form="medial" 
d="M358 58l-20 -58q-64 0 -103.5 15t-64.5 55q-25 -40 -63.5 -55t-106.5 -15l-20 57l31 66q52 0 74 9.5t27 28t5 62.5v115h105v-114q0 -42 8.5 -62.5t35 -29.5t82.5 -9zM274.5 571q21.5 -26 21.5 -65q0 -33 -24.5 -61t-76.5 -28h-155l7 59h32l2 4v151h58v-71q20 20 38 28.5
t38 8.5q38 0 59.5 -26zM228.5 483.5q12.5 7.5 12.5 24.5q0 29 -32 29q-22 0 -44.5 -17t-43.5 -44h64q31 0 43.5 7.5z" />
    <glyph glyph-name="uniFB68" unicode="&#x679;" horiz-adv-x="306" arabic-form="initial" 
d="M99.5 129.5q29.5 6.5 40 22t10.5 46.5q0 59 -47 185l109 36q21 -61 32 -123.5t11 -109.5q0 -75 -23.5 -115t-77.5 -55.5t-154 -15.5l-20 57l30 66q60 0 89.5 6.5zM231.5 639q21.5 -26 21.5 -65q0 -33 -24.5 -61t-76.5 -28h-155l7 59h32l2 4v151h58v-71q20 20 38 28.5
t38 8.5q38 0 59.5 -26zM185.5 551.5q12.5 7.5 12.5 24.5q0 29 -32 29q-22 0 -44.5 -17t-43.5 -44h64q31 0 43.5 7.5z" />
    <glyph glyph-name="uniFB5F" unicode="&#x67a;" horiz-adv-x="982" arabic-form="final" 
d="M1002 60l-20 -60q-78 0 -124 17.5t-77 62.5q-74 -44 -163 -67t-215 -28v-1h-33h-34v1q-117 4 -181.5 27t-90.5 66.5t-26 116.5q0 40 10 82t28 79l80 -25q-19 -63 -19 -111q0 -41 19.5 -64.5t71 -35t148.5 -13.5q115 3 210.5 22.5t150.5 50.5v163h104v-93q0 -52 11.5 -78
t43.5 -37.5t96 -11.5zM425 534q-17 17 -17 41t17 41t41 17t41 -17t17 -41t-17 -41t-41 -17t-41 17zM425.5 380q-16.5 17 -16.5 41t16.5 41t41.5 17q23 0 40.5 -17t17.5 -41t-17.5 -41t-40.5 -17q-25 0 -41.5 17z" />
    <glyph glyph-name="uniFB61" unicode="&#x67a;" horiz-adv-x="338" arabic-form="medial" 
d="M358 58l-20 -58q-64 0 -103.5 15t-64.5 55q-25 -40 -63.5 -55t-106.5 -15l-20 57l31 66q52 0 74 9.5t27 28t5 62.5v115h105v-114q0 -42 8.5 -62.5t35 -29.5t82.5 -9zM129 570q-17 17 -17 41t17 41t41 17t41 -17t17 -41t-17 -41t-41 -17t-41 17zM129.5 416
q-16.5 17 -16.5 41t16.5 41t41.5 17q23 0 40.5 -17t17.5 -41t-17.5 -41t-40.5 -17q-25 0 -41.5 17z" />
    <glyph glyph-name="uniFB60" unicode="&#x67a;" horiz-adv-x="306" arabic-form="initial" 
d="M99.5 129.5q29.5 6.5 40 22t10.5 46.5q0 59 -47 185l109 36q21 -61 32 -123.5t11 -109.5q0 -75 -23.5 -115t-77.5 -55.5t-154 -15.5l-20 57l30 66q60 0 89.5 6.5zM86 638q-17 17 -17 41t17 41t41 17t41 -17t17 -41t-17 -41t-41 -17t-41 17zM86.5 484q-16.5 17 -16.5 41
t16.5 41t41.5 17q23 0 40.5 -17t17.5 -41t-17.5 -41t-40.5 -17q-25 0 -41.5 17z" />
    <glyph glyph-name="uniFB63" unicode="&#x67f;" horiz-adv-x="982" arabic-form="final" 
d="M1002 60l-20 -60q-78 0 -124 17.5t-77 62.5q-74 -44 -163 -67t-215 -28v-1h-33h-34v1q-117 4 -181.5 27t-90.5 66.5t-26 116.5q0 40 10 82t28 79l80 -25q-19 -63 -19 -111q0 -41 19.5 -64.5t71 -35t148.5 -13.5q115 3 210.5 22.5t150.5 50.5v163h104v-93q0 -52 11.5 -78
t43.5 -37.5t96 -11.5zM352.5 522q-16.5 16 -16.5 37q0 24 16 40t39 16t38.5 -16t15.5 -40q0 -21 -16 -37t-38 -16t-38.5 16zM502 522q-16 16 -16 37q0 24 15.5 40t38.5 16t39 -16t16 -40q0 -21 -16 -37t-39 -16q-22 0 -38 16zM352 379q-16 16 -16 39q0 22 16 38t39 16
t38.5 -15.5t15.5 -38.5t-15.5 -39t-38.5 -16t-39 16zM501.5 379q-15.5 16 -15.5 39t16 38.5t38 15.5q23 0 39 -15.5t16 -38.5t-16 -39t-39 -16t-38.5 16z" />
    <glyph glyph-name="uniFB65" unicode="&#x67f;" horiz-adv-x="338" arabic-form="medial" 
d="M358 58l-20 -58q-64 0 -103.5 15t-64.5 55q-25 -40 -63.5 -55t-106.5 -15l-20 57l31 66q52 0 74 9.5t27 28t5 62.5v115h105v-114q0 -42 8.5 -62.5t35 -29.5t82.5 -9zM57.5 558q-16.5 16 -16.5 37q0 24 16 40t39 16t38.5 -16t15.5 -40q0 -21 -16 -37t-38 -16t-38.5 16z
M207 558q-16 16 -16 37q0 24 15.5 40t38.5 16t39 -16t16 -40q0 -21 -16 -37t-39 -16q-22 0 -38 16zM57 415q-16 16 -16 39q0 22 16 38t39 16t38.5 -15.5t15.5 -38.5t-15.5 -39t-38.5 -16t-39 16zM206.5 415q-15.5 16 -15.5 39t16 38.5t38 15.5q23 0 39 -15.5t16 -38.5
t-16 -39t-39 -16t-38.5 16z" />
    <glyph glyph-name="uniFB64" unicode="&#x67f;" horiz-adv-x="306" arabic-form="initial" 
d="M99.5 129.5q29.5 6.5 40 22t10.5 46.5q0 59 -47 185l109 36q21 -61 32 -123.5t11 -109.5q0 -75 -23.5 -115t-77.5 -55.5t-154 -15.5l-20 57l30 66q60 0 89.5 6.5zM14.5 626q-16.5 16 -16.5 37q0 24 16 40t39 16t38.5 -16t15.5 -40q0 -21 -16 -37t-38 -16t-38.5 16z
M164 626q-16 16 -16 37q0 24 15.5 40t38.5 16t39 -16t16 -40q0 -21 -16 -37t-39 -16q-22 0 -38 16zM14 483q-16 16 -16 39q0 22 16 38t39 16t38.5 -15.5t15.5 -38.5t-15.5 -39t-38.5 -16t-39 16zM163.5 483q-15.5 16 -15.5 39t16 38.5t38 15.5q23 0 39 -15.5t16 -38.5
t-16 -39t-39 -16t-38.5 16z" />
    <glyph glyph-name="uniFE9E" unicode="&#x62c;" horiz-adv-x="679" arabic-form="final" 
d="M271 142.5q-70 -39.5 -101 -92.5t-31 -107q0 -93 67.5 -140t192.5 -47q61 0 117 12.5t99 34.5l44 -107q-46 -29 -115.5 -46.5t-155.5 -17.5q-112 0 -189.5 37t-116 103.5t-38.5 152.5q0 142 99 238.5t291 124.5q-19 7 -38.5 17.5t-27.5 14.5q-38 21 -67 31t-72 10
q-69 0 -133 -37l-53 101q41 26 90 40t99 14q45 0 82 -12t65 -29.5t69 -47.5q50 -37 88.5 -58t87.5 -28l-12 -103l-67 -3q8 -33 23 -48.5t42.5 -21t78.5 -5.5l10 -67l-20 -56q-99 0 -159 48.5t-69 144.5q-110 -11 -180 -50.5zM327 -96q-18 18 -18 44t18 44t44 18t44 -18
t18 -44t-18 -44t-44 -18t-44 18z" />
    <glyph glyph-name="uniFEA0" unicode="&#x62c;" horiz-adv-x="727" arabic-form="medial" 
d="M747 56l-20 -56q-115 0 -178 45.5t-75 138.5q-42 -12 -81.5 -31t-101.5 -53q-89 -50 -153.5 -75t-137.5 -25l-20 57l30 66q72 0 129 18.5t138 57.5q62 30 110 49t105 30q-45 14 -99 42q-46 22 -76.5 31.5t-77.5 9.5q-61 0 -125 -37l-56 103q42 24 89.5 38t86.5 14
q57 0 98 -10.5t69.5 -26t66.5 -42.5q50 -35 93.5 -58t111.5 -39l-15 -101l-91 -3q7 -35 24 -51t48.5 -20.5t97.5 -4.5zM355 -146q-18 18 -18 44t18 44t44 18t44 -18t18 -44t-18 -44t-44 -18t-44 18z" />
    <glyph glyph-name="uniFE9F" unicode="&#x62c;" horiz-adv-x="709" arabic-form="initial" 
d="M341 466q43 -13 70.5 -33t65.5 -54q48 -44 89 -71t107 -44l-15 -101l-101 -7q-71 -5 -129.5 -24t-142.5 -56q-88 -38 -149 -57t-136 -19l-20 57l30 66q66 0 121 15t141 47q63 25 111 40.5t102 23.5q-38 19 -84 54q-28 21 -47 32t-48 18.5t-70 7.5q-62 0 -126 -37l-54 103
q42 25 90 38.5t91 13.5q61 0 104 -13zM262 -196q-18 18 -18 44t18 44t44 18t44 -18t18 -44t-18 -44t-44 -18t-44 18z" />
    <glyph glyph-name="uniFB7B" unicode="&#x686;" horiz-adv-x="679" arabic-form="final" 
d="M520 48.5q-60 48.5 -69 144.5q-110 -11 -180 -50.5t-101 -92.5t-31 -107q0 -93 67.5 -140t192.5 -47q61 0 117 12.5t99 34.5l44 -107q-46 -29 -115.5 -46.5t-155.5 -17.5q-112 0 -189.5 37t-116 103.5t-38.5 152.5q0 142 99 238.5t291 124.5q-19 7 -38.5 17.5t-27.5 14.5
q-38 21 -67 31t-72 10q-69 0 -133 -37l-53 101q41 26 90 40t99 14q45 0 82 -12t65 -29.5t69 -47.5q50 -37 88.5 -58t87.5 -28l-12 -103l-67 -3q8 -33 23 -48.5t42.5 -21t78.5 -5.5l10 -67l-20 -56q-99 0 -159 48.5zM317 36.5q16 -15.5 16 -36.5q0 -22 -16 -38t-37 -16
q-22 0 -38 15.5t-16 38.5q0 21 16 36.5t38 15.5q21 0 37 -15.5zM482.5 -38.5q-15.5 -15.5 -38.5 -15.5q-21 0 -36.5 16t-15.5 38q0 21 15.5 36.5t36.5 15.5q22 0 38 -15.5t16 -36.5q0 -23 -15.5 -38.5zM325.5 -160.5q-15.5 15.5 -15.5 37.5t15.5 37.5t36.5 15.5t37 -15.5
t16 -37.5t-16 -37.5t-37 -15.5t-36.5 15.5z" />
    <glyph glyph-name="uniFB7D" unicode="&#x686;" horiz-adv-x="727" arabic-form="medial" 
d="M747 56l-20 -56q-115 0 -178 45.5t-75 138.5q-42 -12 -81.5 -31t-101.5 -53q-89 -50 -153.5 -75t-137.5 -25l-20 57l30 66q72 0 129 18.5t138 57.5q62 30 110 49t105 30q-45 14 -99 42q-46 22 -76.5 31.5t-77.5 9.5q-61 0 -125 -37l-56 103q42 24 89.5 38t86.5 14
q57 0 98 -10.5t69.5 -26t66.5 -42.5q50 -35 93.5 -58t111.5 -39l-15 -101l-91 -3q7 -35 24 -51t48.5 -20.5t97.5 -4.5zM351.5 -56.5q16.5 -16.5 16.5 -38.5q0 -24 -16.5 -40.5t-38.5 -16.5q-24 0 -40.5 16.5t-16.5 40.5q0 23 16.5 39t40.5 16q22 0 38.5 -16.5zM525.5 -56
q16.5 -16 16.5 -39q0 -24 -16.5 -40.5t-40.5 -16.5q-22 0 -38.5 16.5t-16.5 40.5q0 22 16.5 38.5t38.5 16.5q24 0 40.5 -16zM438 -184.5q16 -16.5 16 -39.5t-16 -39.5t-39 -16.5t-39 16.5t-16 39.5t16 39.5t39 16.5t39 -16.5z" />
    <glyph glyph-name="uniFB7C" unicode="&#x686;" horiz-adv-x="709" arabic-form="initial" 
d="M341 466q43 -13 70.5 -33t65.5 -54q48 -44 89 -71t107 -44l-15 -101l-101 -7q-71 -5 -129.5 -24t-142.5 -56q-88 -38 -149 -57t-136 -19l-20 57l30 66q66 0 121 15t141 47q63 25 111 40.5t102 23.5q-38 19 -84 54q-28 21 -47 32t-48 18.5t-70 7.5q-62 0 -126 -37l-54 103
q42 25 90 38.5t91 13.5q61 0 104 -13zM258.5 -106.5q16.5 -16.5 16.5 -38.5q0 -24 -16.5 -40.5t-38.5 -16.5q-24 0 -40.5 16.5t-16.5 40.5q0 23 16.5 39t40.5 16q22 0 38.5 -16.5zM432.5 -106q16.5 -16 16.5 -39q0 -24 -16.5 -40.5t-40.5 -16.5q-22 0 -38.5 16.5t-16.5 40.5
q0 22 16.5 38.5t38.5 16.5q24 0 40.5 -16zM345 -234.5q16 -16.5 16 -39.5t-16 -39.5t-39 -16.5t-39 16.5t-16 39.5t16 39.5t39 16.5t39 -16.5z" />
    <glyph glyph-name="uniFB7F" unicode="&#x687;" horiz-adv-x="679" arabic-form="final" 
d="M520 48.5q-60 48.5 -69 144.5q-110 -11 -180 -50.5t-101 -92.5t-31 -107q0 -93 67.5 -140t192.5 -47q61 0 117 12.5t99 34.5l44 -107q-46 -29 -115.5 -46.5t-155.5 -17.5q-112 0 -189.5 37t-116 103.5t-38.5 152.5q0 142 99 238.5t291 124.5q-19 7 -38.5 17.5t-27.5 14.5
q-38 21 -67 31t-72 10q-69 0 -133 -37l-53 101q41 26 90 40t99 14q45 0 82 -12t65 -29.5t69 -47.5q50 -37 88.5 -58t87.5 -28l-12 -103l-67 -3q8 -33 23 -48.5t42.5 -21t78.5 -5.5l10 -67l-20 -56q-99 0 -159 48.5zM337 61.5q15 -15.5 15 -37.5q0 -21 -15 -36t-36 -15
q-22 0 -37 15t-15 36q0 22 15 37.5t37 15.5q21 0 36 -15.5zM479.5 61.5q15.5 -15.5 15.5 -37.5q0 -21 -15.5 -36t-37.5 -15q-21 0 -36 15t-15 36q0 22 15 37.5t36 15.5q22 0 37.5 -15.5zM337 -74q15 -15 15 -37t-15 -37t-36 -15q-22 0 -37 15t-15 37t15 37t37 15
q21 0 36 -15zM479.5 -74q15.5 -15 15.5 -37t-15.5 -37t-37.5 -15q-21 0 -36 15t-15 37t15 37t36 15q22 0 37.5 -15z" />
    <glyph glyph-name="uniFB81" unicode="&#x687;" horiz-adv-x="727" arabic-form="medial" 
d="M747 56l-20 -56q-115 0 -178 45.5t-75 138.5q-42 -12 -81.5 -31t-101.5 -53q-89 -50 -153.5 -75t-137.5 -25l-20 57l30 66q72 0 129 18.5t138 57.5q62 30 110 49t105 30q-45 14 -99 42q-46 22 -76.5 31.5t-77.5 9.5q-61 0 -125 -37l-56 103q42 24 89.5 38t86.5 14
q57 0 98 -10.5t69.5 -26t66.5 -42.5q50 -35 93.5 -58t111.5 -39l-15 -101l-91 -3q7 -35 24 -51t48.5 -20.5t97.5 -4.5zM285 -119.5q-16 15.5 -16 37.5q0 24 16 39.5t39 15.5t38.5 -15.5t15.5 -39.5q0 -22 -16 -37.5t-38 -15.5q-23 0 -39 15.5zM435 -119.5q-16 15.5 -16 37.5
q0 24 15.5 39.5t38.5 15.5t39 -15.5t16 -39.5q0 -22 -16 -37.5t-39 -15.5q-22 0 -38 15.5zM285 -263q-16 16 -16 39t16 38.5t39 15.5t38.5 -16t15.5 -38q0 -23 -15.5 -39t-38.5 -16t-39 16zM434.5 -263q-15.5 16 -15.5 39q0 22 16 38t38 16q23 0 39 -16t16 -38
q0 -23 -16 -39t-39 -16t-38.5 16z" />
    <glyph glyph-name="uniFB80" unicode="&#x687;" horiz-adv-x="709" arabic-form="initial" 
d="M341 466q43 -13 70.5 -33t65.5 -54q48 -44 89 -71t107 -44l-15 -101l-101 -7q-71 -5 -129.5 -24t-142.5 -56q-88 -38 -149 -57t-136 -19l-20 57l30 66q66 0 121 15t141 47q63 25 111 40.5t102 23.5q-38 19 -84 54q-28 21 -47 32t-48 18.5t-70 7.5q-62 0 -126 -37l-54 103
q42 25 90 38.5t91 13.5q61 0 104 -13zM192 -169.5q-16 15.5 -16 37.5q0 24 16 39.5t39 15.5t38.5 -15.5t15.5 -39.5q0 -22 -16 -37.5t-38 -15.5q-23 0 -39 15.5zM342 -169.5q-16 15.5 -16 37.5q0 24 15.5 39.5t38.5 15.5t39 -15.5t16 -39.5q0 -22 -16 -37.5t-39 -15.5
q-22 0 -38 15.5zM192 -313q-16 16 -16 39t16 38.5t39 15.5t38.5 -16t15.5 -38q0 -23 -15.5 -39t-38.5 -16t-39 16zM341.5 -313q-15.5 16 -15.5 39q0 22 16 38t38 16q23 0 39 -16t16 -38q0 -23 -16 -39t-39 -16t-38.5 16z" />
    <glyph glyph-name="uni06BF.init" unicode="&#x6bf;" horiz-adv-x="709" 
d="M341 466q43 -13 70.5 -33t65.5 -54q48 -44 89 -71t107 -44l-15 -101l-101 -7q-71 -5 -129.5 -24t-142.5 -56q-88 -38 -149 -57t-136 -19l-20 57l30 66q66 0 121 15t141 47q63 25 111 40.5t102 23.5q-38 19 -84 54q-28 21 -47 32t-48 18.5t-70 7.5q-62 0 -126 -37l-54 103
q42 25 90 38.5t91 13.5q61 0 104 -13zM258.5 -106.5q16.5 -16.5 16.5 -38.5q0 -24 -16.5 -40.5t-38.5 -16.5q-24 0 -40.5 16.5t-16.5 40.5q0 23 16.5 39t40.5 16q22 0 38.5 -16.5zM432.5 -106q16.5 -16 16.5 -39q0 -24 -16.5 -40.5t-40.5 -16.5q-22 0 -38.5 16.5t-16.5 40.5
q0 22 16.5 38.5t38.5 16.5q24 0 40.5 -16zM345 -234.5q16 -16.5 16 -39.5t-16 -39.5t-39 -16.5t-39 16.5t-16 39.5t16 39.5t39 16.5t39 -16.5zM191 565q-18 18 -18 44t18 44t44 18t44 -18t18 -44t-18 -44t-44 -18t-44 18z" />
    <glyph glyph-name="uni06BF.medi" unicode="&#x6bf;" horiz-adv-x="727" 
d="M747 56l-20 -56q-115 0 -178 45.5t-75 138.5q-42 -12 -81.5 -31t-101.5 -53q-89 -50 -153.5 -75t-137.5 -25l-20 57l30 66q72 0 129 18.5t138 57.5q62 30 110 49t105 30q-45 14 -99 42q-46 22 -76.5 31.5t-77.5 9.5q-61 0 -125 -37l-56 103q42 24 89.5 38t86.5 14
q57 0 98 -10.5t69.5 -26t66.5 -42.5q50 -35 93.5 -58t111.5 -39l-15 -101l-91 -3q7 -35 24 -51t48.5 -20.5t97.5 -4.5zM351.5 -56.5q16.5 -16.5 16.5 -38.5q0 -24 -16.5 -40.5t-38.5 -16.5q-24 0 -40.5 16.5t-16.5 40.5q0 23 16.5 39t40.5 16q22 0 38.5 -16.5zM525.5 -56
q16.5 -16 16.5 -39q0 -24 -16.5 -40.5t-40.5 -16.5q-22 0 -38.5 16.5t-16.5 40.5q0 22 16.5 38.5t38.5 16.5q24 0 40.5 -16zM438 -184.5q16 -16.5 16 -39.5t-16 -39.5t-39 -16.5t-39 16.5t-16 39.5t16 39.5t39 16.5t39 -16.5zM188 565q-18 18 -18 44t18 44t44 18t44 -18
t18 -44t-18 -44t-44 -18t-44 18z" />
    <glyph glyph-name="uni06BF.fina" unicode="&#x6bf;" horiz-adv-x="677" 
d="M520 48.5q-60 48.5 -69 144.5q-110 -11 -180 -50.5t-101 -92.5t-31 -107q0 -93 67.5 -140t192.5 -47q61 0 117 12.5t99 34.5l44 -107q-46 -29 -115.5 -46.5t-155.5 -17.5q-112 0 -189.5 37t-116 103.5t-38.5 152.5q0 142 99 238.5t291 124.5q-19 7 -38.5 17.5t-27.5 14.5
q-38 21 -67 31t-72 10q-69 0 -133 -37l-53 101q41 26 90 40t99 14q45 0 82 -12t65 -29.5t69 -47.5q50 -37 88.5 -58t87.5 -28l-12 -103l-67 -3q8 -33 23 -48.5t42.5 -21t78.5 -5.5l10 -67l-20 -56q-99 0 -159 48.5zM317 36.5q16 -15.5 16 -36.5q0 -22 -16 -38t-37 -16
q-22 0 -38 15.5t-16 38.5q0 21 16 36.5t38 15.5q21 0 37 -15.5zM482.5 -38.5q-15.5 -15.5 -38.5 -15.5q-21 0 -36.5 16t-15.5 38q0 21 15.5 36.5t36.5 15.5q22 0 38 -15.5t16 -36.5q0 -23 -15.5 -38.5zM325.5 -160.5q-15.5 15.5 -15.5 37.5t15.5 37.5t36.5 15.5t37 -15.5
t16 -37.5t-16 -37.5t-37 -15.5t-36.5 15.5zM188 565q-18 18 -18 44t18 44t44 18t44 -18t18 -44t-18 -44t-44 -18t-44 18z" />
    <glyph glyph-name="uniFB77" unicode="&#x683;" horiz-adv-x="679" arabic-form="final" 
d="M271 142.5q-70 -39.5 -101 -92.5t-31 -107q0 -93 67.5 -140t192.5 -47q61 0 117 12.5t99 34.5l44 -107q-46 -29 -115.5 -46.5t-155.5 -17.5q-112 0 -189.5 37t-116 103.5t-38.5 152.5q0 142 99 238.5t291 124.5q-19 7 -38.5 17.5t-27.5 14.5q-38 21 -67 31t-72 10
q-69 0 -133 -37l-53 101q41 26 90 40t99 14q45 0 82 -12t65 -29.5t69 -47.5q50 -37 88.5 -58t87.5 -28l-12 -103l-67 -3q8 -33 23 -48.5t42.5 -21t78.5 -5.5l10 -67l-20 -56q-99 0 -159 48.5t-69 144.5q-110 -11 -180 -50.5zM250 -89q-17 17 -17 41q0 25 17 41.5t40 16.5
q24 0 41 -16.5t17 -41.5q0 -24 -17 -41t-41 -17q-23 0 -40 17zM410 -89q-17 17 -17 41q0 25 17 41.5t41 16.5t41 -17t17 -41t-17.5 -41t-40.5 -17q-24 0 -41 17z" />
    <glyph glyph-name="uniFB79" unicode="&#x683;" horiz-adv-x="727" arabic-form="medial" 
d="M747 56l-20 -56q-115 0 -178 45.5t-75 138.5q-42 -12 -81.5 -31t-101.5 -53q-89 -50 -153.5 -75t-137.5 -25l-20 57l30 66q72 0 129 18.5t138 57.5q62 30 110 49t105 30q-45 14 -99 42q-46 22 -76.5 31.5t-77.5 9.5q-61 0 -125 -37l-56 103q42 24 89.5 38t86.5 14
q57 0 98 -10.5t69.5 -26t66.5 -42.5q50 -35 93.5 -58t111.5 -39l-15 -101l-91 -3q7 -35 24 -51t48.5 -20.5t97.5 -4.5zM278 -134q-17 17 -17 41t17 41t40 17q24 0 41 -17t17 -41t-17 -41t-41 -17q-23 0 -40 17zM438 -134q-17 17 -17 41t17 41t41 17q23 0 40.5 -17t17.5 -41
t-17.5 -41t-40.5 -17q-24 0 -41 17z" />
    <glyph glyph-name="uniFB78" unicode="&#x683;" horiz-adv-x="709" arabic-form="initial" 
d="M341 466q43 -13 70.5 -33t65.5 -54q48 -44 89 -71t107 -44l-15 -101l-101 -7q-71 -5 -129.5 -24t-142.5 -56q-88 -38 -149 -57t-136 -19l-20 57l30 66q66 0 121 15t141 47q63 25 111 40.5t102 23.5q-38 19 -84 54q-28 21 -47 32t-48 18.5t-70 7.5q-62 0 -126 -37l-54 103
q42 25 90 38.5t91 13.5q61 0 104 -13zM185 -184q-17 17 -17 41t17 41t40 17q24 0 41 -17t17 -41t-17 -41t-41 -17q-23 0 -40 17zM345 -184q-17 17 -17 41t17 41t41 17q23 0 40.5 -17t17.5 -41t-17.5 -41t-40.5 -17q-24 0 -41 17z" />
    <glyph glyph-name="uniFB73" unicode="&#x684;" horiz-adv-x="679" arabic-form="final" 
d="M271 142.5q-70 -39.5 -101 -92.5t-31 -107q0 -93 67.5 -140t192.5 -47q61 0 117 12.5t99 34.5l44 -107q-46 -29 -115.5 -46.5t-155.5 -17.5q-112 0 -189.5 37t-116 103.5t-38.5 152.5q0 142 99 238.5t291 124.5q-19 7 -38.5 17.5t-27.5 14.5q-38 21 -67 31t-72 10
q-69 0 -133 -37l-53 101q41 26 90 40t99 14q45 0 82 -12t65 -29.5t69 -47.5q50 -37 88.5 -58t87.5 -28l-12 -103l-67 -3q8 -33 23 -48.5t42.5 -21t78.5 -5.5l10 -67l-20 -56q-99 0 -159 48.5t-69 144.5q-110 -11 -180 -50.5zM332 -29q-17 17 -17 41t17 41t41 17t41 -17
t17 -41t-17 -41t-41 -17t-41 17zM332.5 -183q-16.5 17 -16.5 41t16.5 41t40.5 17t41 -17t17 -41t-17 -41t-41 -17t-40.5 17z" />
    <glyph glyph-name="uniFB75" unicode="&#x684;" horiz-adv-x="727" arabic-form="medial" 
d="M747 56l-20 -56q-115 0 -178 45.5t-75 138.5q-42 -12 -81.5 -31t-101.5 -53q-89 -50 -153.5 -75t-137.5 -25l-20 57l30 66q72 0 129 18.5t138 57.5q62 30 110 49t105 30q-45 14 -99 42q-46 22 -76.5 31.5t-77.5 9.5q-61 0 -125 -37l-56 103q42 24 89.5 38t86.5 14
q57 0 98 -10.5t69.5 -26t66.5 -42.5q50 -35 93.5 -58t111.5 -39l-15 -101l-91 -3q7 -35 24 -51t48.5 -20.5t97.5 -4.5zM358 -123q-17 17 -17 41t17 40.5t41 16.5t41 -16.5t17 -40.5t-17 -41t-41 -17t-41 17zM358.5 -277.5q-16.5 16.5 -16.5 41.5q0 24 16.5 41t41.5 17
q23 0 40.5 -17t17.5 -41t-17 -41t-41 -17q-25 0 -41.5 16.5z" />
    <glyph glyph-name="uniFB74" unicode="&#x684;" horiz-adv-x="709" arabic-form="initial" 
d="M341 466q43 -13 70.5 -33t65.5 -54q48 -44 89 -71t107 -44l-15 -101l-101 -7q-71 -5 -129.5 -24t-142.5 -56q-88 -38 -149 -57t-136 -19l-20 57l30 66q66 0 121 15t141 47q63 25 111 40.5t102 23.5q-38 19 -84 54q-28 21 -47 32t-48 18.5t-70 7.5q-62 0 -126 -37l-54 103
q42 25 90 38.5t91 13.5q61 0 104 -13zM265 -173q-17 17 -17 41t17 40.5t41 16.5t41 -16.5t17 -40.5t-17 -41t-41 -17t-41 17zM265.5 -327.5q-16.5 16.5 -16.5 41.5q0 24 16.5 41t41.5 17q23 0 40.5 -17t17.5 -41t-17 -41t-41 -17q-25 0 -41.5 16.5z" />
    <glyph glyph-name="uniFEA2" unicode="&#x62d;" horiz-adv-x="679" arabic-form="final" 
d="M271 142.5q-70 -39.5 -101 -92.5t-31 -107q0 -93 67.5 -140t192.5 -47q61 0 117 12.5t99 34.5l44 -107q-46 -29 -115.5 -46.5t-155.5 -17.5q-112 0 -189.5 37t-116 103.5t-38.5 152.5q0 142 99 238.5t291 124.5q-19 7 -38.5 17.5t-27.5 14.5q-38 21 -67 31t-72 10
q-69 0 -133 -37l-53 101q41 26 90 40t99 14q45 0 82 -12t65 -29.5t69 -47.5q50 -37 88.5 -58t87.5 -28l-12 -103l-67 -3q8 -33 23 -48.5t42.5 -21t78.5 -5.5l10 -67l-20 -56q-99 0 -159 48.5t-69 144.5q-110 -11 -180 -50.5z" />
    <glyph glyph-name="uniFEA4" unicode="&#x62d;" horiz-adv-x="727" arabic-form="medial" 
d="M747 56l-20 -56q-115 0 -178 45.5t-75 138.5q-42 -12 -81.5 -31t-101.5 -53q-89 -50 -153.5 -75t-137.5 -25l-20 57l30 66q72 0 129 18.5t138 57.5q62 30 110 49t105 30q-45 14 -99 42q-46 22 -76.5 31.5t-77.5 9.5q-61 0 -125 -37l-56 103q42 24 89.5 38t86.5 14
q57 0 98 -10.5t69.5 -26t66.5 -42.5q50 -35 93.5 -58t111.5 -39l-15 -101l-91 -3q7 -35 24 -51t48.5 -20.5t97.5 -4.5z" />
    <glyph glyph-name="uniFEA3" unicode="&#x62d;" horiz-adv-x="709" arabic-form="initial" 
d="M341 466q43 -13 70.5 -33t65.5 -54q48 -44 89 -71t107 -44l-15 -101l-101 -7q-71 -5 -129.5 -24t-142.5 -56q-88 -38 -149 -57t-136 -19l-20 57l30 66q66 0 121 15t141 47q63 25 111 40.5t102 23.5q-38 19 -84 54q-28 21 -47 32t-48 18.5t-70 7.5q-62 0 -126 -37l-54 103
q42 25 90 38.5t91 13.5q61 0 104 -13z" />
    <glyph glyph-name="uni0681.init" unicode="&#x681;" horiz-adv-x="709" 
d="M341 466q43 -13 70.5 -33t65.5 -54q48 -44 89 -71t107 -44l-15 -101l-101 -7q-71 -5 -129.5 -24t-142.5 -56q-88 -38 -149 -57t-136 -19l-20 57l30 66q66 0 121 15t141 47q63 25 111 40.5t102 23.5q-38 19 -84 54q-28 21 -47 32t-48 18.5t-70 7.5q-62 0 -126 -37l-54 103
q42 25 90 38.5t91 13.5q61 0 104 -13zM349 557l-221 -35l-8 61l63 10q-38 34 -38 68q0 38 27.5 64t78.5 26q38 0 83 -25l-38 -59q-26 16 -47 16q-18 0 -26 -9t-8 -21q0 -22 31 -49l93 15z" />
    <glyph glyph-name="uni0681.medi" unicode="&#x681;" horiz-adv-x="727" 
d="M747 56l-20 -56q-115 0 -178 45.5t-75 138.5q-42 -12 -81.5 -31t-101.5 -53q-89 -50 -153.5 -75t-137.5 -25l-20 57l30 66q72 0 129 18.5t138 57.5q62 30 110 49t105 30q-45 14 -99 42q-46 22 -76.5 31.5t-77.5 9.5q-61 0 -125 -37l-56 103q42 24 89.5 38t86.5 14
q57 0 98 -10.5t69.5 -26t66.5 -42.5q50 -35 93.5 -58t111.5 -39l-15 -101l-91 -3q7 -35 24 -51t48.5 -20.5t97.5 -4.5zM346 557l-221 -35l-8 61l63 10q-38 34 -38 68q0 38 27.5 64t78.5 26q38 0 83 -25l-38 -59q-26 16 -47 16q-18 0 -26 -9t-8 -21q0 -22 31 -49l93 15z" />
    <glyph glyph-name="uni0681.fina" unicode="&#x681;" horiz-adv-x="679" 
d="M271 142.5q-70 -39.5 -101 -92.5t-31 -107q0 -93 67.5 -140t192.5 -47q61 0 117 12.5t99 34.5l44 -107q-46 -29 -115.5 -46.5t-155.5 -17.5q-112 0 -189.5 37t-116 103.5t-38.5 152.5q0 142 99 238.5t291 124.5q-19 7 -38.5 17.5t-27.5 14.5q-38 21 -67 31t-72 10
q-69 0 -133 -37l-53 101q41 26 90 40t99 14q45 0 82 -12t65 -29.5t69 -47.5q50 -37 88.5 -58t87.5 -28l-12 -103l-67 -3q8 -33 23 -48.5t42.5 -21t78.5 -5.5l10 -67l-20 -56q-99 0 -159 48.5t-69 144.5q-110 -11 -180 -50.5zM346 557l-221 -35l-8 61l63 10q-38 34 -38 68
q0 38 27.5 64t78.5 26q38 0 83 -25l-38 -59q-26 16 -47 16q-18 0 -26 -9t-8 -21q0 -22 31 -49l93 15z" />
    <glyph glyph-name="uni0682.init" unicode="&#x682;" horiz-adv-x="709" 
d="M341 466q43 -13 70.5 -33t65.5 -54q48 -44 89 -71t107 -44l-15 -101l-101 -7q-71 -5 -129.5 -24t-142.5 -56q-88 -38 -149 -57t-136 -19l-20 57l30 66q66 0 121 15t141 47q63 25 111 40.5t102 23.5q-38 19 -84 54q-28 21 -47 32t-48 18.5t-70 7.5q-62 0 -126 -37l-54 103
q42 25 90 38.5t91 13.5q61 0 104 -13zM196 702q-17 17 -17 41t17 41t41 17t41 -17t17 -41t-17 -41t-41 -17t-41 17zM196.5 548q-16.5 17 -16.5 41t16.5 41t41.5 17q23 0 40.5 -17t17.5 -41t-17.5 -41t-40.5 -17q-25 0 -41.5 17z" />
    <glyph glyph-name="uni0682.medi" unicode="&#x682;" horiz-adv-x="727" 
d="M747 56l-20 -56q-115 0 -178 45.5t-75 138.5q-42 -12 -81.5 -31t-101.5 -53q-89 -50 -153.5 -75t-137.5 -25l-20 57l30 66q72 0 129 18.5t138 57.5q62 30 110 49t105 30q-45 14 -99 42q-46 22 -76.5 31.5t-77.5 9.5q-61 0 -125 -37l-56 103q42 24 89.5 38t86.5 14
q57 0 98 -10.5t69.5 -26t66.5 -42.5q50 -35 93.5 -58t111.5 -39l-15 -101l-91 -3q7 -35 24 -51t48.5 -20.5t97.5 -4.5zM194 702q-17 17 -17 41t17 41t41 17t41 -17t17 -41t-17 -41t-41 -17t-41 17zM194.5 548q-16.5 17 -16.5 41t16.5 41t41.5 17q23 0 40.5 -17t17.5 -41
t-17.5 -41t-40.5 -17q-25 0 -41.5 17z" />
    <glyph glyph-name="uni0682.fina" unicode="&#x682;" horiz-adv-x="679" 
d="M271 142.5q-70 -39.5 -101 -92.5t-31 -107q0 -93 67.5 -140t192.5 -47q61 0 117 12.5t99 34.5l44 -107q-46 -29 -115.5 -46.5t-155.5 -17.5q-112 0 -189.5 37t-116 103.5t-38.5 152.5q0 142 99 238.5t291 124.5q-19 7 -38.5 17.5t-27.5 14.5q-38 21 -67 31t-72 10
q-69 0 -133 -37l-53 101q41 26 90 40t99 14q45 0 82 -12t65 -29.5t69 -47.5q50 -37 88.5 -58t87.5 -28l-12 -103l-67 -3q8 -33 23 -48.5t42.5 -21t78.5 -5.5l10 -67l-20 -56q-99 0 -159 48.5t-69 144.5q-110 -11 -180 -50.5zM193 702q-17 17 -17 41t17 41t41 17t41 -17
t17 -41t-17 -41t-41 -17t-41 17zM193.5 548q-16.5 17 -16.5 41t16.5 41t41.5 17q23 0 40.5 -17t17.5 -41t-17.5 -41t-40.5 -17q-25 0 -41.5 17z" />
    <glyph glyph-name="uni0685.init" unicode="&#x685;" horiz-adv-x="709" 
d="M341 466q43 -13 70.5 -33t65.5 -54q48 -44 89 -71t107 -44l-15 -101l-101 -7q-71 -5 -129.5 -24t-142.5 -56q-88 -38 -149 -57t-136 -19l-20 57l30 66q66 0 121 15t141 47q63 25 111 40.5t102 23.5q-38 19 -84 54q-28 21 -47 32t-48 18.5t-70 7.5q-62 0 -126 -37l-54 103
q42 25 90 38.5t91 13.5q61 0 104 -13zM198 694.5q-16 16.5 -16 39.5t16 39.5t39 16.5t39 -16.5t16 -39.5t-16 -39.5t-39 -16.5t-39 16.5zM110.5 566q-16.5 16 -16.5 39t16.5 39.5t40.5 16.5q22 0 38.5 -16.5t16.5 -39.5q0 -22 -16.5 -38.5t-38.5 -16.5q-24 0 -40.5 16z
M284.5 566.5q-16.5 16.5 -16.5 38.5q0 23 16.5 39.5t38.5 16.5q24 0 40.5 -16.5t16.5 -39.5t-16.5 -39t-40.5 -16q-22 0 -38.5 16.5z" />
    <glyph glyph-name="uni0685.medi" unicode="&#x685;" horiz-adv-x="727" 
d="M747 56l-20 -56q-115 0 -178 45.5t-75 138.5q-42 -12 -81.5 -31t-101.5 -53q-89 -50 -153.5 -75t-137.5 -25l-20 57l30 66q72 0 129 18.5t138 57.5q62 30 110 49t105 30q-45 14 -99 42q-46 22 -76.5 31.5t-77.5 9.5q-61 0 -125 -37l-56 103q42 24 89.5 38t86.5 14
q57 0 98 -10.5t69.5 -26t66.5 -42.5q50 -35 93.5 -58t111.5 -39l-15 -101l-91 -3q7 -35 24 -51t48.5 -20.5t97.5 -4.5zM195 694.5q-16 16.5 -16 39.5t16 39.5t39 16.5t39 -16.5t16 -39.5t-16 -39.5t-39 -16.5t-39 16.5zM107.5 566q-16.5 16 -16.5 39t16.5 39.5t40.5 16.5
q22 0 38.5 -16.5t16.5 -39.5q0 -22 -16.5 -38.5t-38.5 -16.5q-24 0 -40.5 16zM281.5 566.5q-16.5 16.5 -16.5 38.5q0 23 16.5 39.5t38.5 16.5q24 0 40.5 -16.5t16.5 -39.5t-16.5 -39t-40.5 -16q-22 0 -38.5 16.5z" />
    <glyph glyph-name="uni0685.fina" unicode="&#x685;" horiz-adv-x="679" 
d="M271 142.5q-70 -39.5 -101 -92.5t-31 -107q0 -93 67.5 -140t192.5 -47q61 0 117 12.5t99 34.5l44 -107q-46 -29 -115.5 -46.5t-155.5 -17.5q-112 0 -189.5 37t-116 103.5t-38.5 152.5q0 142 99 238.5t291 124.5q-19 7 -38.5 17.5t-27.5 14.5q-38 21 -67 31t-72 10
q-69 0 -133 -37l-53 101q41 26 90 40t99 14q45 0 82 -12t65 -29.5t69 -47.5q50 -37 88.5 -58t87.5 -28l-12 -103l-67 -3q8 -33 23 -48.5t42.5 -21t78.5 -5.5l10 -67l-20 -56q-99 0 -159 48.5t-69 144.5q-110 -11 -180 -50.5zM195 694.5q-16 16.5 -16 39.5t16 39.5t39 16.5
t39 -16.5t16 -39.5t-16 -39.5t-39 -16.5t-39 16.5zM107.5 566q-16.5 16 -16.5 39t16.5 39.5t40.5 16.5q22 0 38.5 -16.5t16.5 -39.5q0 -22 -16.5 -38.5t-38.5 -16.5q-24 0 -40.5 16zM281.5 566.5q-16.5 16.5 -16.5 38.5q0 23 16.5 39.5t38.5 16.5q24 0 40.5 -16.5
t16.5 -39.5t-16.5 -39t-40.5 -16q-22 0 -38.5 16.5z" />
    <glyph glyph-name="uniFEA6" unicode="&#x62e;" horiz-adv-x="679" arabic-form="final" 
d="M271 142.5q-70 -39.5 -101 -92.5t-31 -107q0 -93 67.5 -140t192.5 -47q61 0 117 12.5t99 34.5l44 -107q-46 -29 -115.5 -46.5t-155.5 -17.5q-112 0 -189.5 37t-116 103.5t-38.5 152.5q0 142 99 238.5t291 124.5q-19 7 -38.5 17.5t-27.5 14.5q-38 21 -67 31t-72 10
q-69 0 -133 -37l-53 101q41 26 90 40t99 14q45 0 82 -12t65 -29.5t69 -47.5q50 -37 88.5 -58t87.5 -28l-12 -103l-67 -3q8 -33 23 -48.5t42.5 -21t78.5 -5.5l10 -67l-20 -56q-99 0 -159 48.5t-69 144.5q-110 -11 -180 -50.5zM188 565q-18 18 -18 44t18 44t44 18t44 -18
t18 -44t-18 -44t-44 -18t-44 18z" />
    <glyph glyph-name="uniFEA8" unicode="&#x62e;" horiz-adv-x="727" arabic-form="medial" 
d="M747 56l-20 -56q-115 0 -178 45.5t-75 138.5q-42 -12 -81.5 -31t-101.5 -53q-89 -50 -153.5 -75t-137.5 -25l-20 57l30 66q72 0 129 18.5t138 57.5q62 30 110 49t105 30q-45 14 -99 42q-46 22 -76.5 31.5t-77.5 9.5q-61 0 -125 -37l-56 103q42 24 89.5 38t86.5 14
q57 0 98 -10.5t69.5 -26t66.5 -42.5q50 -35 93.5 -58t111.5 -39l-15 -101l-91 -3q7 -35 24 -51t48.5 -20.5t97.5 -4.5zM188 565q-18 18 -18 44t18 44t44 18t44 -18t18 -44t-18 -44t-44 -18t-44 18z" />
    <glyph glyph-name="uniFEA7" unicode="&#x62e;" horiz-adv-x="709" arabic-form="initial" 
d="M341 466q43 -13 70.5 -33t65.5 -54q48 -44 89 -71t107 -44l-15 -101l-101 -7q-71 -5 -129.5 -24t-142.5 -56q-88 -38 -149 -57t-136 -19l-20 57l30 66q66 0 121 15t141 47q63 25 111 40.5t102 23.5q-38 19 -84 54q-28 21 -47 32t-48 18.5t-70 7.5q-62 0 -126 -37l-54 103
q42 25 90 38.5t91 13.5q61 0 104 -13zM191 565q-18 18 -18 44t18 44t44 18t44 -18t18 -44t-18 -44t-44 -18t-44 18z" />
    <glyph glyph-name="uniFEAA" unicode="&#x62f;" horiz-adv-x="532" arabic-form="final" 
d="M552 58l-20 -58q-46 0 -86 22.5t-63 59.5q-53 -96 -203 -96q-85 0 -157 21l34 120q70 -17 132 -17q49 0 85.5 12.5t68.5 38.5l-150 320l114 52l113 -296q18 -47 32.5 -70.5t35 -33.5t54.5 -10z" />
    <glyph glyph-name="uniFEAC" unicode="&#x630;" horiz-adv-x="532" arabic-form="final" 
d="M552 58l-20 -58q-46 0 -86 22.5t-63 59.5q-53 -96 -203 -96q-85 0 -157 21l34 120q70 -17 132 -17q49 0 85.5 12.5t68.5 38.5l-150 320l114 52l113 -296q18 -47 32.5 -70.5t35 -33.5t54.5 -10zM172 613q-18 18 -18 44t18 44t44 18t44 -18t18 -44t-18 -44t-44 -18t-44 18z
" />
    <glyph glyph-name="uniFC5B" unicode="&#xfc5b;" horiz-adv-x="478" arabic-form="isolated" 
d="M90.5 -10q-41.5 6 -67.5 15l34 121q64 -18 130 -18q55 0 103.5 18t48.5 55q0 98 -193 277l95 79q75 -74 135 -170t60 -195q0 -74 -44 -116t-102 -57t-110 -15q-48 0 -89.5 6zM126 611q-18 18 -18 44t18 44t44 18t44 -18t18 -44t-18 -44t-44 -18t-44 18zM204 970v-186h-68
v178z" />
    <glyph glyph-name="uniFB89" unicode="&#x688;" horiz-adv-x="532" arabic-form="final" 
d="M552 58l-20 -58q-46 0 -86 22.5t-63 59.5q-53 -96 -203 -96q-85 0 -157 21l34 120q70 -17 132 -17q49 0 85.5 12.5t68.5 38.5l-150 320l114 52l113 -296q18 -47 32.5 -70.5t35 -33.5t54.5 -10zM322.5 751q21.5 -26 21.5 -65q0 -33 -24.5 -61t-76.5 -28h-155l7 59h32l2 4
v151h58v-71q20 20 38 28.5t38 8.5q38 0 59.5 -26zM276.5 663.5q12.5 7.5 12.5 24.5q0 29 -32 29q-22 0 -44.5 -17t-43.5 -44h64q31 0 43.5 7.5z" />
    <glyph glyph-name="uniFB85" unicode="&#x68c;" horiz-adv-x="532" arabic-form="final" 
d="M552 58l-20 -58q-46 0 -86 22.5t-63 59.5q-53 -96 -203 -96q-85 0 -157 21l34 120q70 -17 132 -17q49 0 85.5 12.5t68.5 38.5l-150 320l114 52l113 -296q18 -47 32.5 -70.5t35 -33.5t54.5 -10zM97 629q-17 17 -17 41t17 41t40 17q24 0 41 -17t17 -41t-17 -41t-41 -17
q-23 0 -40 17zM257 629q-17 17 -17 41t17 41t41 17q23 0 40.5 -17t17.5 -41t-17.5 -41t-40.5 -17q-24 0 -41 17z" />
    <glyph glyph-name="uniFB83" unicode="&#x68d;" horiz-adv-x="532" arabic-form="final" 
d="M552 58l-20 -58q-46 0 -86 22.5t-63 59.5q-53 -96 -203 -96q-85 0 -157 21l34 120q70 -17 132 -17q49 0 85.5 12.5t68.5 38.5l-150 320l114 52l113 -296q18 -47 32.5 -70.5t35 -33.5t54.5 -10zM85 -184q-17 17 -17 41t17 41t40 17q24 0 41 -17t17 -41t-17 -41t-41 -17
q-23 0 -40 17zM245 -184q-17 17 -17 41t17 41t41 17q23 0 40.5 -17t17.5 -41t-17.5 -41t-40.5 -17q-24 0 -41 17z" />
    <glyph glyph-name="uni0689.fina" unicode="&#x689;" horiz-adv-x="532" 
d="M552 58l-20 -58q-46 0 -86 22.5t-63 59.5q-35 -62 -107 -83q13 -23 13 -48q0 -38 -26 -63.5t-66 -25.5q-39 0 -65.5 25.5t-26.5 63.5q0 20 8 39q-48 5 -90 17l34 120q70 -17 132 -17q49 0 85.5 12.5t68.5 38.5l-150 320l114 52l113 -296q18 -47 32.5 -70.5t35 -33.5
t54.5 -10zM225 -73.5q10 10.5 10 24.5q0 16 -10.5 25.5t-27.5 9.5t-27 -9.5t-10 -25.5q0 -14 10 -24.5t27 -10.5q18 0 28 10.5z" />
    <glyph glyph-name="uni068A.fina" unicode="&#x68a;" horiz-adv-x="532" 
d="M552 58l-20 -58q-46 0 -86 22.5t-63 59.5q-53 -96 -203 -96q-85 0 -157 21l34 120q70 -17 132 -17q49 0 85.5 12.5t68.5 38.5l-150 320l114 52l113 -296q18 -47 32.5 -70.5t35 -33.5t54.5 -10zM162 -196q-18 18 -18 44t18 44t44 18t44 -18t18 -44t-18 -44t-44 -18t-44 18
z" />
    <glyph glyph-name="uni068B.fina" unicode="&#x68b;" horiz-adv-x="532" 
d="M552 58l-20 -58q-46 0 -86 22.5t-63 59.5q-53 -96 -203 -96q-85 0 -157 21l34 120q70 -17 132 -17q49 0 85.5 12.5t68.5 38.5l-150 320l114 52l113 -296q18 -47 32.5 -70.5t35 -33.5t54.5 -10zM162 -196q-18 18 -18 44t18 44t44 18t44 -18t18 -44t-18 -44t-44 -18t-44 18
zM322.5 751q21.5 -26 21.5 -65q0 -33 -24.5 -61t-76.5 -28h-155l7 59h32l2 4v151h58v-71q20 20 38 28.5t38 8.5q38 0 59.5 -26zM276.5 663.5q12.5 7.5 12.5 24.5q0 29 -32 29q-22 0 -44.5 -17t-43.5 -44h64q31 0 43.5 7.5z" />
    <glyph glyph-name="uniFB87" unicode="&#x68e;" horiz-adv-x="532" arabic-form="final" 
d="M552 58l-20 -58q-46 0 -86 22.5t-63 59.5q-53 -96 -203 -96q-85 0 -157 21l34 120q70 -17 132 -17q49 0 85.5 12.5t68.5 38.5l-150 320l114 52l113 -296q18 -47 32.5 -70.5t35 -33.5t54.5 -10zM179 742.5q-16 16.5 -16 39.5t16 39.5t39 16.5t39 -16.5t16 -39.5t-16 -39.5
t-39 -16.5t-39 16.5zM91.5 614q-16.5 16 -16.5 39t16.5 39.5t40.5 16.5q22 0 38.5 -16.5t16.5 -39.5q0 -22 -16.5 -38.5t-38.5 -16.5q-24 0 -40.5 16zM265.5 614.5q-16.5 16.5 -16.5 38.5q0 23 16.5 39.5t38.5 16.5q24 0 40.5 -16.5t16.5 -39.5t-16.5 -39t-40.5 -16
q-22 0 -38.5 16.5z" />
    <glyph glyph-name="uni068F.fina" unicode="&#x68f;" horiz-adv-x="532" 
d="M552 58l-20 -58q-46 0 -86 22.5t-63 59.5q-53 -96 -203 -96q-85 0 -157 21l34 120q70 -17 132 -17q49 0 85.5 12.5t68.5 38.5l-150 320l114 52l113 -296q18 -47 32.5 -70.5t35 -33.5t54.5 -10zM170.5 809.5q16.5 -16.5 16.5 -39.5t-16.5 -39.5t-38.5 -16.5
q-24 0 -40.5 16.5t-16.5 39.5t16.5 39.5t40.5 16.5q22 0 38.5 -16.5zM344.5 809.5q16.5 -16.5 16.5 -39.5t-16.5 -39.5t-40.5 -16.5q-22 0 -38.5 16.5t-16.5 39.5t16.5 39.5t38.5 16.5q24 0 40.5 -16.5zM257 680.5q16 -16.5 16 -39.5t-16 -39.5t-39 -16.5t-39 16.5t-16 39.5
t16 39.5t39 16.5t39 -16.5z" />
    <glyph glyph-name="uni0690.fina" unicode="&#x690;" horiz-adv-x="532" 
d="M552 58l-20 -58q-46 0 -86 22.5t-63 59.5q-53 -96 -203 -96q-85 0 -157 21l34 120q70 -17 132 -17q49 0 85.5 12.5t68.5 38.5l-150 320l114 52l113 -296q18 -47 32.5 -70.5t35 -33.5t54.5 -10zM105.5 738q-16.5 16 -16.5 37q0 24 16 40t39 16t38.5 -16t15.5 -40
q0 -21 -16 -37t-38 -16t-38.5 16zM255 738q-16 16 -16 37q0 24 15.5 40t38.5 16t39 -16t16 -40q0 -21 -16 -37t-39 -16q-22 0 -38 16zM105 595q-16 16 -16 39q0 22 16 38t39 16t38.5 -15.5t15.5 -38.5t-15.5 -39t-38.5 -16t-39 16zM254.5 595q-15.5 16 -15.5 39t16 38.5
t38 15.5q23 0 39 -15.5t16 -38.5t-16 -39t-39 -16t-38.5 16z" />
    <glyph glyph-name="uni06EE.fina" unicode="&#x6ee;" horiz-adv-x="532" 
d="M552 58l-20 -58q-46 0 -86 22.5t-63 59.5q-53 -96 -203 -96q-85 0 -157 21l34 120q70 -17 132 -17q49 0 85.5 12.5t68.5 38.5l-150 320l114 52l113 -296q18 -47 32.5 -70.5t35 -33.5t54.5 -10zM109 619l78 142h60l80 -142l-58 -24l-51 84l-51 -84z" />
    <glyph glyph-name="uniFEAE" unicode="&#x631;" horiz-adv-x="415" arabic-form="final" 
d="M435 57l-20 -57q-38 0 -61.5 9.5t-38.5 30.5q-11 -110 -87 -182t-216 -112l-45 118q138 39 201 98t63 128q0 42 -21.5 101.5t-60.5 137.5l118 39q16 -43 39 -119q20 -72 45.5 -99t73.5 -27z" />
    <glyph glyph-name="uniFEB0" unicode="&#x632;" horiz-adv-x="415" arabic-form="final" 
d="M435 57l-20 -57q-38 0 -61.5 9.5t-38.5 30.5q-11 -110 -87 -182t-216 -112l-45 118q138 39 201 98t63 128q0 42 -21.5 101.5t-60.5 137.5l118 39q16 -43 39 -119q20 -72 45.5 -99t73.5 -27zM135 472q-18 18 -18 44t18 44t44 18t44 -18t18 -44t-18 -44t-44 -18t-44 18z
" />
    <glyph glyph-name="uniFB8D" unicode="&#x691;" horiz-adv-x="415" arabic-form="final" 
d="M435 57l-20 -57q-38 0 -61.5 9.5t-38.5 30.5q-11 -110 -87 -182t-216 -112l-45 118q138 39 201 98t63 128q0 42 -21.5 101.5t-60.5 137.5l118 39q16 -43 39 -119q20 -72 45.5 -99t73.5 -27zM285.5 610q21.5 -26 21.5 -65q0 -33 -24.5 -61t-76.5 -28h-155l7 59h32l2 4v151
h58v-71q20 20 38 28.5t38 8.5q38 0 59.5 -26zM239.5 522.5q12.5 7.5 12.5 24.5q0 29 -32 29q-22 0 -44.5 -17t-43.5 -44h64q31 0 43.5 7.5z" />
    <glyph glyph-name="uni0692.fina" unicode="&#x692;" horiz-adv-x="415" 
d="M435 57l-20 -57q-38 0 -61.5 9.5t-38.5 30.5q-11 -110 -87 -182t-216 -112l-45 118q138 39 201 98t63 128q0 42 -21.5 101.5t-60.5 137.5l118 39q16 -43 39 -119q20 -72 45.5 -99t73.5 -27zM181 509l51 85l58 -24l-80 -143h-60l-78 143l58 24z" />
    <glyph glyph-name="uni0693.fina" unicode="&#x693;" horiz-adv-x="415" 
d="M435 57l-20 -57q-38 0 -61.5 9.5t-38.5 30.5q-10 -100 -75 -169q33 -6 54 -30.5t21 -58.5q0 -38 -26 -63.5t-65 -25.5t-65.5 25.5t-26.5 63.5q0 7 1 10q-52 -26 -121 -46l-45 118q138 39 201 98t63 128q0 42 -21.5 101.5t-60.5 137.5l118 39q16 -43 39 -119
q20 -72 45.5 -99t73.5 -27zM251 -192.5q-10 9.5 -27 9.5t-27.5 -9.5t-10.5 -25.5q0 -14 10.5 -24.5t27.5 -10.5t27 10.5t10 24.5q0 16 -10 25.5z" />
    <glyph glyph-name="uni0694.fina" unicode="&#x694;" horiz-adv-x="415" 
d="M435 57l-20 -57q-38 0 -61.5 9.5t-38.5 30.5q-11 -110 -87 -182t-216 -112l-45 118q138 39 201 98t63 128q0 42 -21.5 101.5t-60.5 137.5l118 39q16 -43 39 -119q20 -72 45.5 -99t73.5 -27zM183 -374q-18 18 -18 44t18 44t44 18t44 -18t18 -44t-18 -44t-44 -18t-44 18z
" />
    <glyph glyph-name="uni0695.fina" unicode="&#x695;" horiz-adv-x="415" 
d="M435 57l-20 -57q-38 0 -61.5 9.5t-38.5 30.5q-11 -110 -87 -182t-216 -112l-45 118q138 39 201 98t63 128q0 42 -21.5 101.5t-60.5 137.5l118 39q16 -43 39 -119q20 -72 45.5 -99t73.5 -27zM227 -312l51 85l58 -24l-80 -143h-60l-78 143l58 24z" />
    <glyph glyph-name="uni0696.fina" unicode="&#x696;" horiz-adv-x="415" 
d="M435 57l-20 -57q-38 0 -61.5 9.5t-38.5 30.5q-11 -110 -87 -182t-216 -112l-45 118q138 39 201 98t63 128q0 42 -21.5 101.5t-60.5 137.5l118 39q16 -43 39 -119q20 -72 45.5 -99t73.5 -27zM183 -374q-18 18 -18 44t18 44t44 18t44 -18t18 -44t-18 -44t-44 -18t-44 18z
M135 472q-18 18 -18 44t18 44t44 18t44 -18t18 -44t-18 -44t-44 -18t-44 18z" />
    <glyph glyph-name="uni0697.fina" unicode="&#x697;" horiz-adv-x="415" 
d="M435 57l-20 -57q-38 0 -61.5 9.5t-38.5 30.5q-11 -110 -87 -182t-216 -112l-45 118q138 39 201 98t63 128q0 42 -21.5 101.5t-60.5 137.5l118 39q16 -43 39 -119q20 -72 45.5 -99t73.5 -27zM60 488q-17 17 -17 41t17 41t40 17q24 0 41 -17t17 -41t-17 -41t-41 -17
q-23 0 -40 17zM220 488q-17 17 -17 41t17 41t41 17q23 0 40.5 -17t17.5 -41t-17.5 -41t-40.5 -17q-24 0 -41 17z" />
    <glyph glyph-name="uniFB8B" unicode="&#x698;" horiz-adv-x="415" arabic-form="final" 
d="M435 57l-20 -57q-38 0 -61.5 9.5t-38.5 30.5q-11 -110 -87 -182t-216 -112l-45 118q138 39 201 98t63 128q0 42 -21.5 101.5t-60.5 137.5l118 39q16 -43 39 -119q20 -72 45.5 -99t73.5 -27zM142 601.5q-16 16.5 -16 39.5t16 39.5t39 16.5t39 -16.5t16 -39.5t-16 -39.5
t-39 -16.5t-39 16.5zM54.5 473q-16.5 16 -16.5 39t16.5 39.5t40.5 16.5q22 0 38.5 -16.5t16.5 -39.5q0 -22 -16.5 -38.5t-38.5 -16.5q-24 0 -40.5 16zM228.5 473.5q-16.5 16.5 -16.5 38.5q0 23 16.5 39.5t38.5 16.5q24 0 40.5 -16.5t16.5 -39.5t-16.5 -39t-40.5 -16
q-22 0 -38.5 16.5z" />
    <glyph glyph-name="uni0699.fina" unicode="&#x699;" horiz-adv-x="415" 
d="M435 57l-20 -57q-38 0 -61.5 9.5t-38.5 30.5q-11 -110 -87 -182t-216 -112l-45 118q138 39 201 98t63 128q0 42 -21.5 101.5t-60.5 137.5l118 39q16 -43 39 -119q20 -72 45.5 -99t73.5 -27zM68.5 597q-16.5 16 -16.5 37q0 24 16 40t39 16t38.5 -16t15.5 -40
q0 -21 -16 -37t-38 -16t-38.5 16zM218 597q-16 16 -16 37q0 24 15.5 40t38.5 16t39 -16t16 -40q0 -21 -16 -37t-39 -16q-22 0 -38 16zM68 454q-16 16 -16 39q0 22 16 38t39 16t38.5 -15.5t15.5 -38.5t-15.5 -39t-38.5 -16t-39 16zM217.5 454q-15.5 16 -15.5 39t16 38.5
t38 15.5q23 0 39 -15.5t16 -38.5t-16 -39t-39 -16t-38.5 16z" />
    <glyph glyph-name="uniFC5C" unicode="&#xfc5c;" horiz-adv-x="371" arabic-form="isolated" 
d="M-33 -136q254 78 254 226q0 46 -18.5 100t-59.5 137l122 43q24 -62 39.5 -132.5t15.5 -139.5q0 -129 -79 -217t-227 -135zM214 623v-186h-68v178z" />
    <glyph glyph-name="uniFEB2" unicode="&#x633;" horiz-adv-x="1316" arabic-form="final" 
d="M1336 59l-20 -59q-55 0 -94.5 17.5t-59.5 47.5q-45 -65 -146 -65q-44 0 -80.5 16.5t-58.5 50.5q-48 -67 -146 -67h-1q-58 0 -96 32q-4 -111 -43 -175t-108 -90t-171 -26h-1q-137 0 -203 66.5t-66 187.5q0 104 51 202l80 -24q-27 -73 -27 -158q0 -71 42 -111.5t134 -40.5
q76 0 121.5 18.5t66.5 58.5t21 108q0 58 -15.5 113t-48.5 126l115 46q7 -26 36 -106q21 -63 48.5 -83.5t74.5 -20.5q38 0 59 25t21 77v113h103v-113q0 -55 22 -78.5t67 -23.5q80 0 80 81v172h104v-164q0 -52 29 -70.5t100 -18.5z" />
    <glyph glyph-name="uniFEB4" unicode="&#x633;" horiz-adv-x="896" arabic-form="medial" 
d="M916 59l-20 -59q-55 0 -94.5 17.5t-59.5 47.5q-45 -65 -146 -65q-44 0 -80.5 16.5t-58.5 50.5q-47 -67 -138 -67q-42 0 -79 16.5t-58 49.5q-28 -37 -73 -51.5t-109 -14.5l-20 58l31 65q60 0 89.5 17t29.5 64v134h102v-115q0 -59 23 -79.5t65 -20.5q38 0 59.5 25t21.5 77
v113h103v-113q0 -55 22 -78.5t67 -23.5q80 0 80 81v165h104v-157q0 -52 29 -70.5t100 -18.5z" />
    <glyph glyph-name="uniFEB3" unicode="&#x633;" horiz-adv-x="828" arabic-form="initial" 
d="M766 306.5q10 -56.5 10 -101.5q0 -105 -48 -155t-127 -50q-44 0 -80.5 16.5t-58.5 50.5q-47 -67 -138 -67q-43 0 -80 16.5t-58 49.5q-28 -37 -73.5 -51.5t-112.5 -14.5l-20 58l30 65q64 0 94.5 17t30.5 64v134h102v-115q0 -59 22.5 -79.5t65.5 -20.5q38 0 59.5 25
t21.5 77v113h103v-113q0 -55 22 -78.5t67 -23.5q38 0 55.5 20t17.5 63q0 73 -40 183l103 33q22 -59 32 -115.5z" />
    <glyph glyph-name="uni069A.init" unicode="&#x69a;" horiz-adv-x="828" 
d="M766 306.5q10 -56.5 10 -101.5q0 -105 -48 -155t-127 -50q-44 0 -80.5 16.5t-58.5 50.5q-47 -67 -138 -67q-43 0 -80 16.5t-58 49.5q-28 -37 -73.5 -51.5t-112.5 -14.5l-20 58l30 65q64 0 94.5 17t30.5 64v134h102v-115q0 -59 22.5 -79.5t65.5 -20.5q38 0 59.5 25
t21.5 77v113h103v-113q0 -55 22 -78.5t67 -23.5q38 0 55.5 20t17.5 63q0 73 -40 183l103 33q22 -59 32 -115.5zM421 -196q-18 18 -18 44t18 44t44 18t44 -18t18 -44t-18 -44t-44 -18t-44 18zM401 433q-18 18 -18 44t18 44t44 18t44 -18t18 -44t-18 -44t-44 -18t-44 18z" />
    <glyph glyph-name="uni069A.medi" unicode="&#x69a;" horiz-adv-x="896" 
d="M916 59l-20 -59q-55 0 -94.5 17.5t-59.5 47.5q-45 -65 -146 -65q-44 0 -80.5 16.5t-58.5 50.5q-47 -67 -138 -67q-42 0 -79 16.5t-58 49.5q-28 -37 -73 -51.5t-109 -14.5l-20 58l31 65q60 0 89.5 17t29.5 64v134h102v-115q0 -59 23 -79.5t65 -20.5q38 0 59.5 25t21.5 77
v113h103v-113q0 -55 22 -78.5t67 -23.5q80 0 80 81v165h104v-157q0 -52 29 -70.5t100 -18.5zM410 -196q-18 18 -18 44t18 44t44 18t44 -18t18 -44t-18 -44t-44 -18t-44 18zM406 433q-18 18 -18 44t18 44t44 18t44 -18t18 -44t-18 -44t-44 -18t-44 18z" />
    <glyph glyph-name="uni069A.fina" unicode="&#x69a;" horiz-adv-x="1316" 
d="M1336 59l-20 -59q-55 0 -94.5 17.5t-59.5 47.5q-45 -65 -146 -65q-44 0 -80.5 16.5t-58.5 50.5q-48 -67 -146 -67h-1q-58 0 -96 32q-4 -111 -43 -175t-108 -90t-171 -26h-1q-137 0 -203 66.5t-66 187.5q0 104 51 202l80 -24q-27 -73 -27 -158q0 -71 42 -111.5t134 -40.5
q76 0 121.5 18.5t66.5 58.5t21 108q0 58 -15.5 113t-48.5 126l115 46q7 -26 36 -106q21 -63 48.5 -83.5t74.5 -20.5q38 0 59 25t21 77v113h103v-113q0 -55 22 -78.5t67 -23.5q80 0 80 81v172h104v-164q0 -52 29 -70.5t100 -18.5zM848 -196q-18 18 -18 44t18 44t44 18t44 -18
t18 -44t-18 -44t-44 -18t-44 18zM826 433q-18 18 -18 44t18 44t44 18t44 -18t18 -44t-18 -44t-44 -18t-44 18z" />
    <glyph glyph-name="uni069B.init" unicode="&#x69b;" horiz-adv-x="828" 
d="M766 306.5q10 -56.5 10 -101.5q0 -105 -48 -155t-127 -50q-44 0 -80.5 16.5t-58.5 50.5q-47 -67 -138 -67q-43 0 -80 16.5t-58 49.5q-28 -37 -73.5 -51.5t-112.5 -14.5l-20 58l30 65q64 0 94.5 17t30.5 64v134h102v-115q0 -59 22.5 -79.5t65.5 -20.5q38 0 59.5 25
t21.5 77v113h103v-113q0 -55 22 -78.5t67 -23.5q38 0 55.5 20t17.5 63q0 73 -40 183l103 33q22 -59 32 -115.5zM417.5 -106.5q16.5 -16.5 16.5 -38.5q0 -24 -16.5 -40.5t-38.5 -16.5q-24 0 -40.5 16.5t-16.5 40.5q0 23 16.5 39t40.5 16q22 0 38.5 -16.5zM591.5 -106
q16.5 -16 16.5 -39q0 -24 -16.5 -40.5t-40.5 -16.5q-22 0 -38.5 16.5t-16.5 40.5q0 22 16.5 38.5t38.5 16.5q24 0 40.5 -16zM504 -234.5q16 -16.5 16 -39.5t-16 -39.5t-39 -16.5t-39 16.5t-16 39.5t16 39.5t39 16.5t39 -16.5z" />
    <glyph glyph-name="uni069B.medi" unicode="&#x69b;" horiz-adv-x="896" 
d="M916 59l-20 -59q-55 0 -94.5 17.5t-59.5 47.5q-45 -65 -146 -65q-44 0 -80.5 16.5t-58.5 50.5q-47 -67 -138 -67q-42 0 -79 16.5t-58 49.5q-28 -37 -73 -51.5t-109 -14.5l-20 58l31 65q60 0 89.5 17t29.5 64v134h102v-115q0 -59 23 -79.5t65 -20.5q38 0 59.5 25t21.5 77
v113h103v-113q0 -55 22 -78.5t67 -23.5q80 0 80 81v165h104v-157q0 -52 29 -70.5t100 -18.5zM406.5 -106.5q16.5 -16.5 16.5 -38.5q0 -24 -16.5 -40.5t-38.5 -16.5q-24 0 -40.5 16.5t-16.5 40.5q0 23 16.5 39t40.5 16q22 0 38.5 -16.5zM580.5 -106q16.5 -16 16.5 -39
q0 -24 -16.5 -40.5t-40.5 -16.5q-22 0 -38.5 16.5t-16.5 40.5q0 22 16.5 38.5t38.5 16.5q24 0 40.5 -16zM493 -234.5q16 -16.5 16 -39.5t-16 -39.5t-39 -16.5t-39 16.5t-16 39.5t16 39.5t39 16.5t39 -16.5z" />
    <glyph glyph-name="uni069B.fina" unicode="&#x69b;" horiz-adv-x="1316" 
d="M1336 59l-20 -59q-55 0 -94.5 17.5t-59.5 47.5q-45 -65 -146 -65q-44 0 -80.5 16.5t-58.5 50.5q-48 -67 -146 -67h-1q-58 0 -96 32q-4 -111 -43 -175t-108 -90t-171 -26h-1q-137 0 -203 66.5t-66 187.5q0 104 51 202l80 -24q-27 -73 -27 -158q0 -71 42 -111.5t134 -40.5
q76 0 121.5 18.5t66.5 58.5t21 108q0 58 -15.5 113t-48.5 126l115 46q7 -26 36 -106q21 -63 48.5 -83.5t74.5 -20.5q38 0 59 25t21 77v113h103v-113q0 -55 22 -78.5t67 -23.5q80 0 80 81v172h104v-164q0 -52 29 -70.5t100 -18.5zM844.5 -106.5q16.5 -16.5 16.5 -38.5
q0 -24 -16.5 -40.5t-38.5 -16.5q-24 0 -40.5 16.5t-16.5 40.5q0 23 16.5 39t40.5 16q22 0 38.5 -16.5zM1018.5 -106q16.5 -16 16.5 -39q0 -24 -16.5 -40.5t-40.5 -16.5q-22 0 -38.5 16.5t-16.5 40.5q0 22 16.5 38.5t38.5 16.5q24 0 40.5 -16zM931 -234.5q16 -16.5 16 -39.5
t-16 -39.5t-39 -16.5t-39 16.5t-16 39.5t16 39.5t39 16.5t39 -16.5z" />
    <glyph glyph-name="uniFEB6" unicode="&#x634;" horiz-adv-x="1316" arabic-form="final" 
d="M1336 59l-20 -59q-55 0 -94.5 17.5t-59.5 47.5q-45 -65 -146 -65q-44 0 -80.5 16.5t-58.5 50.5q-48 -67 -146 -67h-1q-58 0 -96 32q-4 -111 -43 -175t-108 -90t-171 -26h-1q-137 0 -203 66.5t-66 187.5q0 104 51 202l80 -24q-27 -73 -27 -158q0 -71 42 -111.5t134 -40.5
q76 0 121.5 18.5t66.5 58.5t21 108q0 58 -15.5 113t-48.5 126l115 46q7 -26 36 -106q21 -63 48.5 -83.5t74.5 -20.5q38 0 59 25t21 77v113h103v-113q0 -55 22 -78.5t67 -23.5q80 0 80 81v172h104v-164q0 -52 29 -70.5t100 -18.5zM833 562.5q-16 16.5 -16 39.5t16 39.5
t39 16.5t39 -16.5t16 -39.5t-16 -39.5t-39 -16.5t-39 16.5zM745.5 434q-16.5 16 -16.5 39t16.5 39.5t40.5 16.5q22 0 38.5 -16.5t16.5 -39.5q0 -22 -16.5 -38.5t-38.5 -16.5q-24 0 -40.5 16zM919.5 434.5q-16.5 16.5 -16.5 38.5q0 23 16.5 39.5t38.5 16.5q24 0 40.5 -16.5
t16.5 -39.5t-16.5 -39t-40.5 -16q-22 0 -38.5 16.5z" />
    <glyph glyph-name="uniFEB8" unicode="&#x634;" horiz-adv-x="896" arabic-form="medial" 
d="M916 59l-20 -59q-55 0 -94.5 17.5t-59.5 47.5q-45 -65 -146 -65q-44 0 -80.5 16.5t-58.5 50.5q-47 -67 -138 -67q-42 0 -79 16.5t-58 49.5q-28 -37 -73 -51.5t-109 -14.5l-20 58l31 65q60 0 89.5 17t29.5 64v134h102v-115q0 -59 23 -79.5t65 -20.5q38 0 59.5 25t21.5 77
v113h103v-113q0 -55 22 -78.5t67 -23.5q80 0 80 81v165h104v-157q0 -52 29 -70.5t100 -18.5zM413 562.5q-16 16.5 -16 39.5t16 39.5t39 16.5t39 -16.5t16 -39.5t-16 -39.5t-39 -16.5t-39 16.5zM325.5 434q-16.5 16 -16.5 39t16.5 39.5t40.5 16.5q22 0 38.5 -16.5t16.5 -39.5
q0 -22 -16.5 -38.5t-38.5 -16.5q-24 0 -40.5 16zM499.5 434.5q-16.5 16.5 -16.5 38.5q0 23 16.5 39.5t38.5 16.5q24 0 40.5 -16.5t16.5 -39.5t-16.5 -39t-40.5 -16q-22 0 -38.5 16.5z" />
    <glyph glyph-name="uniFEB7" unicode="&#x634;" horiz-adv-x="828" arabic-form="initial" 
d="M766 306.5q10 -56.5 10 -101.5q0 -105 -48 -155t-127 -50q-44 0 -80.5 16.5t-58.5 50.5q-47 -67 -138 -67q-43 0 -80 16.5t-58 49.5q-28 -37 -73.5 -51.5t-112.5 -14.5l-20 58l30 65q64 0 94.5 17t30.5 64v134h102v-115q0 -59 22.5 -79.5t65.5 -20.5q38 0 59.5 25
t21.5 77v113h103v-113q0 -55 22 -78.5t67 -23.5q38 0 55.5 20t17.5 63q0 73 -40 183l103 33q22 -59 32 -115.5zM408 562.5q-16 16.5 -16 39.5t16 39.5t39 16.5t39 -16.5t16 -39.5t-16 -39.5t-39 -16.5t-39 16.5zM320.5 434q-16.5 16 -16.5 39t16.5 39.5t40.5 16.5
q22 0 38.5 -16.5t16.5 -39.5q0 -22 -16.5 -38.5t-38.5 -16.5q-24 0 -40.5 16zM494.5 434.5q-16.5 16.5 -16.5 38.5q0 23 16.5 39.5t38.5 16.5q24 0 40.5 -16.5t16.5 -39.5t-16.5 -39t-40.5 -16q-22 0 -38.5 16.5z" />
    <glyph glyph-name="uni06FA.init" unicode="&#x6fa;" horiz-adv-x="828" 
d="M766 306.5q10 -56.5 10 -101.5q0 -105 -48 -155t-127 -50q-44 0 -80.5 16.5t-58.5 50.5q-47 -67 -138 -67q-43 0 -80 16.5t-58 49.5q-28 -37 -73.5 -51.5t-112.5 -14.5l-20 58l30 65q64 0 94.5 17t30.5 64v134h102v-115q0 -59 22.5 -79.5t65.5 -20.5q38 0 59.5 25
t21.5 77v113h103v-113q0 -55 22 -78.5t67 -23.5q38 0 55.5 20t17.5 63q0 73 -40 183l103 33q22 -59 32 -115.5zM408 562.5q-16 16.5 -16 39.5t16 39.5t39 16.5t39 -16.5t16 -39.5t-16 -39.5t-39 -16.5t-39 16.5zM320.5 434q-16.5 16 -16.5 39t16.5 39.5t40.5 16.5
q22 0 38.5 -16.5t16.5 -39.5q0 -22 -16.5 -38.5t-38.5 -16.5q-24 0 -40.5 16zM494.5 434.5q-16.5 16.5 -16.5 38.5q0 23 16.5 39.5t38.5 16.5q24 0 40.5 -16.5t16.5 -39.5t-16.5 -39t-40.5 -16q-22 0 -38.5 16.5zM421 -196q-18 18 -18 44t18 44t44 18t44 -18t18 -44t-18 -44
t-44 -18t-44 18z" />
    <glyph glyph-name="uni06FA.medi" unicode="&#x6fa;" horiz-adv-x="896" 
d="M916 59l-20 -59q-55 0 -94.5 17.5t-59.5 47.5q-45 -65 -146 -65q-44 0 -80.5 16.5t-58.5 50.5q-47 -67 -138 -67q-42 0 -79 16.5t-58 49.5q-28 -37 -73 -51.5t-109 -14.5l-20 58l31 65q60 0 89.5 17t29.5 64v134h102v-115q0 -59 23 -79.5t65 -20.5q38 0 59.5 25t21.5 77
v113h103v-113q0 -55 22 -78.5t67 -23.5q80 0 80 81v165h104v-157q0 -52 29 -70.5t100 -18.5zM413 562.5q-16 16.5 -16 39.5t16 39.5t39 16.5t39 -16.5t16 -39.5t-16 -39.5t-39 -16.5t-39 16.5zM325.5 434q-16.5 16 -16.5 39t16.5 39.5t40.5 16.5q22 0 38.5 -16.5t16.5 -39.5
q0 -22 -16.5 -38.5t-38.5 -16.5q-24 0 -40.5 16zM499.5 434.5q-16.5 16.5 -16.5 38.5q0 23 16.5 39.5t38.5 16.5q24 0 40.5 -16.5t16.5 -39.5t-16.5 -39t-40.5 -16q-22 0 -38.5 16.5zM410 -196q-18 18 -18 44t18 44t44 18t44 -18t18 -44t-18 -44t-44 -18t-44 18z" />
    <glyph glyph-name="uni06FA.fina" unicode="&#x6fa;" horiz-adv-x="1316" 
d="M1336 59l-20 -59q-55 0 -94.5 17.5t-59.5 47.5q-45 -65 -146 -65q-44 0 -80.5 16.5t-58.5 50.5q-48 -67 -146 -67h-1q-58 0 -96 32q-4 -111 -43 -175t-108 -90t-171 -26h-1q-137 0 -203 66.5t-66 187.5q0 104 51 202l80 -24q-27 -73 -27 -158q0 -71 42 -111.5t134 -40.5
q76 0 121.5 18.5t66.5 58.5t21 108q0 58 -15.5 113t-48.5 126l115 46q7 -26 36 -106q21 -63 48.5 -83.5t74.5 -20.5q38 0 59 25t21 77v113h103v-113q0 -55 22 -78.5t67 -23.5q80 0 80 81v172h104v-164q0 -52 29 -70.5t100 -18.5zM833 562.5q-16 16.5 -16 39.5t16 39.5
t39 16.5t39 -16.5t16 -39.5t-16 -39.5t-39 -16.5t-39 16.5zM745.5 434q-16.5 16 -16.5 39t16.5 39.5t40.5 16.5q22 0 38.5 -16.5t16.5 -39.5q0 -22 -16.5 -38.5t-38.5 -16.5q-24 0 -40.5 16zM919.5 434.5q-16.5 16.5 -16.5 38.5q0 23 16.5 39.5t38.5 16.5q24 0 40.5 -16.5
t16.5 -39.5t-16.5 -39t-40.5 -16q-22 0 -38.5 16.5zM848 -196q-18 18 -18 44t18 44t44 18t44 -18t18 -44t-18 -44t-44 -18t-44 18z" />
    <glyph glyph-name="uni069C.init" unicode="&#x69c;" horiz-adv-x="828" 
d="M766 306.5q10 -56.5 10 -101.5q0 -105 -48 -155t-127 -50q-44 0 -80.5 16.5t-58.5 50.5q-47 -67 -138 -67q-43 0 -80 16.5t-58 49.5q-28 -37 -73.5 -51.5t-112.5 -14.5l-20 58l30 65q64 0 94.5 17t30.5 64v134h102v-115q0 -59 22.5 -79.5t65.5 -20.5q38 0 59.5 25
t21.5 77v113h103v-113q0 -55 22 -78.5t67 -23.5q38 0 55.5 20t17.5 63q0 73 -40 183l103 33q22 -59 32 -115.5zM408 562.5q-16 16.5 -16 39.5t16 39.5t39 16.5t39 -16.5t16 -39.5t-16 -39.5t-39 -16.5t-39 16.5zM320.5 434q-16.5 16 -16.5 39t16.5 39.5t40.5 16.5
q22 0 38.5 -16.5t16.5 -39.5q0 -22 -16.5 -38.5t-38.5 -16.5q-24 0 -40.5 16zM494.5 434.5q-16.5 16.5 -16.5 38.5q0 23 16.5 39.5t38.5 16.5q24 0 40.5 -16.5t16.5 -39.5t-16.5 -39t-40.5 -16q-22 0 -38.5 16.5zM417.5 -106.5q16.5 -16.5 16.5 -38.5q0 -24 -16.5 -40.5
t-38.5 -16.5q-24 0 -40.5 16.5t-16.5 40.5q0 23 16.5 39t40.5 16q22 0 38.5 -16.5zM591.5 -106q16.5 -16 16.5 -39q0 -24 -16.5 -40.5t-40.5 -16.5q-22 0 -38.5 16.5t-16.5 40.5q0 22 16.5 38.5t38.5 16.5q24 0 40.5 -16zM504 -234.5q16 -16.5 16 -39.5t-16 -39.5t-39 -16.5
t-39 16.5t-16 39.5t16 39.5t39 16.5t39 -16.5z" />
    <glyph glyph-name="uni069C.medi" unicode="&#x69c;" horiz-adv-x="896" 
d="M916 59l-20 -59q-55 0 -94.5 17.5t-59.5 47.5q-45 -65 -146 -65q-44 0 -80.5 16.5t-58.5 50.5q-47 -67 -138 -67q-42 0 -79 16.5t-58 49.5q-28 -37 -73 -51.5t-109 -14.5l-20 58l31 65q60 0 89.5 17t29.5 64v134h102v-115q0 -59 23 -79.5t65 -20.5q38 0 59.5 25t21.5 77
v113h103v-113q0 -55 22 -78.5t67 -23.5q80 0 80 81v165h104v-157q0 -52 29 -70.5t100 -18.5zM413 562.5q-16 16.5 -16 39.5t16 39.5t39 16.5t39 -16.5t16 -39.5t-16 -39.5t-39 -16.5t-39 16.5zM325.5 434q-16.5 16 -16.5 39t16.5 39.5t40.5 16.5q22 0 38.5 -16.5t16.5 -39.5
q0 -22 -16.5 -38.5t-38.5 -16.5q-24 0 -40.5 16zM499.5 434.5q-16.5 16.5 -16.5 38.5q0 23 16.5 39.5t38.5 16.5q24 0 40.5 -16.5t16.5 -39.5t-16.5 -39t-40.5 -16q-22 0 -38.5 16.5zM406.5 -106.5q16.5 -16.5 16.5 -38.5q0 -24 -16.5 -40.5t-38.5 -16.5q-24 0 -40.5 16.5
t-16.5 40.5q0 23 16.5 39t40.5 16q22 0 38.5 -16.5zM580.5 -106q16.5 -16 16.5 -39q0 -24 -16.5 -40.5t-40.5 -16.5q-22 0 -38.5 16.5t-16.5 40.5q0 22 16.5 38.5t38.5 16.5q24 0 40.5 -16zM493 -234.5q16 -16.5 16 -39.5t-16 -39.5t-39 -16.5t-39 16.5t-16 39.5t16 39.5
t39 16.5t39 -16.5z" />
    <glyph glyph-name="uni069C.fina" unicode="&#x69c;" horiz-adv-x="1316" 
d="M1336 59l-20 -59q-55 0 -94.5 17.5t-59.5 47.5q-45 -65 -146 -65q-44 0 -80.5 16.5t-58.5 50.5q-48 -67 -146 -67h-1q-58 0 -96 32q-4 -111 -43 -175t-108 -90t-171 -26h-1q-137 0 -203 66.5t-66 187.5q0 104 51 202l80 -24q-27 -73 -27 -158q0 -71 42 -111.5t134 -40.5
q76 0 121.5 18.5t66.5 58.5t21 108q0 58 -15.5 113t-48.5 126l115 46q7 -26 36 -106q21 -63 48.5 -83.5t74.5 -20.5q38 0 59 25t21 77v113h103v-113q0 -55 22 -78.5t67 -23.5q80 0 80 81v172h104v-164q0 -52 29 -70.5t100 -18.5zM833 562.5q-16 16.5 -16 39.5t16 39.5
t39 16.5t39 -16.5t16 -39.5t-16 -39.5t-39 -16.5t-39 16.5zM745.5 434q-16.5 16 -16.5 39t16.5 39.5t40.5 16.5q22 0 38.5 -16.5t16.5 -39.5q0 -22 -16.5 -38.5t-38.5 -16.5q-24 0 -40.5 16zM919.5 434.5q-16.5 16.5 -16.5 38.5q0 23 16.5 39.5t38.5 16.5q24 0 40.5 -16.5
t16.5 -39.5t-16.5 -39t-40.5 -16q-22 0 -38.5 16.5zM844.5 -106.5q16.5 -16.5 16.5 -38.5q0 -24 -16.5 -40.5t-38.5 -16.5q-24 0 -40.5 16.5t-16.5 40.5q0 23 16.5 39t40.5 16q22 0 38.5 -16.5zM1018.5 -106q16.5 -16 16.5 -39q0 -24 -16.5 -40.5t-40.5 -16.5
q-22 0 -38.5 16.5t-16.5 40.5q0 22 16.5 38.5t38.5 16.5q24 0 40.5 -16zM931 -234.5q16 -16.5 16 -39.5t-16 -39.5t-39 -16.5t-39 16.5t-16 39.5t16 39.5t39 16.5t39 -16.5z" />
    <glyph glyph-name="uniFEBA" unicode="&#x635;" horiz-adv-x="1359" arabic-form="final" 
d="M1379 56l-20 -56q-40 0 -74.5 18.5t-57.5 49.5q-43 -40 -127 -54t-236 -14h-133q-59 0 -97 32q-4 -111 -43 -175t-108 -90t-171 -26h-1q-137 0 -203 66.5t-66 187.5q0 104 51 202l80 -24q-27 -73 -27 -158q0 -71 42 -111.5t134 -40.5q76 0 121.5 18.5t66.5 58.5t21 108
q0 58 -15.5 113t-48.5 126l115 46q7 -26 36 -106q16 -47 35 -69.5t45 -29.5q40 109 99 185.5t129 115.5t143 39q58 0 105.5 -26.5t76 -80.5t28.5 -133q0 -38 -6 -67q20 -22 43 -30t54 -8zM1065 131.5q65 8.5 93.5 32t28.5 71.5q0 69 -33 91t-83 22q-76 0 -145.5 -50.5
t-134.5 -174.5h83q126 0 191 8.5z" />
    <glyph glyph-name="uniFEBC" unicode="&#x635;" horiz-adv-x="956" arabic-form="medial" 
d="M976 56l-20 -56q-40 0 -74.5 18.5t-58.5 49.5q-42 -40 -126 -54t-237 -14h-133q-60 0 -98.5 15t-64.5 54q-24 -39 -62 -54t-102 -15l-20 57l31 66q49 0 70.5 9t26 27.5t4.5 61.5v176h104v-175q0 -34 5.5 -53t22 -30t49.5 -14q39 110 98.5 187.5t130 116.5t143.5 39
q58 0 106 -26.5t76.5 -80.5t28.5 -133q0 -38 -6 -68q21 -21 43 -29t53 -8zM661.5 131.5q64.5 8.5 93 32t28.5 71.5q0 69 -32.5 91t-83.5 22q-76 0 -145 -50t-135 -175h84q126 0 190.5 8.5z" />
    <glyph glyph-name="uniFEBB" unicode="&#x635;" horiz-adv-x="927" arabic-form="initial" 
d="M771 441.5q48 -26.5 76.5 -80.5t28.5 -133q0 -99 -41 -147.5t-126.5 -64.5t-248.5 -16h-133q-60 0 -98.5 15t-64.5 54q-24 -39 -62 -54t-102 -15l-20 57l31 66q49 0 70.5 9t26 27.5t4.5 61.5v176h104v-175q0 -34 5.5 -53t22 -30t49.5 -14q39 110 98.5 187.5t130 116.5
t143.5 39q58 0 106 -26.5zM661.5 131.5q64.5 8.5 93 32t28.5 71.5q0 69 -32.5 91t-83.5 22q-76 0 -145 -50t-135 -175h84q126 0 190.5 8.5z" />
    <glyph glyph-name="uni069D.init" unicode="&#x69d;" horiz-adv-x="927" 
d="M771 441.5q48 -26.5 76.5 -80.5t28.5 -133q0 -99 -41 -147.5t-126.5 -64.5t-248.5 -16h-133q-60 0 -98.5 15t-64.5 54q-24 -39 -62 -54t-102 -15l-20 57l31 66q49 0 70.5 9t26 27.5t4.5 61.5v176h104v-175q0 -34 5.5 -53t22 -30t49.5 -14q39 110 98.5 187.5t130 116.5
t143.5 39q58 0 106 -26.5zM661.5 131.5q64.5 8.5 93 32t28.5 71.5q0 69 -32.5 91t-83.5 22q-76 0 -145 -50t-135 -175h84q126 0 190.5 8.5zM42 -184q-17 17 -17 41t17 41t40 17q24 0 41 -17t17 -41t-17 -41t-41 -17q-23 0 -40 17zM202 -184q-17 17 -17 41t17 41t41 17
q23 0 40.5 -17t17.5 -41t-17.5 -41t-40.5 -17q-24 0 -41 17z" />
    <glyph glyph-name="uni069D.medi" unicode="&#x69d;" horiz-adv-x="956" 
d="M976 56l-20 -56q-40 0 -74.5 18.5t-58.5 49.5q-42 -40 -126 -54t-237 -14h-133q-60 0 -98.5 15t-64.5 54q-24 -39 -62 -54t-102 -15l-20 57l31 66q49 0 70.5 9t26 27.5t4.5 61.5v176h104v-175q0 -34 5.5 -53t22 -30t49.5 -14q39 110 98.5 187.5t130 116.5t143.5 39
q58 0 106 -26.5t76.5 -80.5t28.5 -133q0 -38 -6 -68q21 -21 43 -29t53 -8zM661.5 131.5q64.5 8.5 93 32t28.5 71.5q0 69 -32.5 91t-83.5 22q-76 0 -145 -50t-135 -175h84q126 0 190.5 8.5zM42 -184q-17 17 -17 41t17 41t40 17q24 0 41 -17t17 -41t-17 -41t-41 -17
q-23 0 -40 17zM202 -184q-17 17 -17 41t17 41t41 17q23 0 40.5 -17t17.5 -41t-17.5 -41t-40.5 -17q-24 0 -41 17z" />
    <glyph glyph-name="uni069D.fina" unicode="&#x69d;" horiz-adv-x="1359" 
d="M1379 56l-20 -56q-40 0 -74.5 18.5t-57.5 49.5q-43 -40 -127 -54t-236 -14h-133q-59 0 -97 32q-4 -111 -43 -175t-108 -90t-171 -26h-1q-137 0 -203 66.5t-66 187.5q0 104 51 202l80 -24q-27 -73 -27 -158q0 -71 42 -111.5t134 -40.5q76 0 121.5 18.5t66.5 58.5t21 108
q0 58 -15.5 113t-48.5 126l115 46q7 -26 36 -106q16 -47 35 -69.5t45 -29.5q40 109 99 185.5t129 115.5t143 39q58 0 105.5 -26.5t76 -80.5t28.5 -133q0 -38 -6 -67q20 -22 43 -30t54 -8zM1065 131.5q65 8.5 93.5 32t28.5 71.5q0 69 -33 91t-83 22q-76 0 -145.5 -50.5
t-134.5 -174.5h83q126 0 191 8.5zM199 -430q-17 17 -17 41t17 41t40 17q24 0 41 -17t17 -41t-17 -41t-41 -17q-23 0 -40 17zM359 -430q-17 17 -17 41t17 41t41 17q23 0 40.5 -17t17.5 -41t-17.5 -41t-40.5 -17q-24 0 -41 17z" />
    <glyph glyph-name="uni069E.init" unicode="&#x69e;" horiz-adv-x="927" 
d="M593.5 676.5q-16.5 16.5 -16.5 39.5q0 22 16.5 38.5t39.5 16.5q22 0 38.5 -16.5t16.5 -38.5q0 -23 -16.5 -39.5t-38.5 -16.5q-23 0 -39.5 16.5zM505.5 547q-16.5 16 -16.5 39q0 24 16.5 40.5t40.5 16.5q23 0 39.5 -16.5t16.5 -40.5q0 -22 -16.5 -38.5t-39.5 -16.5
q-24 0 -40.5 16zM679.5 626.5q16.5 16.5 39.5 16.5q24 0 40.5 -16.5t16.5 -40.5q0 -23 -16.5 -39t-40.5 -16q-23 0 -39.5 16.5t-16.5 38.5q0 24 16.5 40.5zM771 441.5q48 -26.5 76.5 -80.5t28.5 -133q0 -99 -41 -147.5t-126.5 -64.5t-248.5 -16h-133q-60 0 -98.5 15
t-64.5 54q-24 -39 -62 -54t-102 -15l-20 57l31 66q49 0 70.5 9t26 27.5t4.5 61.5v176h104v-175q0 -34 5.5 -53t22 -30t49.5 -14q39 110 98.5 187.5t130 116.5t143.5 39q58 0 106 -26.5zM661.5 131.5q64.5 8.5 93 32t28.5 71.5q0 69 -32.5 91t-83.5 22q-76 0 -145 -50
t-135 -175h84q126 0 190.5 8.5z" />
    <glyph glyph-name="uni069E.medi" unicode="&#x69e;" horiz-adv-x="956" 
d="M593.5 676.5q-16.5 16.5 -16.5 39.5q0 22 16.5 38.5t39.5 16.5q22 0 38.5 -16.5t16.5 -38.5q0 -23 -16.5 -39.5t-38.5 -16.5q-23 0 -39.5 16.5zM505.5 547q-16.5 16 -16.5 39q0 24 16.5 40.5t40.5 16.5q23 0 39.5 -16.5t16.5 -40.5q0 -22 -16.5 -38.5t-39.5 -16.5
q-24 0 -40.5 16zM679.5 626.5q16.5 16.5 39.5 16.5q24 0 40.5 -16.5t16.5 -40.5q0 -23 -16.5 -39t-40.5 -16q-23 0 -39.5 16.5t-16.5 38.5q0 24 16.5 40.5zM976 56l-20 -56q-40 0 -74.5 18.5t-58.5 49.5q-42 -40 -126 -54t-237 -14h-133q-60 0 -98.5 15t-64.5 54
q-24 -39 -62 -54t-102 -15l-20 57l31 66q49 0 70.5 9t26 27.5t4.5 61.5v176h104v-175q0 -34 5.5 -53t22 -30t49.5 -14q39 110 98.5 187.5t130 116.5t143.5 39q58 0 106 -26.5t76.5 -80.5t28.5 -133q0 -38 -6 -68q21 -21 43 -29t53 -8zM661.5 131.5q64.5 8.5 93 32t28.5 71.5
q0 69 -32.5 91t-83.5 22q-76 0 -145 -50t-135 -175h84q126 0 190.5 8.5z" />
    <glyph glyph-name="uni069E.fina" unicode="&#x69e;" horiz-adv-x="1359" 
d="M997 676.5q-16 16.5 -16 39.5t16.5 39t38.5 16q23 0 39.5 -16.5t16.5 -38.5q0 -23 -16.5 -39.5t-39.5 -16.5t-39 16.5zM909.5 547q-16.5 16 -16.5 39q0 24 16.5 40.5t40.5 16.5q23 0 39 -16.5t16 -40.5q0 -22 -16 -38.5t-39 -16.5q-24 0 -40.5 16zM1083.5 626.5
q16.5 16.5 39.5 16.5t40 -16.5t17 -40.5q0 -22 -17 -38.5t-40 -16.5t-39.5 16.5t-16.5 38.5q0 24 16.5 40.5zM1379 56l-20 -56q-40 0 -74.5 18.5t-57.5 49.5q-43 -40 -127 -54t-236 -14h-133q-59 0 -97 32q-4 -111 -43 -175t-108 -90t-171 -26h-1q-137 0 -203 66.5
t-66 187.5q0 104 51 202l80 -24q-27 -73 -27 -158q0 -71 42 -111.5t134 -40.5q76 0 121.5 18.5t66.5 58.5t21 108q0 58 -15.5 113t-48.5 126l115 46q7 -26 36 -106q16 -47 35 -69.5t45 -29.5q40 109 99 185.5t129 115.5t143 39q58 0 105.5 -26.5t76 -80.5t28.5 -133
q0 -38 -6 -67q20 -22 43 -30t54 -8zM1065 131.5q65 8.5 93.5 32t28.5 71.5q0 69 -33 91t-83 22q-76 0 -145.5 -50.5t-134.5 -174.5h83q126 0 191 8.5z" />
    <glyph glyph-name="uniFEBE" unicode="&#x636;" horiz-adv-x="1359" arabic-form="final" 
d="M990 546q-18 18 -18 45q0 26 18 44t44 18t44.5 -18t18.5 -44q0 -27 -18.5 -45t-44.5 -18t-44 18zM1379 56l-20 -56q-40 0 -74.5 18.5t-57.5 49.5q-43 -40 -127 -54t-236 -14h-133q-59 0 -97 32q-4 -111 -43 -175t-108 -90t-171 -26h-1q-137 0 -203 66.5t-66 187.5
q0 104 51 202l80 -24q-27 -73 -27 -158q0 -71 42 -111.5t134 -40.5q76 0 121.5 18.5t66.5 58.5t21 108q0 58 -15.5 113t-48.5 126l115 46q7 -26 36 -106q16 -47 35 -69.5t45 -29.5q40 109 99 185.5t129 115.5t143 39q58 0 105.5 -26.5t76 -80.5t28.5 -133q0 -38 -6 -67
q20 -22 43 -30t54 -8zM1065 131.5q65 8.5 93.5 32t28.5 71.5q0 69 -33 91t-83 22q-76 0 -145.5 -50.5t-134.5 -174.5h83q126 0 191 8.5z" />
    <glyph glyph-name="uniFEC0" unicode="&#x636;" horiz-adv-x="956" arabic-form="medial" 
d="M586 546q-18 18 -18 45q0 26 18 44t45 18q26 0 44 -18t18 -44q0 -27 -18 -45t-44 -18q-27 0 -45 18zM976 56l-20 -56q-40 0 -74.5 18.5t-58.5 49.5q-42 -40 -126 -54t-237 -14h-133q-60 0 -98.5 15t-64.5 54q-24 -39 -62 -54t-102 -15l-20 57l31 66q49 0 70.5 9t26 27.5
t4.5 61.5v176h104v-175q0 -34 5.5 -53t22 -30t49.5 -14q39 110 98.5 187.5t130 116.5t143.5 39q58 0 106 -26.5t76.5 -80.5t28.5 -133q0 -38 -6 -68q21 -21 43 -29t53 -8zM661.5 131.5q64.5 8.5 93 32t28.5 71.5q0 69 -32.5 91t-83.5 22q-76 0 -145 -50t-135 -175h84
q126 0 190.5 8.5z" />
    <glyph glyph-name="uniFEBF" unicode="&#x636;" horiz-adv-x="927" arabic-form="initial" 
d="M586 546q-18 18 -18 45q0 26 18 44t45 18q26 0 44 -18t18 -44q0 -27 -18 -45t-44 -18q-27 0 -45 18zM771 441.5q48 -26.5 76.5 -80.5t28.5 -133q0 -99 -41 -147.5t-126.5 -64.5t-248.5 -16h-133q-60 0 -98.5 15t-64.5 54q-24 -39 -62 -54t-102 -15l-20 57l31 66
q49 0 70.5 9t26 27.5t4.5 61.5v176h104v-175q0 -34 5.5 -53t22 -30t49.5 -14q39 110 98.5 187.5t130 116.5t143.5 39q58 0 106 -26.5zM661.5 131.5q64.5 8.5 93 32t28.5 71.5q0 69 -32.5 91t-83.5 22q-76 0 -145 -50t-135 -175h84q126 0 190.5 8.5z" />
    <glyph glyph-name="uni06FB.init" unicode="&#x6fb;" horiz-adv-x="927" 
d="M586 546q-18 18 -18 45q0 26 18 44t45 18q26 0 44 -18t18 -44q0 -27 -18 -45t-44 -18q-27 0 -45 18zM771 441.5q48 -26.5 76.5 -80.5t28.5 -133q0 -99 -41 -147.5t-126.5 -64.5t-248.5 -16h-133q-60 0 -98.5 15t-64.5 54q-24 -39 -62 -54t-102 -15l-20 57l31 66
q49 0 70.5 9t26 27.5t4.5 61.5v176h104v-175q0 -34 5.5 -53t22 -30t49.5 -14q39 110 98.5 187.5t130 116.5t143.5 39q58 0 106 -26.5zM661.5 131.5q64.5 8.5 93 32t28.5 71.5q0 69 -32.5 91t-83.5 22q-76 0 -145 -50t-135 -175h84q126 0 190.5 8.5zM543 -108q18 -18 18 -44
t-18 -44t-44 -18t-44.5 18t-18.5 44t18.5 44t44.5 18t44 -18z" />
    <glyph glyph-name="uni06FB.medi" unicode="&#x6fb;" horiz-adv-x="956" 
d="M586 546q-18 18 -18 45q0 26 18 44t45 18q26 0 44 -18t18 -44q0 -27 -18 -45t-44 -18q-27 0 -45 18zM976 56l-20 -56q-40 0 -74.5 18.5t-58.5 49.5q-42 -40 -126 -54t-237 -14h-133q-60 0 -98.5 15t-64.5 54q-24 -39 -62 -54t-102 -15l-20 57l31 66q49 0 70.5 9t26 27.5
t4.5 61.5v176h104v-175q0 -34 5.5 -53t22 -30t49.5 -14q39 110 98.5 187.5t130 116.5t143.5 39q58 0 106 -26.5t76.5 -80.5t28.5 -133q0 -38 -6 -68q21 -21 43 -29t53 -8zM661.5 131.5q64.5 8.5 93 32t28.5 71.5q0 69 -32.5 91t-83.5 22q-76 0 -145 -50t-135 -175h84
q126 0 190.5 8.5zM543 -108q18 -18 18 -44t-18 -44t-44 -18t-44.5 18t-18.5 44t18.5 44t44.5 18t44 -18z" />
    <glyph glyph-name="uni06FB.fina" unicode="&#x6fb;" horiz-adv-x="1359" 
d="M990 546q-18 18 -18 45q0 26 18 44t44 18t44.5 -18t18.5 -44q0 -27 -18.5 -45t-44.5 -18t-44 18zM1379 56l-20 -56q-40 0 -74.5 18.5t-57.5 49.5q-43 -40 -127 -54t-236 -14h-133q-59 0 -97 32q-4 -111 -43 -175t-108 -90t-171 -26h-1q-137 0 -203 66.5t-66 187.5
q0 104 51 202l80 -24q-27 -73 -27 -158q0 -71 42 -111.5t134 -40.5q76 0 121.5 18.5t66.5 58.5t21 108q0 58 -15.5 113t-48.5 126l115 46q7 -26 36 -106q16 -47 35 -69.5t45 -29.5q40 109 99 185.5t129 115.5t143 39q58 0 105.5 -26.5t76 -80.5t28.5 -133q0 -38 -6 -67
q20 -22 43 -30t54 -8zM1065 131.5q65 8.5 93.5 32t28.5 71.5q0 69 -33 91t-83 22q-76 0 -145.5 -50.5t-134.5 -174.5h83q126 0 191 8.5zM947 -108q18 -18 18 -44t-18 -44t-44 -18q-27 0 -45 18t-18 44t18 44t45 18q26 0 44 -18z" />
    <glyph glyph-name="uniFEC2" unicode="&#x637;" horiz-adv-x="846" arabic-form="final" 
d="M866 56l-20 -56q-42 0 -79 21t-60 55q-40 -45 -125.5 -60.5t-244.5 -15.5h-310l23 123h105l24 53v584l104 13v-439q59 66 125 100t134 34q58 0 105.5 -26.5t76 -80.5t28.5 -133q0 -29 -3 -55q22 -29 47 -39.5t60 -10.5zM538.5 131.5q64.5 8.5 93 32t28.5 71.5
q0 69 -32.5 91t-83.5 22q-76 0 -146 -50t-137 -175h87q126 0 190.5 8.5z" />
    <glyph glyph-name="uniFEC4" unicode="&#x637;" horiz-adv-x="818" arabic-form="medial" 
d="M838 56l-20 -56q-42 0 -78 20.5t-60 54.5q-42 -45 -126.5 -60t-244.5 -15h-310v2l-19 55l30 66h117l24 52v585l104 13v-440q59 66 125 100.5t134 34.5q58 0 106 -26.5t76.5 -80.5t28.5 -133q0 -33 -4 -56q23 -28 48 -38.5t59 -10.5zM510.5 131.5q64.5 8.5 93 32
t28.5 71.5q0 69 -32.5 91t-83.5 22q-76 0 -146 -50t-137 -175h87q126 0 190.5 8.5z" />
    <glyph glyph-name="uniFEC3" unicode="&#x637;" horiz-adv-x="776" arabic-form="initial" 
d="M620 441.5q48 -26.5 76.5 -80.5t28.5 -133q0 -99 -41 -147.5t-126.5 -64.5t-248.5 -16h-310v2l-19 55l30 66h117l24 52v585l104 13v-440q59 66 125 100.5t134 34.5q58 0 106 -26.5zM510.5 131.5q64.5 8.5 93 32t28.5 71.5q0 69 -32.5 91t-83.5 22q-76 0 -146 -50
t-137 -175h87q126 0 190.5 8.5z" />
    <glyph glyph-name="uni069F.init" unicode="&#x69f;" horiz-adv-x="776" 
d="M620 441.5q48 -26.5 76.5 -80.5t28.5 -133q0 -99 -41 -147.5t-126.5 -64.5t-248.5 -16h-310v2l-19 55l30 66h117l24 52v585l104 13v-440q59 66 125 100.5t134 34.5q58 0 106 -26.5zM510.5 131.5q64.5 8.5 93 32t28.5 71.5q0 69 -32.5 91t-83.5 22q-76 0 -146 -50
t-137 -175h87q126 0 190.5 8.5zM446 675.5q-16 16.5 -16 39.5t16 39.5t39 16.5t39 -16.5t16 -39.5t-16 -39.5t-39 -16.5t-39 16.5zM358.5 547q-16.5 16 -16.5 39t16.5 39.5t40.5 16.5q22 0 38.5 -16.5t16.5 -39.5q0 -22 -16.5 -38.5t-38.5 -16.5q-24 0 -40.5 16z
M532.5 547.5q-16.5 16.5 -16.5 38.5q0 23 16.5 39.5t38.5 16.5q24 0 40.5 -16.5t16.5 -39.5t-16.5 -39t-40.5 -16q-22 0 -38.5 16.5z" />
    <glyph glyph-name="uni069F.medi" unicode="&#x69f;" horiz-adv-x="818" 
d="M838 56l-20 -56q-42 0 -78 20.5t-60 54.5q-42 -45 -126.5 -60t-244.5 -15h-310v2l-19 55l30 66h117l24 52v585l104 13v-440q59 66 125 100.5t134 34.5q58 0 106 -26.5t76.5 -80.5t28.5 -133q0 -33 -4 -56q23 -28 48 -38.5t59 -10.5zM510.5 131.5q64.5 8.5 93 32
t28.5 71.5q0 69 -32.5 91t-83.5 22q-76 0 -146 -50t-137 -175h87q126 0 190.5 8.5zM446 675.5q-16 16.5 -16 39.5t16 39.5t39 16.5t39 -16.5t16 -39.5t-16 -39.5t-39 -16.5t-39 16.5zM358.5 547q-16.5 16 -16.5 39t16.5 39.5t40.5 16.5q22 0 38.5 -16.5t16.5 -39.5
q0 -22 -16.5 -38.5t-38.5 -16.5q-24 0 -40.5 16zM532.5 547.5q-16.5 16.5 -16.5 38.5q0 23 16.5 39.5t38.5 16.5q24 0 40.5 -16.5t16.5 -39.5t-16.5 -39t-40.5 -16q-22 0 -38.5 16.5z" />
    <glyph glyph-name="uni069F.fina" unicode="&#x69f;" horiz-adv-x="846" 
d="M866 56l-20 -56q-42 0 -79 21t-60 55q-40 -45 -125.5 -60.5t-244.5 -15.5h-310l23 123h105l24 53v584l104 13v-439q59 66 125 100t134 34q58 0 105.5 -26.5t76 -80.5t28.5 -133q0 -29 -3 -55q22 -29 47 -39.5t60 -10.5zM538.5 131.5q64.5 8.5 93 32t28.5 71.5
q0 69 -32.5 91t-83.5 22q-76 0 -146 -50t-137 -175h87q126 0 190.5 8.5zM474 675.5q-16 16.5 -16 39.5t16 39.5t39 16.5t39 -16.5t16 -39.5t-16 -39.5t-39 -16.5t-39 16.5zM386.5 547q-16.5 16 -16.5 39t16.5 39.5t40.5 16.5q22 0 38.5 -16.5t16.5 -39.5q0 -22 -16.5 -38.5
t-38.5 -16.5q-24 0 -40.5 16zM560.5 547.5q-16.5 16.5 -16.5 38.5q0 23 16.5 39.5t38.5 16.5q24 0 40.5 -16.5t16.5 -39.5t-16.5 -39t-40.5 -16q-22 0 -38.5 16.5z" />
    <glyph glyph-name="uniFEC6" unicode="&#x638;" horiz-adv-x="846" arabic-form="final" 
d="M866 56l-20 -56q-42 0 -79 21t-60 55q-40 -45 -125.5 -60.5t-244.5 -15.5h-310l23 123h105l24 53v584l104 13v-439q59 66 125 100t134 34q58 0 105.5 -26.5t76 -80.5t28.5 -133q0 -29 -3 -55q22 -29 47 -39.5t60 -10.5zM538.5 131.5q64.5 8.5 93 32t28.5 71.5
q0 69 -32.5 91t-83.5 22q-76 0 -146 -50t-137 -175h87q126 0 190.5 8.5zM467 546q-18 18 -18 44t18 44t44 18t44 -18t18 -44t-18 -44t-44 -18t-44 18z" />
    <glyph glyph-name="uniFEC8" unicode="&#x638;" horiz-adv-x="818" arabic-form="medial" 
d="M838 56l-20 -56q-42 0 -78 20.5t-60 54.5q-42 -45 -126.5 -60t-244.5 -15h-310v2l-19 55l30 66h117l24 52v585l104 13v-440q59 66 125 100.5t134 34.5q58 0 106 -26.5t76.5 -80.5t28.5 -133q0 -33 -4 -56q23 -28 48 -38.5t59 -10.5zM510.5 131.5q64.5 8.5 93 32
t28.5 71.5q0 69 -32.5 91t-83.5 22q-76 0 -146 -50t-137 -175h87q126 0 190.5 8.5zM439 546q-18 18 -18 44t18 44t44 18t44 -18t18 -44t-18 -44t-44 -18t-44 18z" />
    <glyph glyph-name="uniFEC7" unicode="&#x638;" horiz-adv-x="776" arabic-form="initial" 
d="M620 441.5q48 -26.5 76.5 -80.5t28.5 -133q0 -99 -41 -147.5t-126.5 -64.5t-248.5 -16h-310v2l-19 55l30 66h117l24 52v585l104 13v-440q59 66 125 100.5t134 34.5q58 0 106 -26.5zM510.5 131.5q64.5 8.5 93 32t28.5 71.5q0 69 -32.5 91t-83.5 22q-76 0 -146 -50
t-137 -175h87q126 0 190.5 8.5zM439 546q-18 18 -18 44t18 44t44 18t44 -18t18 -44t-18 -44t-44 -18t-44 18z" />
    <glyph glyph-name="uniFECA" unicode="&#x639;" horiz-adv-x="578" arabic-form="final" 
d="M553 -198l45 -107q-102 -63 -263 -63q-104 0 -172 36t-99.5 93.5t-31.5 124.5q0 188 176 273q-40 42 -76 75t-92 72l15 116q47 18 105.5 29t121.5 11q224 0 224 -148q0 -54 -28.5 -95.5t-87.5 -76.5q24 -11 57.5 -15t97.5 -4h44l9 -65l-20 -58h-58q-66 0 -123 20.5
t-115 68.5q-84 -41 -120.5 -84.5t-36.5 -99.5q0 -67 55 -108t164 -41q122 0 209 46zM210.5 284.5q33.5 -27.5 68.5 -57.5l30 -26q55 24 80.5 46.5t25.5 50.5q0 26 -30.5 38.5t-99.5 12.5q-64 0 -134 -18q26 -19 59.5 -46.5z" />
    <glyph glyph-name="uniFECC" unicode="&#x639;" horiz-adv-x="606" arabic-form="medial" 
d="M626 57l-20 -57h-45q-69 0 -125 17.5t-106 55.5q-64 -34 -138 -53.5t-147 -19.5h-45l-20 58l30 65h18q115 0 216 32q-46 48 -80.5 79.5t-91.5 70.5l14 116q47 18 105 29.5t120 11.5q222 0 222 -148q0 -44 -26.5 -88.5t-74.5 -85.5q27 -10 60.5 -13.5t88.5 -3.5h36z
M242 283.5q33 -27.5 43 -36.5q27 -24 60 -51q45 25 70.5 51.5t25.5 49.5q0 26 -30 39t-97 13q-64 0 -132 -18q27 -20 60 -47.5z" />
    <glyph glyph-name="uniFECB" unicode="&#x639;" horiz-adv-x="568" arabic-form="initial" 
d="M555 53q-132 -32 -222.5 -42.5t-190.5 -10.5h-142l-20 56l30 67h108h35q-41 37 -62.5 80t-21.5 84q0 49 27 93t80.5 71.5t127.5 27.5q90 0 164 -39l-49 -113q-29 15 -59.5 22.5t-55.5 7.5q-63 0 -94 -26t-31 -65q0 -76 98 -138q56 4 114 15t150 33z" />
    <glyph glyph-name="uni06A0.init" unicode="&#x6a0;" horiz-adv-x="568" 
d="M555 53q-132 -32 -222.5 -42.5t-190.5 -10.5h-142l-20 56l30 67h108h35q-41 37 -62.5 80t-21.5 84q0 49 27 93t80.5 71.5t127.5 27.5q90 0 164 -39l-49 -113q-29 15 -59.5 22.5t-55.5 7.5q-63 0 -94 -26t-31 -65q0 -76 98 -138q56 4 114 15t150 33zM265 694.5
q-16 16.5 -16 39.5t16 39.5t39 16.5t39 -16.5t16 -39.5t-16 -39.5t-39 -16.5t-39 16.5zM177.5 566q-16.5 16 -16.5 39t16.5 39.5t40.5 16.5q22 0 38.5 -16.5t16.5 -39.5q0 -22 -16.5 -38.5t-38.5 -16.5q-24 0 -40.5 16zM351.5 566.5q-16.5 16.5 -16.5 38.5q0 23 16.5 39.5
t38.5 16.5q24 0 40.5 -16.5t16.5 -39.5t-16.5 -39t-40.5 -16q-22 0 -38.5 16.5z" />
    <glyph glyph-name="uni06A0.medi" unicode="&#x6a0;" horiz-adv-x="606" 
d="M626 57l-20 -57h-45q-69 0 -125 17.5t-106 55.5q-64 -34 -138 -53.5t-147 -19.5h-45l-20 58l30 65h18q115 0 216 32q-46 48 -80.5 79.5t-91.5 70.5l14 116q47 18 105 29.5t120 11.5q222 0 222 -148q0 -44 -26.5 -88.5t-74.5 -85.5q27 -10 60.5 -13.5t88.5 -3.5h36z
M242 283.5q33 -27.5 43 -36.5q27 -24 60 -51q45 25 70.5 51.5t25.5 49.5q0 26 -30 39t-97 13q-64 0 -132 -18q27 -20 60 -47.5zM271 686.5q-16 16.5 -16 39.5t16 39.5t39 16.5t39 -16.5t16 -39.5t-16 -39.5t-39 -16.5t-39 16.5zM183.5 558q-16.5 16 -16.5 39t16.5 39.5
t40.5 16.5q22 0 38.5 -16.5t16.5 -39.5q0 -22 -16.5 -38.5t-38.5 -16.5q-24 0 -40.5 16zM357.5 558.5q-16.5 16.5 -16.5 38.5q0 23 16.5 39.5t38.5 16.5q24 0 40.5 -16.5t16.5 -39.5t-16.5 -39t-40.5 -16q-22 0 -38.5 16.5z" />
    <glyph glyph-name="uni06A0.fina" unicode="&#x6a0;" horiz-adv-x="578" 
d="M553 -198l45 -107q-102 -63 -263 -63q-104 0 -172 36t-99.5 93.5t-31.5 124.5q0 188 176 273q-40 42 -76 75t-92 72l15 116q47 18 105.5 29t121.5 11q224 0 224 -148q0 -54 -28.5 -95.5t-87.5 -76.5q24 -11 57.5 -15t97.5 -4h44l9 -65l-20 -58h-58q-66 0 -123 20.5
t-115 68.5q-84 -41 -120.5 -84.5t-36.5 -99.5q0 -67 55 -108t164 -41q122 0 209 46zM210.5 284.5q33.5 -27.5 68.5 -57.5l30 -26q55 24 80.5 46.5t25.5 50.5q0 26 -30.5 38.5t-99.5 12.5q-64 0 -134 -18q26 -19 59.5 -46.5zM259 685.5q-16 16.5 -16 39.5t16 39.5t39 16.5
t39 -16.5t16 -39.5t-16 -39.5t-39 -16.5t-39 16.5zM171.5 557q-16.5 16 -16.5 39t16.5 39.5t40.5 16.5q22 0 38.5 -16.5t16.5 -39.5q0 -22 -16.5 -38.5t-38.5 -16.5q-24 0 -40.5 16zM345.5 557.5q-16.5 16.5 -16.5 38.5q0 23 16.5 39.5t38.5 16.5q24 0 40.5 -16.5
t16.5 -39.5t-16.5 -39t-40.5 -16q-22 0 -38.5 16.5z" />
    <glyph glyph-name="uniFECE" unicode="&#x63a;" horiz-adv-x="578" arabic-form="final" 
d="M553 -198l45 -107q-102 -63 -263 -63q-104 0 -172 36t-99.5 93.5t-31.5 124.5q0 188 176 273q-40 42 -76 75t-92 72l15 116q47 18 105.5 29t121.5 11q224 0 224 -148q0 -54 -28.5 -95.5t-87.5 -76.5q24 -11 57.5 -15t97.5 -4h44l9 -65l-20 -58h-58q-66 0 -123 20.5
t-115 68.5q-84 -41 -120.5 -84.5t-36.5 -99.5q0 -67 55 -108t164 -41q122 0 209 46zM210.5 284.5q33.5 -27.5 68.5 -57.5l30 -26q55 24 80.5 46.5t25.5 50.5q0 26 -30.5 38.5t-99.5 12.5q-64 0 -134 -18q26 -19 59.5 -46.5zM252 556q-18 18 -18 44t18 44t44 18t44 -18
t18 -44t-18 -44t-44 -18t-44 18z" />
    <glyph glyph-name="uniFED0" unicode="&#x63a;" horiz-adv-x="606" arabic-form="medial" 
d="M626 57l-20 -57h-45q-69 0 -125 17.5t-106 55.5q-64 -34 -138 -53.5t-147 -19.5h-45l-20 58l30 65h18q115 0 216 32q-46 48 -80.5 79.5t-91.5 70.5l14 116q47 18 105 29.5t120 11.5q222 0 222 -148q0 -44 -26.5 -88.5t-74.5 -85.5q27 -10 60.5 -13.5t88.5 -3.5h36z
M242 283.5q33 -27.5 43 -36.5q27 -24 60 -51q45 25 70.5 51.5t25.5 49.5q0 26 -30 39t-97 13q-64 0 -132 -18q27 -20 60 -47.5zM264 557q-18 18 -18 44t18 44t44 18t44 -18t18 -44t-18 -44t-44 -18t-44 18z" />
    <glyph glyph-name="uniFECF" unicode="&#x63a;" horiz-adv-x="568" arabic-form="initial" 
d="M555 53q-132 -32 -222.5 -42.5t-190.5 -10.5h-142l-20 56l30 67h108h35q-41 37 -62.5 80t-21.5 84q0 49 27 93t80.5 71.5t127.5 27.5q90 0 164 -39l-49 -113q-29 15 -59.5 22.5t-55.5 7.5q-63 0 -94 -26t-31 -65q0 -76 98 -138q56 4 114 15t150 33zM258 565
q-18 18 -18 44t18 44t44 18t44 -18t18 -44t-18 -44t-44 -18t-44 18z" />
    <glyph glyph-name="uni06FC.init" unicode="&#x6fc;" horiz-adv-x="568" 
d="M555 53q-132 -32 -222.5 -42.5t-190.5 -10.5h-142l-20 56l30 67h108h35q-41 37 -62.5 80t-21.5 84q0 49 27 93t80.5 71.5t127.5 27.5q90 0 164 -39l-49 -113q-29 15 -59.5 22.5t-55.5 7.5q-63 0 -94 -26t-31 -65q0 -76 98 -138q56 4 114 15t150 33zM258 565
q-18 18 -18 44t18 44t44 18t44 -18t18 -44t-18 -44t-44 -18t-44 18zM216 -196q-18 18 -18 44t18 44t44 18t44 -18t18 -44t-18 -44t-44 -18t-44 18z" />
    <glyph glyph-name="uni06FC.medi" unicode="&#x6fc;" horiz-adv-x="606" 
d="M626 57l-20 -57h-45q-69 0 -125 17.5t-106 55.5q-64 -34 -138 -53.5t-147 -19.5h-45l-20 58l30 65h18q115 0 216 32q-46 48 -80.5 79.5t-91.5 70.5l14 116q47 18 105 29.5t120 11.5q222 0 222 -148q0 -44 -26.5 -88.5t-74.5 -85.5q27 -10 60.5 -13.5t88.5 -3.5h36z
M242 283.5q33 -27.5 43 -36.5q27 -24 60 -51q45 25 70.5 51.5t25.5 49.5q0 26 -30 39t-97 13q-64 0 -132 -18q27 -20 60 -47.5zM264 557q-18 18 -18 44t18 44t44 18t44 -18t18 -44t-18 -44t-44 -18t-44 18zM287 -196q-18 18 -18 44t18 44t44 18t44 -18t18 -44t-18 -44
t-44 -18t-44 18z" />
    <glyph glyph-name="uni06FC.fina" unicode="&#x6fc;" horiz-adv-x="578" 
d="M553 -198l45 -107q-102 -63 -263 -63q-104 0 -172 36t-99.5 93.5t-31.5 124.5q0 188 176 273q-40 42 -76 75t-92 72l15 116q47 18 105.5 29t121.5 11q224 0 224 -148q0 -54 -28.5 -95.5t-87.5 -76.5q24 -11 57.5 -15t97.5 -4h44l9 -65l-20 -58h-58q-66 0 -123 20.5
t-115 68.5q-84 -41 -120.5 -84.5t-36.5 -99.5q0 -67 55 -108t164 -41q122 0 209 46zM210.5 284.5q33.5 -27.5 68.5 -57.5l30 -26q55 24 80.5 46.5t25.5 50.5q0 26 -30.5 38.5t-99.5 12.5q-64 0 -134 -18q26 -19 59.5 -46.5zM252 556q-18 18 -18 44t18 44t44 18t44 -18
t18 -44t-18 -44t-44 -18t-44 18zM273 -126q-18 18 -18 44t18 44t44 18t44 -18t18 -44t-18 -44t-44 -18t-44 18z" />
    <glyph glyph-name="uniFED2" unicode="&#x641;" horiz-adv-x="972" arabic-form="final" 
d="M992 57l-21 -57h-52q-51 0 -104.5 13t-102.5 36q-120 -54 -308 -63l-1 -2h-35h-32v1q-117 4 -181.5 27t-90.5 66.5t-26 116.5q0 40 10 82t28 79l80 -25q-19 -63 -19 -111q0 -42 20 -65.5t72.5 -35t151.5 -12.5q129 1 222 17q-38 36 -59 79t-21 90q0 55 25.5 102t69 75.5
t93.5 28.5q57 0 100.5 -27.5t68 -74.5t24.5 -103q0 -43 -18.5 -86t-56.5 -81q33 -4 76 -4h76zM642 207q26 -32 72 -52q95 42 95 128q0 41 -27.5 70t-67.5 29q-42 0 -70 -29t-28 -71q0 -43 26 -75zM665 584q-18 18 -18 44t18 44t44 18t44 -18t18 -44t-18 -44t-44 -18t-44 18z
" />
    <glyph glyph-name="uniFED4" unicode="&#x641;" horiz-adv-x="526" arabic-form="medial" 
d="M546 57l-20 -57h-66q-47 0 -97 12.5t-96 35.5q-96 -48 -213 -48h-54l-20 57l30 66h57q53 0 88 5q-78 78 -78 168q0 55 25.5 102t69 75.5t93.5 28.5q56 0 100.5 -28t69 -74.5t24.5 -102.5q0 -42 -20.5 -86t-58.5 -82q47 -6 100 -6h55zM271 156q93 41 93 128q0 41 -28 70
t-68 29q-42 0 -69.5 -29t-27.5 -71q0 -85 100 -127zM220 586q-18 18 -18 44t18 44t44 18t44 -18t18 -44t-18 -44t-44 -18t-44 18z" />
    <glyph glyph-name="uniFED3" unicode="&#x641;" horiz-adv-x="475" arabic-form="initial" 
d="M323 554.5q46 -33.5 73 -100.5t27 -163q0 -118 -42 -180.5t-131.5 -86.5t-249.5 -24l-20 58l30 65q122 0 188.5 10t95 31.5t34.5 58.5q-37 -29 -112 -29q-83 0 -135 50t-52 133q0 59 26 107t70 76t96 28q56 0 102 -33.5zM152.5 317.5q32.5 -25.5 95.5 -25.5q46 0 82 14
q-11 171 -111 171q-43 0 -71 -25.5t-28 -64.5q0 -44 32.5 -69.5zM175 674q-18 18 -18 44t18 44t44 18t44 -18t18 -44t-18 -44t-44 -18t-44 18z" />
    <glyph glyph-name="uniFB6B" unicode="&#x6a4;" horiz-adv-x="972" arabic-form="final" 
d="M992 57l-21 -57h-52q-51 0 -104.5 13t-102.5 36q-120 -54 -308 -63l-1 -2h-35h-32v1q-117 4 -181.5 27t-90.5 66.5t-26 116.5q0 40 10 82t28 79l80 -25q-19 -63 -19 -111q0 -42 20 -65.5t72.5 -35t151.5 -12.5q129 1 222 17q-38 36 -59 79t-21 90q0 55 25.5 102t69 75.5
t93.5 28.5q57 0 100.5 -27.5t68 -74.5t24.5 -103q0 -43 -18.5 -86t-56.5 -81q33 -4 76 -4h76zM642 207q26 -32 72 -52q95 42 95 128q0 41 -27.5 70t-67.5 29q-42 0 -70 -29t-28 -71q0 -43 26 -75zM672 713.5q-16 16.5 -16 39.5t16 39.5t39 16.5t39 -16.5t16 -39.5t-16 -39.5
t-39 -16.5t-39 16.5zM584.5 585q-16.5 16 -16.5 39t16.5 39.5t40.5 16.5q22 0 38.5 -16.5t16.5 -39.5q0 -22 -16.5 -38.5t-38.5 -16.5q-24 0 -40.5 16zM758.5 585.5q-16.5 16.5 -16.5 38.5q0 23 16.5 39.5t38.5 16.5q24 0 40.5 -16.5t16.5 -39.5t-16.5 -39t-40.5 -16
q-22 0 -38.5 16.5z" />
    <glyph glyph-name="uniFB6D" unicode="&#x6a4;" horiz-adv-x="526" arabic-form="medial" 
d="M546 57l-20 -57h-66q-47 0 -97 12.5t-96 35.5q-96 -48 -213 -48h-54l-20 57l30 66h57q53 0 88 5q-78 78 -78 168q0 55 25.5 102t69 75.5t93.5 28.5q56 0 100.5 -28t69 -74.5t24.5 -102.5q0 -42 -20.5 -86t-58.5 -82q47 -6 100 -6h55zM271 156q93 41 93 128q0 41 -28 70
t-68 29q-42 0 -69.5 -29t-27.5 -71q0 -85 100 -127zM227 715.5q-16 16.5 -16 39.5t16 39.5t39 16.5t39 -16.5t16 -39.5t-16 -39.5t-39 -16.5t-39 16.5zM139.5 587q-16.5 16 -16.5 39t16.5 39.5t40.5 16.5q22 0 38.5 -16.5t16.5 -39.5q0 -22 -16.5 -38.5t-38.5 -16.5
q-24 0 -40.5 16zM313.5 587.5q-16.5 16.5 -16.5 38.5q0 23 16.5 39.5t38.5 16.5q24 0 40.5 -16.5t16.5 -39.5t-16.5 -39t-40.5 -16q-22 0 -38.5 16.5z" />
    <glyph glyph-name="uniFB6C" unicode="&#x6a4;" horiz-adv-x="475" arabic-form="initial" 
d="M323 554.5q46 -33.5 73 -100.5t27 -163q0 -118 -42 -180.5t-131.5 -86.5t-249.5 -24l-20 58l30 65q122 0 188.5 10t95 31.5t34.5 58.5q-37 -29 -112 -29q-83 0 -135 50t-52 133q0 59 26 107t70 76t96 28q56 0 102 -33.5zM152.5 317.5q32.5 -25.5 95.5 -25.5q46 0 82 14
q-11 171 -111 171q-43 0 -71 -25.5t-28 -64.5q0 -44 32.5 -69.5zM182 803.5q-16 16.5 -16 39.5t16 39.5t39 16.5t39 -16.5t16 -39.5t-16 -39.5t-39 -16.5t-39 16.5zM94.5 675q-16.5 16 -16.5 39t16.5 39.5t40.5 16.5q22 0 38.5 -16.5t16.5 -39.5q0 -22 -16.5 -38.5
t-38.5 -16.5q-24 0 -40.5 16zM268.5 675.5q-16.5 16.5 -16.5 38.5q0 23 16.5 39.5t38.5 16.5q24 0 40.5 -16.5t16.5 -39.5t-16.5 -39t-40.5 -16q-22 0 -38.5 16.5z" />
    <glyph glyph-name="uni06A1.init" unicode="&#x6a1;" horiz-adv-x="475" 
d="M323 554.5q46 -33.5 73 -100.5t27 -163q0 -118 -42 -180.5t-131.5 -86.5t-249.5 -24l-20 58l30 65q122 0 188.5 10t95 31.5t34.5 58.5q-37 -29 -112 -29q-83 0 -135 50t-52 133q0 59 26 107t70 76t96 28q56 0 102 -33.5zM152.5 317.5q32.5 -25.5 95.5 -25.5q46 0 82 14
q-11 171 -111 171q-43 0 -71 -25.5t-28 -64.5q0 -44 32.5 -69.5z" />
    <glyph glyph-name="uni06A1.medi" unicode="&#x6a1;" horiz-adv-x="526" 
d="M546 57l-20 -57h-66q-47 0 -97 12.5t-96 35.5q-96 -48 -213 -48h-54l-20 57l30 66h57q53 0 88 5q-78 78 -78 168q0 55 25.5 102t69 75.5t93.5 28.5q56 0 100.5 -28t69 -74.5t24.5 -102.5q0 -42 -20.5 -86t-58.5 -82q47 -6 100 -6h55zM271 156q93 41 93 128q0 41 -28 70
t-68 29q-42 0 -69.5 -29t-27.5 -71q0 -85 100 -127z" />
    <glyph glyph-name="uni06A1.fina" unicode="&#x6a1;" horiz-adv-x="972" 
d="M992 57l-21 -57h-52q-51 0 -104.5 13t-102.5 36q-120 -54 -308 -63l-1 -2h-35h-32v1q-117 4 -181.5 27t-90.5 66.5t-26 116.5q0 40 10 82t28 79l80 -25q-19 -63 -19 -111q0 -42 20 -65.5t72.5 -35t151.5 -12.5q129 1 222 17q-38 36 -59 79t-21 90q0 55 25.5 102t69 75.5
t93.5 28.5q57 0 100.5 -27.5t68 -74.5t24.5 -103q0 -43 -18.5 -86t-56.5 -81q33 -4 76 -4h76zM642 207q26 -32 72 -52q95 42 95 128q0 41 -27.5 70t-67.5 29q-42 0 -70 -29t-28 -71q0 -43 26 -75z" />
    <glyph glyph-name="uni06A2.init" unicode="&#x6a2;" horiz-adv-x="475" 
d="M323 554.5q46 -33.5 73 -100.5t27 -163q0 -118 -42 -180.5t-131.5 -86.5t-249.5 -24l-20 58l30 65q122 0 188.5 10t95 31.5t34.5 58.5q-37 -29 -112 -29q-83 0 -135 50t-52 133q0 59 26 107t70 76t96 28q56 0 102 -33.5zM152.5 317.5q32.5 -25.5 95.5 -25.5q46 0 82 14
q-11 171 -111 171q-43 0 -71 -25.5t-28 -64.5q0 -44 32.5 -69.5zM164 -196q-18 18 -18 44t18 44t44 18t44 -18t18 -44t-18 -44t-44 -18t-44 18z" />
    <glyph glyph-name="uni06A2.medi" unicode="&#x6a2;" horiz-adv-x="526" 
d="M546 57l-20 -57h-66q-47 0 -97 12.5t-96 35.5q-96 -48 -213 -48h-54l-20 57l30 66h57q53 0 88 5q-78 78 -78 168q0 55 25.5 102t69 75.5t93.5 28.5q56 0 100.5 -28t69 -74.5t24.5 -102.5q0 -42 -20.5 -86t-58.5 -82q47 -6 100 -6h55zM271 156q93 41 93 128q0 41 -28 70
t-68 29q-42 0 -69.5 -29t-27.5 -71q0 -85 100 -127zM224 -196q-18 18 -18 44t18 44t44 18t44 -18t18 -44t-18 -44t-44 -18t-44 18z" />
    <glyph glyph-name="uni06A2.fina" unicode="&#x6a2;" horiz-adv-x="972" 
d="M992 57l-21 -57h-52q-51 0 -104.5 13t-102.5 36q-120 -54 -308 -63l-1 -2h-35h-32v1q-117 4 -181.5 27t-90.5 66.5t-26 116.5q0 40 10 82t28 79l80 -25q-19 -63 -19 -111q0 -42 20 -65.5t72.5 -35t151.5 -12.5q129 1 222 17q-38 36 -59 79t-21 90q0 55 25.5 102t69 75.5
t93.5 28.5q57 0 100.5 -27.5t68 -74.5t24.5 -103q0 -43 -18.5 -86t-56.5 -81q33 -4 76 -4h76zM642 207q26 -32 72 -52q95 42 95 128q0 41 -27.5 70t-67.5 29q-42 0 -70 -29t-28 -71q0 -43 26 -75zM670 -196q-18 18 -18 44t18 44t44 18t44 -18t18 -44t-18 -44t-44 -18t-44 18
z" />
    <glyph glyph-name="uni06A3.init" unicode="&#x6a3;" horiz-adv-x="475" 
d="M323 554.5q46 -33.5 73 -100.5t27 -163q0 -118 -42 -180.5t-131.5 -86.5t-249.5 -24l-20 58l30 65q122 0 188.5 10t95 31.5t34.5 58.5q-37 -29 -112 -29q-83 0 -135 50t-52 133q0 59 26 107t70 76t96 28q56 0 102 -33.5zM152.5 317.5q32.5 -25.5 95.5 -25.5q46 0 82 14
q-11 171 -111 171q-43 0 -71 -25.5t-28 -64.5q0 -44 32.5 -69.5zM175 674q-18 18 -18 44t18 44t44 18t44 -18t18 -44t-18 -44t-44 -18t-44 18zM160 -196q-18 18 -18 44t18 44t44 18t44 -18t18 -44t-18 -44t-44 -18t-44 18z" />
    <glyph glyph-name="uni06A3.medi" unicode="&#x6a3;" horiz-adv-x="526" 
d="M546 57l-20 -57h-66q-47 0 -97 12.5t-96 35.5q-96 -48 -213 -48h-54l-20 57l30 66h57q53 0 88 5q-78 78 -78 168q0 55 25.5 102t69 75.5t93.5 28.5q56 0 100.5 -28t69 -74.5t24.5 -102.5q0 -42 -20.5 -86t-58.5 -82q47 -6 100 -6h55zM271 156q93 41 93 128q0 41 -28 70
t-68 29q-42 0 -69.5 -29t-27.5 -71q0 -85 100 -127zM220 586q-18 18 -18 44t18 44t44 18t44 -18t18 -44t-18 -44t-44 -18t-44 18zM220 -196q-18 18 -18 44t18 44t44 18t44 -18t18 -44t-18 -44t-44 -18t-44 18z" />
    <glyph glyph-name="uni06A3.fina" unicode="&#x6a3;" horiz-adv-x="972" 
d="M992 57l-21 -57h-52q-51 0 -104.5 13t-102.5 36q-120 -54 -308 -63l-1 -2h-35h-32v1q-117 4 -181.5 27t-90.5 66.5t-26 116.5q0 40 10 82t28 79l80 -25q-19 -63 -19 -111q0 -42 20 -65.5t72.5 -35t151.5 -12.5q129 1 222 17q-38 36 -59 79t-21 90q0 55 25.5 102t69 75.5
t93.5 28.5q57 0 100.5 -27.5t68 -74.5t24.5 -103q0 -43 -18.5 -86t-56.5 -81q33 -4 76 -4h76zM642 207q26 -32 72 -52q95 42 95 128q0 41 -27.5 70t-67.5 29q-42 0 -70 -29t-28 -71q0 -43 26 -75zM665 584q-18 18 -18 44t18 44t44 18t44 -18t18 -44t-18 -44t-44 -18t-44 18z
M666 -196q-18 18 -18 44t18 44t44 18t44 -18t18 -44t-18 -44t-44 -18t-44 18z" />
    <glyph glyph-name="uni06A5.init" unicode="&#x6a5;" horiz-adv-x="475" 
d="M323 554.5q46 -33.5 73 -100.5t27 -163q0 -118 -42 -180.5t-131.5 -86.5t-249.5 -24l-20 58l30 65q122 0 188.5 10t95 31.5t34.5 58.5q-37 -29 -112 -29q-83 0 -135 50t-52 133q0 59 26 107t70 76t96 28q56 0 102 -33.5zM152.5 317.5q32.5 -25.5 95.5 -25.5q46 0 82 14
q-11 171 -111 171q-43 0 -71 -25.5t-28 -64.5q0 -44 32.5 -69.5zM160.5 -106.5q16.5 -16.5 16.5 -38.5q0 -24 -16.5 -40.5t-38.5 -16.5q-24 0 -40.5 16.5t-16.5 40.5q0 23 16.5 39t40.5 16q22 0 38.5 -16.5zM334.5 -106q16.5 -16 16.5 -39q0 -24 -16.5 -40.5t-40.5 -16.5
q-22 0 -38.5 16.5t-16.5 40.5q0 22 16.5 38.5t38.5 16.5q24 0 40.5 -16zM247 -234.5q16 -16.5 16 -39.5t-16 -39.5t-39 -16.5t-39 16.5t-16 39.5t16 39.5t39 16.5t39 -16.5z" />
    <glyph glyph-name="uni06A5.medi" unicode="&#x6a5;" horiz-adv-x="526" 
d="M546 57l-20 -57h-66q-47 0 -97 12.5t-96 35.5q-96 -48 -213 -48h-54l-20 57l30 66h57q53 0 88 5q-78 78 -78 168q0 55 25.5 102t69 75.5t93.5 28.5q56 0 100.5 -28t69 -74.5t24.5 -102.5q0 -42 -20.5 -86t-58.5 -82q47 -6 100 -6h55zM271 156q93 41 93 128q0 41 -28 70
t-68 29q-42 0 -69.5 -29t-27.5 -71q0 -85 100 -127zM220.5 -106.5q16.5 -16.5 16.5 -38.5q0 -24 -16.5 -40.5t-38.5 -16.5q-24 0 -40.5 16.5t-16.5 40.5q0 23 16.5 39t40.5 16q22 0 38.5 -16.5zM394.5 -106q16.5 -16 16.5 -39q0 -24 -16.5 -40.5t-40.5 -16.5
q-22 0 -38.5 16.5t-16.5 40.5q0 22 16.5 38.5t38.5 16.5q24 0 40.5 -16zM307 -234.5q16 -16.5 16 -39.5t-16 -39.5t-39 -16.5t-39 16.5t-16 39.5t16 39.5t39 16.5t39 -16.5z" />
    <glyph glyph-name="uni06A5.fina" unicode="&#x6a5;" horiz-adv-x="972" 
d="M992 57l-21 -57h-52q-51 0 -104.5 13t-102.5 36q-120 -54 -308 -63l-1 -2h-35h-32v1q-117 4 -181.5 27t-90.5 66.5t-26 116.5q0 40 10 82t28 79l80 -25q-19 -63 -19 -111q0 -42 20 -65.5t72.5 -35t151.5 -12.5q129 1 222 17q-38 36 -59 79t-21 90q0 55 25.5 102t69 75.5
t93.5 28.5q57 0 100.5 -27.5t68 -74.5t24.5 -103q0 -43 -18.5 -86t-56.5 -81q33 -4 76 -4h76zM642 207q26 -32 72 -52q95 42 95 128q0 41 -27.5 70t-67.5 29q-42 0 -70 -29t-28 -71q0 -43 26 -75zM666.5 -106.5q16.5 -16.5 16.5 -38.5q0 -24 -16.5 -40.5t-38.5 -16.5
q-24 0 -40.5 16.5t-16.5 40.5q0 23 16.5 39t40.5 16q22 0 38.5 -16.5zM840.5 -106q16.5 -16 16.5 -39q0 -24 -16.5 -40.5t-40.5 -16.5q-22 0 -38.5 16.5t-16.5 40.5q0 22 16.5 38.5t38.5 16.5q24 0 40.5 -16zM753 -234.5q16 -16.5 16 -39.5t-16 -39.5t-39 -16.5t-39 16.5
t-16 39.5t16 39.5t39 16.5t39 -16.5z" />
    <glyph glyph-name="uniFB6F" unicode="&#x6a6;" horiz-adv-x="972" arabic-form="final" 
d="M992 57l-21 -57h-52q-51 0 -104.5 13t-102.5 36q-120 -54 -308 -63l-1 -2h-35h-32v1q-117 4 -181.5 27t-90.5 66.5t-26 116.5q0 40 10 82t28 79l80 -25q-19 -63 -19 -111q0 -42 20 -65.5t72.5 -35t151.5 -12.5q129 1 222 17q-38 36 -59 79t-21 90q0 55 25.5 102t69 75.5
t93.5 28.5q57 0 100.5 -27.5t68 -74.5t24.5 -103q0 -43 -18.5 -86t-56.5 -81q33 -4 76 -4h76zM642 207q26 -32 72 -52q95 42 95 128q0 41 -27.5 70t-67.5 29q-42 0 -70 -29t-28 -71q0 -43 26 -75zM598.5 709q-16.5 16 -16.5 37q0 24 16 40t39 16t38.5 -16t15.5 -40
q0 -21 -16 -37t-38 -16t-38.5 16zM748 709q-16 16 -16 37q0 24 15.5 40t38.5 16t39 -16t16 -40q0 -21 -16 -37t-39 -16q-22 0 -38 16zM598 566q-16 16 -16 39q0 22 16 38t39 16t38.5 -15.5t15.5 -38.5t-15.5 -39t-38.5 -16t-39 16zM747.5 566q-15.5 16 -15.5 39t16 38.5
t38 15.5q23 0 39 -15.5t16 -38.5t-16 -39t-39 -16t-38.5 16z" />
    <glyph glyph-name="uniFB71" unicode="&#x6a6;" horiz-adv-x="526" arabic-form="medial" 
d="M546 57l-20 -57h-66q-47 0 -97 12.5t-96 35.5q-96 -48 -213 -48h-54l-20 57l30 66h57q53 0 88 5q-78 78 -78 168q0 55 25.5 102t69 75.5t93.5 28.5q56 0 100.5 -28t69 -74.5t24.5 -102.5q0 -42 -20.5 -86t-58.5 -82q47 -6 100 -6h55zM271 156q93 41 93 128q0 41 -28 70
t-68 29q-42 0 -69.5 -29t-27.5 -71q0 -85 100 -127zM153.5 711q-16.5 16 -16.5 37q0 24 16 40t39 16t38.5 -16t15.5 -40q0 -21 -16 -37t-38 -16t-38.5 16zM303 711q-16 16 -16 37q0 24 15.5 40t38.5 16t39 -16t16 -40q0 -21 -16 -37t-39 -16q-22 0 -38 16zM153 568
q-16 16 -16 39q0 22 16 38t39 16t38.5 -15.5t15.5 -38.5t-15.5 -39t-38.5 -16t-39 16zM302.5 568q-15.5 16 -15.5 39t16 38.5t38 15.5q23 0 39 -15.5t16 -38.5t-16 -39t-39 -16t-38.5 16z" />
    <glyph glyph-name="uniFB70" unicode="&#x6a6;" horiz-adv-x="475" arabic-form="initial" 
d="M323 554.5q46 -33.5 73 -100.5t27 -163q0 -118 -42 -180.5t-131.5 -86.5t-249.5 -24l-20 58l30 65q122 0 188.5 10t95 31.5t34.5 58.5q-37 -29 -112 -29q-83 0 -135 50t-52 133q0 59 26 107t70 76t96 28q56 0 102 -33.5zM152.5 317.5q32.5 -25.5 95.5 -25.5q46 0 82 14
q-11 171 -111 171q-43 0 -71 -25.5t-28 -64.5q0 -44 32.5 -69.5zM108.5 799q-16.5 16 -16.5 37q0 24 16 40t39 16t38.5 -16t15.5 -40q0 -21 -16 -37t-38 -16t-38.5 16zM258 799q-16 16 -16 37q0 24 15.5 40t38.5 16t39 -16t16 -40q0 -21 -16 -37t-39 -16q-22 0 -38 16z
M108 656q-16 16 -16 39q0 22 16 38t39 16t38.5 -15.5t15.5 -38.5t-15.5 -39t-38.5 -16t-39 16zM257.5 656q-15.5 16 -15.5 39t16 38.5t38 15.5q23 0 39 -15.5t16 -38.5t-16 -39t-39 -16t-38.5 16z" />
    <glyph glyph-name="uni066F.init" unicode="&#x66f;" horiz-adv-x="475" 
d="M323 554.5q46 -33.5 73 -100.5t27 -163q0 -118 -42 -180.5t-131.5 -86.5t-249.5 -24l-20 58l30 65q122 0 188.5 10t95 31.5t34.5 58.5q-37 -29 -112 -29q-83 0 -135 50t-52 133q0 59 26 107t70 76t96 28q56 0 102 -33.5zM152.5 317.5q32.5 -25.5 95.5 -25.5q46 0 82 14
q-11 171 -111 171q-43 0 -71 -25.5t-28 -64.5q0 -44 32.5 -69.5z" />
    <glyph glyph-name="uni066F.medi" unicode="&#x66f;" horiz-adv-x="526" 
d="M546 57l-20 -57h-66q-47 0 -97 12.5t-96 35.5q-96 -48 -213 -48h-54l-20 57l30 66h57q53 0 88 5q-78 78 -78 168q0 55 25.5 102t69 75.5t93.5 28.5q56 0 100.5 -28t69 -74.5t24.5 -102.5q0 -42 -20.5 -86t-58.5 -82q47 -6 100 -6h55zM271 156q93 41 93 128q0 41 -28 70
t-68 29q-42 0 -69.5 -29t-27.5 -71q0 -85 100 -127z" />
    <glyph glyph-name="uni066F.fina" unicode="&#x66f;" horiz-adv-x="803" 
d="M803 0h-91q-19 -132 -99.5 -196.5t-238.5 -64.5q-174 0 -253 64.5t-79 192.5q0 102 50 200l80 -24q-26 -70 -26 -156q0 -77 53.5 -115.5t184.5 -38.5q112 0 166.5 37.5t69.5 100.5h-57q-122 0 -180 50t-58 137q0 59 26 107t70 76t96 28q54 0 98.5 -31t72.5 -93t31 -151
h94l10 -66zM627 118q-11 168 -112 168q-43 0 -71 -25t-28 -64q0 -43 31 -62.5t97 -19.5q55 0 83 3z" />
    <glyph glyph-name="uniFED6" unicode="&#x642;" horiz-adv-x="803" arabic-form="final" 
d="M803 0h-91q-19 -132 -99.5 -196.5t-238.5 -64.5q-174 0 -253 64.5t-79 192.5q0 102 50 200l80 -24q-26 -70 -26 -156q0 -77 53.5 -115.5t184.5 -38.5q112 0 166.5 37.5t69.5 100.5h-57q-122 0 -180 50t-58 137q0 59 26 107t70 76t96 28q54 0 98.5 -31t72.5 -93t31 -151
h94l10 -66zM627 118q-11 168 -112 168q-43 0 -71 -25t-28 -64q0 -43 31 -62.5t97 -19.5q55 0 83 3zM396 500q-17 17 -17 41t17 41t40 17q24 0 41 -17t17 -41t-17 -41t-41 -17q-23 0 -40 17zM556 500q-17 17 -17 41t17 41t41 17q23 0 40.5 -17t17.5 -41t-17.5 -41t-40.5 -17
q-24 0 -41 17z" />
    <glyph glyph-name="uniFED8" unicode="&#x642;" horiz-adv-x="526" arabic-form="medial" 
d="M546 57l-20 -57h-66q-47 0 -97 12.5t-96 35.5q-96 -48 -213 -48h-54l-20 57l30 66h57q53 0 88 5q-78 78 -78 168q0 55 25.5 102t69 75.5t93.5 28.5q56 0 100.5 -28t69 -74.5t24.5 -102.5q0 -42 -20.5 -86t-58.5 -82q47 -6 100 -6h55zM271 156q93 41 93 128q0 41 -28 70
t-68 29q-42 0 -69.5 -29t-27.5 -71q0 -85 100 -127zM145 602q-17 17 -17 41t17 41t40 17q24 0 41 -17t17 -41t-17 -41t-41 -17q-23 0 -40 17zM305 602q-17 17 -17 41t17 41t41 17q23 0 40.5 -17t17.5 -41t-17.5 -41t-40.5 -17q-24 0 -41 17z" />
    <glyph glyph-name="uniFED7" unicode="&#x642;" horiz-adv-x="475" arabic-form="initial" 
d="M323 554.5q46 -33.5 73 -100.5t27 -163q0 -118 -42 -180.5t-131.5 -86.5t-249.5 -24l-20 58l30 65q122 0 188.5 10t95 31.5t34.5 58.5q-37 -29 -112 -29q-83 0 -135 50t-52 133q0 59 26 107t70 76t96 28q56 0 102 -33.5zM152.5 317.5q32.5 -25.5 95.5 -25.5q46 0 82 14
q-11 171 -111 171q-43 0 -71 -25.5t-28 -64.5q0 -44 32.5 -69.5zM100 690q-17 17 -17 41t17 41t40 17q24 0 41 -17t17 -41t-17 -41t-41 -17q-23 0 -40 17zM260 690q-17 17 -17 41t17 41t41 17q23 0 40.5 -17t17.5 -41t-17.5 -41t-40.5 -17q-24 0 -41 17z" />
    <glyph glyph-name="uni06A7.init" unicode="&#x6a7;" horiz-adv-x="475" 
d="M323 554.5q46 -33.5 73 -100.5t27 -163q0 -118 -42 -180.5t-131.5 -86.5t-249.5 -24l-20 58l30 65q122 0 188.5 10t95 31.5t34.5 58.5q-37 -29 -112 -29q-83 0 -135 50t-52 133q0 59 26 107t70 76t96 28q56 0 102 -33.5zM152.5 317.5q32.5 -25.5 95.5 -25.5q46 0 82 14
q-11 171 -111 171q-43 0 -71 -25.5t-28 -64.5q0 -44 32.5 -69.5zM175 674q-18 18 -18 44t18 44t44 18t44 -18t18 -44t-18 -44t-44 -18t-44 18z" />
    <glyph glyph-name="uni06A7.medi" unicode="&#x6a7;" horiz-adv-x="526" 
d="M546 57l-20 -57h-66q-47 0 -97 12.5t-96 35.5q-96 -48 -213 -48h-54l-20 57l30 66h57q53 0 88 5q-78 78 -78 168q0 55 25.5 102t69 75.5t93.5 28.5q56 0 100.5 -28t69 -74.5t24.5 -102.5q0 -42 -20.5 -86t-58.5 -82q47 -6 100 -6h55zM271 156q93 41 93 128q0 41 -28 70
t-68 29q-42 0 -69.5 -29t-27.5 -71q0 -85 100 -127zM220 586q-18 18 -18 44t18 44t44 18t44 -18t18 -44t-18 -44t-44 -18t-44 18z" />
    <glyph glyph-name="uni06A7.fina" unicode="&#x6a7;" horiz-adv-x="803" 
d="M803 0h-91q-19 -132 -99.5 -196.5t-238.5 -64.5q-174 0 -253 64.5t-79 192.5q0 102 50 200l80 -24q-26 -70 -26 -156q0 -77 53.5 -115.5t184.5 -38.5q112 0 166.5 37.5t69.5 100.5h-57q-122 0 -180 50t-58 137q0 59 26 107t70 76t96 28q54 0 98.5 -31t72.5 -93t31 -151
h94l10 -66zM627 118q-11 168 -112 168q-43 0 -71 -25t-28 -64q0 -43 31 -62.5t97 -19.5q55 0 83 3zM471 484q-18 18 -18 44t18 44t44 18t44 -18t18 -44t-18 -44t-44 -18t-44 18z" />
    <glyph glyph-name="uni06A8.init" unicode="&#x6a8;" horiz-adv-x="475" 
d="M323 554.5q46 -33.5 73 -100.5t27 -163q0 -118 -42 -180.5t-131.5 -86.5t-249.5 -24l-20 58l30 65q122 0 188.5 10t95 31.5t34.5 58.5q-37 -29 -112 -29q-83 0 -135 50t-52 133q0 59 26 107t70 76t96 28q56 0 102 -33.5zM152.5 317.5q32.5 -25.5 95.5 -25.5q46 0 82 14
q-11 171 -111 171q-43 0 -71 -25.5t-28 -64.5q0 -44 32.5 -69.5zM182 803.5q-16 16.5 -16 39.5t16 39.5t39 16.5t39 -16.5t16 -39.5t-16 -39.5t-39 -16.5t-39 16.5zM94.5 675q-16.5 16 -16.5 39t16.5 39.5t40.5 16.5q22 0 38.5 -16.5t16.5 -39.5q0 -22 -16.5 -38.5
t-38.5 -16.5q-24 0 -40.5 16zM268.5 675.5q-16.5 16.5 -16.5 38.5q0 23 16.5 39.5t38.5 16.5q24 0 40.5 -16.5t16.5 -39.5t-16.5 -39t-40.5 -16q-22 0 -38.5 16.5z" />
    <glyph glyph-name="uni06A8.medi" unicode="&#x6a8;" horiz-adv-x="526" 
d="M546 57l-20 -57h-66q-47 0 -97 12.5t-96 35.5q-96 -48 -213 -48h-54l-20 57l30 66h57q53 0 88 5q-78 78 -78 168q0 55 25.5 102t69 75.5t93.5 28.5q56 0 100.5 -28t69 -74.5t24.5 -102.5q0 -42 -20.5 -86t-58.5 -82q47 -6 100 -6h55zM271 156q93 41 93 128q0 41 -28 70
t-68 29q-42 0 -69.5 -29t-27.5 -71q0 -85 100 -127zM227 715.5q-16 16.5 -16 39.5t16 39.5t39 16.5t39 -16.5t16 -39.5t-16 -39.5t-39 -16.5t-39 16.5zM139.5 587q-16.5 16 -16.5 39t16.5 39.5t40.5 16.5q22 0 38.5 -16.5t16.5 -39.5q0 -22 -16.5 -38.5t-38.5 -16.5
q-24 0 -40.5 16zM313.5 587.5q-16.5 16.5 -16.5 38.5q0 23 16.5 39.5t38.5 16.5q24 0 40.5 -16.5t16.5 -39.5t-16.5 -39t-40.5 -16q-22 0 -38.5 16.5z" />
    <glyph glyph-name="uni06A8.fina" unicode="&#x6a8;" horiz-adv-x="803" 
d="M803 0h-91q-19 -132 -99.5 -196.5t-238.5 -64.5q-174 0 -253 64.5t-79 192.5q0 102 50 200l80 -24q-26 -70 -26 -156q0 -77 53.5 -115.5t184.5 -38.5q112 0 166.5 37.5t69.5 100.5h-57q-122 0 -180 50t-58 137q0 59 26 107t70 76t96 28q54 0 98.5 -31t72.5 -93t31 -151
h94l10 -66zM627 118q-11 168 -112 168q-43 0 -71 -25t-28 -64q0 -43 31 -62.5t97 -19.5q55 0 83 3zM478 613.5q-16 16.5 -16 39.5t16 39.5t39 16.5t39 -16.5t16 -39.5t-16 -39.5t-39 -16.5t-39 16.5zM390.5 485q-16.5 16 -16.5 39t16.5 39.5t40.5 16.5q22 0 38.5 -16.5
t16.5 -39.5q0 -22 -16.5 -38.5t-38.5 -16.5q-24 0 -40.5 16zM564.5 485.5q-16.5 16.5 -16.5 38.5q0 23 16.5 39.5t38.5 16.5q24 0 40.5 -16.5t16.5 -39.5t-16.5 -39t-40.5 -16q-22 0 -38.5 16.5z" />
    <glyph glyph-name="uniFEDA" unicode="&#x643;" horiz-adv-x="824" arabic-form="final" 
d="M874 60l-20 -60q-56 0 -93.5 16t-66.5 56q-59 -38 -129 -59.5t-161 -26.5l-1 -2h-37h-30v1q-117 4 -181.5 27t-90.5 66.5t-26 116.5q0 40 10 82t28 79l80 -25q-19 -63 -19 -111q0 -41 19.5 -64.5t70 -35t146.5 -13.5q161 6 271 67v588l105 14v-541q0 -42 9 -65.5t34 -35
t72 -11.5zM397 340q31 7 31 20q0 12 -21.5 22t-88.5 23l14 71l169 100l-5 -78l-98 -53q54 -15 76 -35t22 -52q0 -93 -196 -93l-11 68q77 0 108 7z" />
    <glyph glyph-name="uniFEDC" unicode="&#x643;" horiz-adv-x="542" arabic-form="medial" 
d="M562 60l-20 -60q-91 0 -153.5 35.5t-124.5 127.5q-6 -72 -73.5 -117.5t-190.5 -45.5l-20 57l30 66q94 0 133 20.5t39 60.5q0 26 -17 59t-55 80l-73 89l24 106l403 231l-6 -117l-320 -180l166 -207q50 -63 82 -91.5t68.5 -39.5t98.5 -11z" />
    <glyph glyph-name="uniFEDB" unicode="&#x643;" horiz-adv-x="462" arabic-form="initial" 
d="M419 649l-292 -164q99 -48 151 -90.5t70.5 -83.5t18.5 -94q0 -102 -89.5 -159.5t-277.5 -57.5l-20 57l30 66q103 0 160 12.5t79 35.5t22 58q0 28 -18.5 53t-78 60.5t-176.5 86.5l24 110l404 230z" />
    <glyph glyph-name="uniFB8F" unicode="&#x6a9;" horiz-adv-x="996" arabic-form="final" 
d="M1016 60l-20 -60q-61 0 -107.5 15t-87.5 50t-84 98q-5 -72 -78.5 -120.5t-234.5 -56.5l-1 -2h-37h-30v1q-117 4 -181.5 27t-90.5 66.5t-26 116.5q0 40 10 82t28 79l80 -25q-19 -63 -19 -111q0 -41 20 -64.5t71.5 -35.5t149.5 -13q148 3 202.5 28.5t54.5 68.5q0 26 -17 59
t-55 80l-72 89l23 106l404 231l-7 -120l-317 -179l177 -222q45 -57 75 -82.5t64.5 -34t95.5 -8.5z" />
    <glyph glyph-name="uniFB91" unicode="&#x6a9;" horiz-adv-x="542" arabic-form="medial" 
d="M562 60l-20 -60q-91 0 -153.5 35.5t-124.5 127.5q-6 -72 -73.5 -117.5t-190.5 -45.5l-20 57l30 66q94 0 133 20.5t39 60.5q0 26 -17 59t-55 80l-73 89l24 106l403 231l-6 -117l-320 -180l166 -207q50 -63 82 -91.5t68.5 -39.5t98.5 -11z" />
    <glyph glyph-name="uniFB90" unicode="&#x6a9;" horiz-adv-x="462" arabic-form="initial" 
d="M419 649l-292 -164q99 -48 151 -90.5t70.5 -83.5t18.5 -94q0 -102 -89.5 -159.5t-277.5 -57.5l-20 57l30 66q103 0 160 12.5t79 35.5t22 58q0 28 -18.5 53t-78 60.5t-176.5 86.5l24 110l404 230z" />
    <glyph glyph-name="uni063B.init" unicode="&#x63b;" horiz-adv-x="462" 
d="M419 649l-292 -164q99 -48 151 -90.5t70.5 -83.5t18.5 -94q0 -102 -89.5 -159.5t-277.5 -57.5l-20 57l30 66q103 0 160 12.5t79 35.5t22 58q0 28 -18.5 53t-78 60.5t-176.5 86.5l24 110l404 230zM-57 738q-17 17 -17 41t17 41t40 17q24 0 41 -17t17 -41t-17 -41t-41 -17
q-23 0 -40 17zM103 738q-17 17 -17 41t17 41t41 17q23 0 40.5 -17t17.5 -41t-17.5 -41t-40.5 -17q-24 0 -41 17z" />
    <glyph glyph-name="uni063B.medi" unicode="&#x63b;" horiz-adv-x="542" 
d="M562 60l-20 -60q-91 0 -153.5 35.5t-124.5 127.5q-6 -72 -73.5 -117.5t-190.5 -45.5l-20 57l30 66q94 0 133 20.5t39 60.5q0 26 -17 59t-55 80l-73 89l24 106l403 231l-6 -117l-320 -180l166 -207q50 -63 82 -91.5t68.5 -39.5t98.5 -11zM-23 738q-17 17 -17 41t17 41
t40 17q24 0 41 -17t17 -41t-17 -41t-41 -17q-23 0 -40 17zM137 738q-17 17 -17 41t17 41t41 17q23 0 40.5 -17t17.5 -41t-17.5 -41t-40.5 -17q-24 0 -41 17z" />
    <glyph glyph-name="uni063B.fina" unicode="&#x63b;" horiz-adv-x="996" 
d="M1016 60l-20 -60q-61 0 -107.5 15t-87.5 50t-84 98q-5 -72 -78.5 -120.5t-234.5 -56.5l-1 -2h-37h-30v1q-117 4 -181.5 27t-90.5 66.5t-26 116.5q0 40 10 82t28 79l80 -25q-19 -63 -19 -111q0 -41 20 -64.5t71.5 -35.5t149.5 -13q148 3 202.5 28.5t54.5 68.5q0 26 -17 59
t-55 80l-72 89l23 106l404 231l-7 -120l-317 -179l177 -222q45 -57 75 -82.5t64.5 -34t95.5 -8.5zM425 738q-17 17 -17 41t17 41t40 17q24 0 41 -17t17 -41t-17 -41t-41 -17q-23 0 -40 17zM585 738q-17 17 -17 41t17 41t41 17q23 0 40.5 -17t17.5 -41t-17.5 -41t-40.5 -17
q-24 0 -41 17z" />
    <glyph glyph-name="uni063C.init" unicode="&#x63c;" horiz-adv-x="462" 
d="M419 649l-292 -164q99 -48 151 -90.5t70.5 -83.5t18.5 -94q0 -102 -89.5 -159.5t-277.5 -57.5l-20 57l30 66q103 0 160 12.5t79 35.5t22 58q0 28 -18.5 53t-78 60.5t-176.5 86.5l24 110l404 230zM71.5 -106.5q16.5 -16.5 16.5 -38.5q0 -24 -16.5 -40.5t-38.5 -16.5
q-24 0 -40.5 16.5t-16.5 40.5q0 23 16.5 39t40.5 16q22 0 38.5 -16.5zM245.5 -106q16.5 -16 16.5 -39q0 -24 -16.5 -40.5t-40.5 -16.5q-22 0 -38.5 16.5t-16.5 40.5q0 22 16.5 38.5t38.5 16.5q24 0 40.5 -16zM158 -234.5q16 -16.5 16 -39.5t-16 -39.5t-39 -16.5t-39 16.5
t-16 39.5t16 39.5t39 16.5t39 -16.5z" />
    <glyph glyph-name="uni063C.medi" unicode="&#x63c;" horiz-adv-x="542" 
d="M562 60l-20 -60q-91 0 -153.5 35.5t-124.5 127.5q-6 -72 -73.5 -117.5t-190.5 -45.5l-20 57l30 66q94 0 133 20.5t39 60.5q0 26 -17 59t-55 80l-73 89l24 106l403 231l-6 -117l-320 -180l166 -207q50 -63 82 -91.5t68.5 -39.5t98.5 -11zM240.5 -106.5
q16.5 -16.5 16.5 -38.5q0 -24 -16.5 -40.5t-38.5 -16.5q-24 0 -40.5 16.5t-16.5 40.5q0 23 16.5 39t40.5 16q22 0 38.5 -16.5zM414.5 -106q16.5 -16 16.5 -39q0 -24 -16.5 -40.5t-40.5 -16.5q-22 0 -38.5 16.5t-16.5 40.5q0 22 16.5 38.5t38.5 16.5q24 0 40.5 -16z
M327 -234.5q16 -16.5 16 -39.5t-16 -39.5t-39 -16.5t-39 16.5t-16 39.5t16 39.5t39 16.5t39 -16.5z" />
    <glyph glyph-name="uni063C.fina" unicode="&#x63c;" horiz-adv-x="996" 
d="M1016 60l-20 -60q-61 0 -107.5 15t-87.5 50t-84 98q-5 -72 -78.5 -120.5t-234.5 -56.5l-1 -2h-37h-30v1q-117 4 -181.5 27t-90.5 66.5t-26 116.5q0 40 10 82t28 79l80 -25q-19 -63 -19 -111q0 -41 20 -64.5t71.5 -35.5t149.5 -13q148 3 202.5 28.5t54.5 68.5q0 26 -17 59
t-55 80l-72 89l23 106l404 231l-7 -120l-317 -179l177 -222q45 -57 75 -82.5t64.5 -34t95.5 -8.5zM330.5 -106.5q16.5 -16.5 16.5 -38.5q0 -24 -16.5 -40.5t-38.5 -16.5q-24 0 -40.5 16.5t-16.5 40.5q0 23 16.5 39t40.5 16q22 0 38.5 -16.5zM504.5 -106q16.5 -16 16.5 -39
q0 -24 -16.5 -40.5t-40.5 -16.5q-22 0 -38.5 16.5t-16.5 40.5q0 22 16.5 38.5t38.5 16.5q24 0 40.5 -16zM417 -234.5q16 -16.5 16 -39.5t-16 -39.5t-39 -16.5t-39 16.5t-16 39.5t16 39.5t39 16.5t39 -16.5z" />
    <glyph glyph-name="uniFB93" unicode="&#x6af;" horiz-adv-x="993" arabic-form="final" 
d="M911 812l-395 -225l21 88l379 219zM1013 60l-20 -60q-91 0 -153.5 35.5t-124.5 127.5q-5 -71 -78 -119.5t-233 -57.5l-1 -2h-38h-31v1q-116 5 -180 28t-90 66.5t-26 115.5q0 40 10 82t28 79l80 -25q-19 -63 -19 -111q0 -41 19.5 -64.5t71 -35t149.5 -13.5q148 3 202 28.5
t54 68.5q0 26 -17 59t-55 80l-73 89l24 106l403 231l-6 -120l-318 -180l178 -221q46 -57 75.5 -82.5t63.5 -34t96 -8.5z" />
    <glyph glyph-name="uniFB95" unicode="&#x6af;" horiz-adv-x="542" arabic-form="medial" 
d="M453 812l-394 -225l21 88l378 219zM562 60l-20 -60q-91 0 -153.5 35.5t-124.5 127.5q-6 -72 -73.5 -117.5t-190.5 -45.5l-20 57l30 66q94 0 133 20.5t39 60.5q0 26 -17 59t-55 80l-73 89l24 106l403 231l-6 -117l-320 -180l166 -207q50 -63 82 -91.5t68.5 -39.5t98.5 -11
z" />
    <glyph glyph-name="uniFB94" unicode="&#x6af;" horiz-adv-x="464" arabic-form="initial" 
d="M420 812l-395 -225l21 88l379 219zM419 649l-292 -164q99 -48 151 -90.5t70.5 -83.5t18.5 -94q0 -102 -89.5 -159.5t-277.5 -57.5l-20 57l30 66q103 0 160 12.5t79 35.5t22 58q0 28 -18.5 53t-78 60.5t-176.5 86.5l24 110l404 230z" />
    <glyph glyph-name="uni06B0.init" unicode="&#x6b0;" horiz-adv-x="464" 
d="M420 812l-395 -225l21 88l379 219zM419 649l-54 -30q19 -12 30.5 -32t11.5 -45q0 -38 -26 -63.5t-66 -25.5q-38 0 -64 24.5t-28 61.5l-96 -54q99 -48 151 -90.5t70.5 -83.5t18.5 -94q0 -102 -89.5 -159.5t-277.5 -57.5l-20 57l30 66q103 0 160 12.5t79 35.5t22 58
q0 28 -18.5 53t-78 60.5t-176.5 86.5l24 110l404 230zM343 517.5q10 10.5 10 24.5q0 16 -10.5 25.5t-27.5 9.5t-27 -9.5t-10 -25.5q0 -14 10 -24.5t27 -10.5q18 0 28 10.5z" />
    <glyph glyph-name="uni06B0.medi" unicode="&#x6b0;" horiz-adv-x="542" 
d="M453 812l-394 -225l21 88l378 219zM562 60l-20 -60q-91 0 -153.5 35.5t-124.5 127.5q-6 -72 -73.5 -117.5t-190.5 -45.5l-20 57l30 66q94 0 133 20.5t39 60.5q0 26 -17 59t-55 80l-73 89l24 106l403 231l-6 -117l-57 -32q17 -12 27 -31.5t10 -42.5q0 -38 -26 -63.5
t-65 -25.5q-37 0 -63 23t-29 58l-117 -66l166 -207q50 -63 82 -91.5t68.5 -39.5t98.5 -11zM374 522q10 10 10 24q0 16 -10 25.5t-27 9.5t-27.5 -9.5t-10.5 -25.5q0 -14 10.5 -24t27.5 -10t27 10z" />
    <glyph glyph-name="uni06B0.fina" unicode="&#x6b0;" horiz-adv-x="993" 
d="M911 812l-395 -225l21 88l379 219zM1013 60l-20 -60q-91 0 -153.5 35.5t-124.5 127.5q-5 -71 -78 -119.5t-233 -57.5l-1 -2h-38h-31v1q-116 5 -180 28t-90 66.5t-26 115.5q0 40 10 82t28 79l80 -25q-19 -63 -19 -111q0 -41 19.5 -64.5t71 -35t149.5 -13.5q148 3 202 28.5
t54 68.5q0 26 -17 59t-55 80l-73 89l24 106l403 231l-6 -120l-57 -32q18 -12 28 -31.5t10 -42.5q0 -39 -26 -64.5t-66 -25.5q-37 0 -62.5 23.5t-29.5 58.5l-115 -66l178 -221q46 -57 75.5 -82.5t63.5 -34t96 -8.5zM826 518.5q10 10.5 10 24.5q0 15 -10.5 25t-27.5 10
q-16 0 -26.5 -10t-10.5 -25q0 -14 10 -24.5t27 -10.5q18 0 28 10.5z" />
    <glyph glyph-name="uni06B4.init" unicode="&#x6b4;" horiz-adv-x="464" 
d="M420 812l-395 -225l21 88l379 219zM419 649l-292 -164q99 -48 151 -90.5t70.5 -83.5t18.5 -94q0 -102 -89.5 -159.5t-277.5 -57.5l-20 57l30 66q103 0 160 12.5t79 35.5t22 58q0 28 -18.5 53t-78 60.5t-176.5 86.5l24 110l404 230zM-7 924.5q-16 16.5 -16 39.5t16 39.5
t39 16.5t39 -16.5t16 -39.5t-16 -39.5t-39 -16.5t-39 16.5zM-94.5 796q-16.5 16 -16.5 39t16.5 39.5t40.5 16.5q22 0 38.5 -16.5t16.5 -39.5q0 -22 -16.5 -38.5t-38.5 -16.5q-24 0 -40.5 16zM79.5 796.5q-16.5 16.5 -16.5 38.5q0 23 16.5 39.5t38.5 16.5q24 0 40.5 -16.5
t16.5 -39.5t-16.5 -39t-40.5 -16q-22 0 -38.5 16.5z" />
    <glyph glyph-name="uni06B4.medi" unicode="&#x6b4;" horiz-adv-x="542" 
d="M453 812l-394 -225l21 88l378 219zM562 60l-20 -60q-91 0 -153.5 35.5t-124.5 127.5q-6 -72 -73.5 -117.5t-190.5 -45.5l-20 57l30 66q94 0 133 20.5t39 60.5q0 26 -17 59t-55 80l-73 89l24 106l403 231l-6 -117l-320 -180l166 -207q50 -63 82 -91.5t68.5 -39.5t98.5 -11
zM23 923.5q-16 16.5 -16 39.5t16 39.5t39 16.5t39 -16.5t16 -39.5t-16 -39.5t-39 -16.5t-39 16.5zM-64.5 795q-16.5 16 -16.5 39t16.5 39.5t40.5 16.5q22 0 38.5 -16.5t16.5 -39.5q0 -22 -16.5 -38.5t-38.5 -16.5q-24 0 -40.5 16zM109.5 795.5q-16.5 16.5 -16.5 38.5
q0 23 16.5 39.5t38.5 16.5q24 0 40.5 -16.5t16.5 -39.5t-16.5 -39t-40.5 -16q-22 0 -38.5 16.5z" />
    <glyph glyph-name="uni06B4.fina" unicode="&#x6b4;" horiz-adv-x="993" 
d="M911 812l-395 -225l21 88l379 219zM1013 60l-20 -60q-91 0 -153.5 35.5t-124.5 127.5q-5 -71 -78 -119.5t-233 -57.5l-1 -2h-38h-31v1q-116 5 -180 28t-90 66.5t-26 115.5q0 40 10 82t28 79l80 -25q-19 -63 -19 -111q0 -41 19.5 -64.5t71 -35t149.5 -13.5q148 3 202 28.5
t54 68.5q0 26 -17 59t-55 80l-73 89l24 106l403 231l-6 -120l-318 -180l178 -221q46 -57 75.5 -82.5t63.5 -34t96 -8.5zM483 924.5q-16 16.5 -16 39.5t16 39.5t39 16.5t39 -16.5t16 -39.5t-16 -39.5t-39 -16.5t-39 16.5zM395.5 796q-16.5 16 -16.5 39t16.5 39.5t40.5 16.5
q22 0 38.5 -16.5t16.5 -39.5q0 -22 -16.5 -38.5t-38.5 -16.5q-24 0 -40.5 16zM569.5 796.5q-16.5 16.5 -16.5 38.5q0 23 16.5 39.5t38.5 16.5q24 0 40.5 -16.5t16.5 -39.5t-16.5 -39t-40.5 -16q-22 0 -38.5 16.5z" />
    <glyph glyph-name="uni06AA.init" unicode="&#x6aa;" horiz-adv-x="1181" 
d="M1057 347.5q73 -43.5 73 -146.5q0 -40 -28 -74t-75 -55q-76 -33 -246 -52.5t-441 -19.5h-340l-20 63l25 60h313q280 0 439.5 13.5t217.5 32t58 38.5q0 32 -44 51.5t-144 19.5q-100 -1 -271 -13q-170 -12 -254 -12q-71 0 -134 5.5t-97 13.5l12 100q41 107 137.5 185
t231.5 104l-22 -118q-84 -20 -150.5 -63.5t-105.5 -106.5q69 -6 141 -6q96 0 268 12q164 12 244 12q139 0 212 -43.5z" />
    <glyph glyph-name="uni06AA.medi" unicode="&#x6aa;" horiz-adv-x="1248" 
d="M1268 59l-20 -59q-71 0 -115.5 29t-53.5 75q-19 -16 -52 -32q-76 -33 -246 -52.5t-441 -19.5h-340l-20 63l25 60h313q280 0 439.5 13.5t217.5 32t58 38.5q0 32 -44 51.5t-144 19.5q-100 -1 -271 -13q-170 -12 -254 -12q-71 0 -134 5.5t-97 13.5l12 100q41 107 137.5 185
t231.5 104l-22 -118q-84 -20 -150.5 -63.5t-105.5 -106.5q69 -6 141 -6q96 0 268 12q164 12 244 12q135 0 208 -41.5t77 -137.5q0 -52 28.5 -70.5t100.5 -18.5z" />
    <glyph glyph-name="uni06AA.fina" unicode="&#x6aa;" horiz-adv-x="1318" 
d="M1338 59l-20 -59q-71 0 -115.5 29t-53.5 75q-19 -16 -52 -32q-75 -33 -247 -52.5t-440 -19.5h-339l-36 123h353q281 0 440 13.5t217 32t58 38.5q0 32 -44 51.5t-144 19.5q-100 -1 -271 -13q-170 -12 -254 -12q-71 0 -134 5.5t-97 13.5l12 100q41 107 138 185t232 104
l-22 -118q-84 -20 -151 -63.5t-106 -106.5q69 -6 141 -6q96 0 268 12q164 12 244 12q135 0 208 -41.5t77 -137.5q0 -52 29 -70.5t100 -18.5z" />
    <glyph glyph-name="uni06AB.init" unicode="&#x6ab;" horiz-adv-x="464" 
d="M419 649l-54 -30q17 -12 27 -31t10 -42q0 -39 -26 -64.5t-66 -25.5q-37 0 -62.5 22.5t-28.5 57.5l-92 -51q99 -48 151 -90.5t70.5 -83.5t18.5 -94q0 -102 -89.5 -159.5t-277.5 -57.5l-20 57l30 66q103 0 160 12.5t79 35.5t22 58q0 28 -18.5 53t-78 60.5t-176.5 86.5
l24 110l404 230zM338 521.5q10 10.5 10 24.5q0 16 -10.5 25.5t-27.5 9.5t-27 -9.5t-10 -25.5q0 -14 10 -24.5t27 -10.5q18 0 28 10.5z" />
    <glyph glyph-name="uni06AB.medi" unicode="&#x6ab;" horiz-adv-x="542" 
d="M562 60l-20 -60q-91 0 -153.5 35.5t-124.5 127.5q-6 -72 -73.5 -117.5t-190.5 -45.5l-20 57l30 66q94 0 133 20.5t39 60.5q0 26 -17 59t-55 80l-73 89l24 106l403 231l-6 -117l-61 -35q16 -12 25.5 -30.5t9.5 -40.5q0 -39 -26 -64.5t-66 -25.5q-36 0 -61.5 22t-29.5 56
l-111 -62l166 -207q50 -63 82 -91.5t68.5 -39.5t98.5 -11zM330 580l-18 -10q-9 -9 -9 -24q0 -14 10 -24.5t27 -10.5t27.5 10.5t10.5 24.5q0 16 -10.5 25.5t-27.5 9.5q-7 0 -10 -1z" />
    <glyph glyph-name="uni06AB.fina" unicode="&#x6ab;" horiz-adv-x="996" 
d="M1016 60l-20 -60q-61 0 -107.5 15t-87.5 50t-84 98q-5 -72 -78.5 -120.5t-234.5 -56.5l-1 -2h-37h-30v1q-117 4 -181.5 27t-90.5 66.5t-26 116.5q0 40 10 82t28 79l80 -25q-19 -63 -19 -111q0 -41 20 -64.5t71.5 -35.5t149.5 -13q148 3 202.5 28.5t54.5 68.5q0 26 -17 59
t-55 80l-72 89l23 106l404 231l-7 -120l-61 -34q32 -27 32 -69q0 -39 -26 -64.5t-66 -25.5q-34 0 -59.5 21t-31.5 53l-105 -60l177 -222q45 -57 75 -82.5t64.5 -34t95.5 -8.5zM818 571.5q-10 9.5 -27 9.5l-35 -19q-3 -7 -3 -16q0 -14 10 -24.5t27 -10.5q18 0 28 10.5
t10 24.5q0 16 -10 25.5z" />
    <glyph glyph-name="uni06AC.init" unicode="&#x6ac;" horiz-adv-x="462" 
d="M419 649l-292 -164q99 -48 151 -90.5t70.5 -83.5t18.5 -94q0 -102 -89.5 -159.5t-277.5 -57.5l-20 57l30 66q103 0 160 12.5t79 35.5t22 58q0 28 -18.5 53t-78 60.5t-176.5 86.5l24 110l404 230zM18 722q-18 18 -18 44t18 44t44 18t44 -18t18 -44t-18 -44t-44 -18t-44 18
z" />
    <glyph glyph-name="uni06AC.medi" unicode="&#x6ac;" horiz-adv-x="542" 
d="M562 60l-20 -60q-91 0 -153.5 35.5t-124.5 127.5q-6 -72 -73.5 -117.5t-190.5 -45.5l-20 57l30 66q94 0 133 20.5t39 60.5q0 26 -17 59t-55 80l-73 89l24 106l403 231l-6 -117l-320 -180l166 -207q50 -63 82 -91.5t68.5 -39.5t98.5 -11zM52 722q-18 18 -18 44t18 44
t44 18t44 -18t18 -44t-18 -44t-44 -18t-44 18z" />
    <glyph glyph-name="uni06AC.fina" unicode="&#x6ac;" horiz-adv-x="854" 
d="M874 60l-20 -60q-56 0 -93.5 16t-66.5 56q-59 -38 -129 -59.5t-161 -26.5l-1 -2h-37h-30v1q-117 4 -181.5 27t-90.5 66.5t-26 116.5q0 40 10 82t28 79l80 -25q-19 -63 -19 -111q0 -41 19.5 -64.5t70 -35t146.5 -13.5q161 6 271 67v588l105 14v-541q0 -42 9 -65.5t34 -35
t72 -11.5zM397 340q31 7 31 20q0 12 -21.5 22t-88.5 23l14 71l169 100l-5 -78l-98 -53q54 -15 76 -35t22 -52q0 -93 -196 -93l-11 68q77 0 108 7zM651 855q-18 18 -18 44t18 44t44 18t44 -18t18 -44t-18 -44t-44 -18t-44 18z" />
    <glyph glyph-name="uni06AE.init" unicode="&#x6ae;" horiz-adv-x="462" 
d="M419 649l-292 -164q99 -48 151 -90.5t70.5 -83.5t18.5 -94q0 -102 -89.5 -159.5t-277.5 -57.5l-20 57l30 66q103 0 160 12.5t79 35.5t22 58q0 28 -18.5 53t-78 60.5t-176.5 86.5l24 110l404 230zM71.5 -106.5q16.5 -16.5 16.5 -38.5q0 -24 -16.5 -40.5t-38.5 -16.5
q-24 0 -40.5 16.5t-16.5 40.5q0 23 16.5 39t40.5 16q22 0 38.5 -16.5zM245.5 -106q16.5 -16 16.5 -39q0 -24 -16.5 -40.5t-40.5 -16.5q-22 0 -38.5 16.5t-16.5 40.5q0 22 16.5 38.5t38.5 16.5q24 0 40.5 -16zM158 -234.5q16 -16.5 16 -39.5t-16 -39.5t-39 -16.5t-39 16.5
t-16 39.5t16 39.5t39 16.5t39 -16.5z" />
    <glyph glyph-name="uni06AE.medi" unicode="&#x6ae;" horiz-adv-x="542" 
d="M562 60l-20 -60q-91 0 -153.5 35.5t-124.5 127.5q-6 -72 -73.5 -117.5t-190.5 -45.5l-20 57l30 66q94 0 133 20.5t39 60.5q0 26 -17 59t-55 80l-73 89l24 106l403 231l-6 -117l-320 -180l166 -207q50 -63 82 -91.5t68.5 -39.5t98.5 -11zM240.5 -106.5
q16.5 -16.5 16.5 -38.5q0 -24 -16.5 -40.5t-38.5 -16.5q-24 0 -40.5 16.5t-16.5 40.5q0 23 16.5 39t40.5 16q22 0 38.5 -16.5zM414.5 -106q16.5 -16 16.5 -39q0 -24 -16.5 -40.5t-40.5 -16.5q-22 0 -38.5 16.5t-16.5 40.5q0 22 16.5 38.5t38.5 16.5q24 0 40.5 -16z
M327 -234.5q16 -16.5 16 -39.5t-16 -39.5t-39 -16.5t-39 16.5t-16 39.5t16 39.5t39 16.5t39 -16.5z" />
    <glyph glyph-name="uni06AE.fina" unicode="&#x6ae;" horiz-adv-x="854" 
d="M874 60l-20 -60q-56 0 -93.5 16t-66.5 56q-59 -38 -129 -59.5t-161 -26.5l-1 -2h-37h-30v1q-117 4 -181.5 27t-90.5 66.5t-26 116.5q0 40 10 82t28 79l80 -25q-19 -63 -19 -111q0 -41 19.5 -64.5t70 -35t146.5 -13.5q161 6 271 67v588l105 14v-541q0 -42 9 -65.5t34 -35
t72 -11.5zM397 340q31 7 31 20q0 12 -21.5 22t-88.5 23l14 71l169 100l-5 -78l-98 -53q54 -15 76 -35t22 -52q0 -93 -196 -93l-11 68q77 0 108 7zM337.5 -106.5q16.5 -16.5 16.5 -38.5q0 -24 -16.5 -40.5t-38.5 -16.5q-24 0 -40.5 16.5t-16.5 40.5q0 23 16.5 39t40.5 16
q22 0 38.5 -16.5zM511.5 -106q16.5 -16 16.5 -39q0 -24 -16.5 -40.5t-40.5 -16.5q-22 0 -38.5 16.5t-16.5 40.5q0 22 16.5 38.5t38.5 16.5q24 0 40.5 -16zM424 -234.5q16 -16.5 16 -39.5t-16 -39.5t-39 -16.5t-39 16.5t-16 39.5t16 39.5t39 16.5t39 -16.5z" />
    <glyph glyph-name="uni06B2.init" unicode="&#x6b2;" horiz-adv-x="464" 
d="M420 812l-395 -225l21 88l379 219zM419 649l-292 -164q99 -48 151 -90.5t70.5 -83.5t18.5 -94q0 -102 -89.5 -159.5t-277.5 -57.5l-20 57l30 66q103 0 160 12.5t79 35.5t22 58q0 28 -18.5 53t-78 60.5t-176.5 86.5l24 110l404 230zM-2 -184q-17 17 -17 41t17 41t40 17
q24 0 41 -17t17 -41t-17 -41t-41 -17q-23 0 -40 17zM158 -184q-17 17 -17 41t17 41t41 17q23 0 40.5 -17t17.5 -41t-17.5 -41t-40.5 -17q-24 0 -41 17z" />
    <glyph glyph-name="uni06B2.medi" unicode="&#x6b2;" horiz-adv-x="542" 
d="M453 812l-394 -225l21 88l378 219zM562 60l-20 -60q-91 0 -153.5 35.5t-124.5 127.5q-6 -72 -73.5 -117.5t-190.5 -45.5l-20 57l30 66q94 0 133 20.5t39 60.5q0 26 -17 59t-55 80l-73 89l24 106l403 231l-6 -117l-320 -180l166 -207q50 -63 82 -91.5t68.5 -39.5t98.5 -11
zM167 -184q-17 17 -17 41t17 41t40 17q24 0 41 -17t17 -41t-17 -41t-41 -17q-23 0 -40 17zM327 -184q-17 17 -17 41t17 41t41 17q23 0 40.5 -17t17.5 -41t-17.5 -41t-40.5 -17q-24 0 -41 17z" />
    <glyph glyph-name="uni06B2.fina" unicode="&#x6b2;" horiz-adv-x="993" 
d="M911 812l-395 -225l21 88l379 219zM1013 60l-20 -60q-91 0 -153.5 35.5t-124.5 127.5q-5 -71 -78 -119.5t-233 -57.5l-1 -2h-38h-31v1q-116 5 -180 28t-90 66.5t-26 115.5q0 40 10 82t28 79l80 -25q-19 -63 -19 -111q0 -41 19.5 -64.5t71 -35t149.5 -13.5q148 3 202 28.5
t54 68.5q0 26 -17 59t-55 80l-73 89l24 106l403 231l-6 -120l-318 -180l178 -221q46 -57 75.5 -82.5t63.5 -34t96 -8.5zM255 -184q-17 17 -17 41t17 41t40 17q24 0 41 -17t17 -41t-17 -41t-41 -17q-23 0 -40 17zM415 -184q-17 17 -17 41t17 41t41 17q23 0 40.5 -17t17.5 -41
t-17.5 -41t-40.5 -17q-24 0 -41 17z" />
    <glyph glyph-name="uniFBD4" unicode="&#x6ad;" horiz-adv-x="854" arabic-form="final" 
d="M874 60l-20 -60q-56 0 -93.5 16t-66.5 56q-59 -38 -129 -59.5t-161 -26.5l-1 -2h-37h-30v1q-117 4 -181.5 27t-90.5 66.5t-26 116.5q0 40 10 82t28 79l80 -25q-19 -63 -19 -111q0 -41 19.5 -64.5t70 -35t146.5 -13.5q161 6 271 67v588l105 14v-541q0 -42 9 -65.5t34 -35
t72 -11.5zM397 340q31 7 31 20q0 12 -21.5 22t-88.5 23l14 71l169 100l-5 -78l-98 -53q54 -15 76 -35t22 -52q0 -93 -196 -93l-11 68q77 0 108 7zM658 984.5q-16 16.5 -16 39.5t16 39.5t39 16.5t39 -16.5t16 -39.5t-16 -39.5t-39 -16.5t-39 16.5zM570.5 856
q-16.5 16 -16.5 39t16.5 39.5t40.5 16.5q22 0 38.5 -16.5t16.5 -39.5q0 -22 -16.5 -38.5t-38.5 -16.5q-24 0 -40.5 16zM744.5 856.5q-16.5 16.5 -16.5 38.5q0 23 16.5 39.5t38.5 16.5q24 0 40.5 -16.5t16.5 -39.5t-16.5 -39t-40.5 -16q-22 0 -38.5 16.5z" />
    <glyph glyph-name="uniFBD6" unicode="&#x6ad;" horiz-adv-x="542" arabic-form="medial" 
d="M562 60l-20 -60q-91 0 -153.5 35.5t-124.5 127.5q-6 -72 -73.5 -117.5t-190.5 -45.5l-20 57l30 66q94 0 133 20.5t39 60.5q0 26 -17 59t-55 80l-73 89l24 106l403 231l-6 -117l-320 -180l166 -207q50 -63 82 -91.5t68.5 -39.5t98.5 -11zM59 851.5q-16 16.5 -16 39.5
t16 39.5t39 16.5t39 -16.5t16 -39.5t-16 -39.5t-39 -16.5t-39 16.5zM-28.5 723q-16.5 16 -16.5 39t16.5 39.5t40.5 16.5q22 0 38.5 -16.5t16.5 -39.5q0 -22 -16.5 -38.5t-38.5 -16.5q-24 0 -40.5 16zM145.5 723.5q-16.5 16.5 -16.5 38.5q0 23 16.5 39.5t38.5 16.5
q24 0 40.5 -16.5t16.5 -39.5t-16.5 -39t-40.5 -16q-22 0 -38.5 16.5z" />
    <glyph glyph-name="uniFBD5" unicode="&#x6ad;" horiz-adv-x="462" arabic-form="initial" 
d="M419 649l-292 -164q99 -48 151 -90.5t70.5 -83.5t18.5 -94q0 -102 -89.5 -159.5t-277.5 -57.5l-20 57l30 66q103 0 160 12.5t79 35.5t22 58q0 28 -18.5 53t-78 60.5t-176.5 86.5l24 110l404 230zM25 851.5q-16 16.5 -16 39.5t16 39.5t39 16.5t39 -16.5t16 -39.5
t-16 -39.5t-39 -16.5t-39 16.5zM-62.5 723q-16.5 16 -16.5 39t16.5 39.5t40.5 16.5q22 0 38.5 -16.5t16.5 -39.5q0 -22 -16.5 -38.5t-38.5 -16.5q-24 0 -40.5 16zM111.5 723.5q-16.5 16.5 -16.5 38.5q0 23 16.5 39.5t38.5 16.5q24 0 40.5 -16.5t16.5 -39.5t-16.5 -39
t-40.5 -16q-22 0 -38.5 16.5z" />
    <glyph glyph-name="uniFB9B" unicode="&#x6b1;" horiz-adv-x="993" arabic-form="final" 
d="M911 812l-395 -225l21 88l379 219zM1013 60l-20 -60q-91 0 -153.5 35.5t-124.5 127.5q-5 -71 -78 -119.5t-233 -57.5l-1 -2h-38h-31v1q-116 5 -180 28t-90 66.5t-26 115.5q0 40 10 82t28 79l80 -25q-19 -63 -19 -111q0 -41 19.5 -64.5t71 -35t149.5 -13.5q148 3 202 28.5
t54 68.5q0 26 -17 59t-55 80l-73 89l24 106l403 231l-6 -120l-318 -180l178 -221q46 -57 75.5 -82.5t63.5 -34t96 -8.5zM401 811q-17 17 -17 41t17 41t40 17q24 0 41 -17t17 -41t-17 -41t-41 -17q-23 0 -40 17zM561 811q-17 17 -17 41t17 41t41 17q23 0 40.5 -17t17.5 -41
t-17.5 -41t-40.5 -17q-24 0 -41 17z" />
    <glyph glyph-name="uniFB9D" unicode="&#x6b1;" horiz-adv-x="542" arabic-form="medial" 
d="M453 812l-394 -225l21 88l378 219zM562 60l-20 -60q-91 0 -153.5 35.5t-124.5 127.5q-6 -72 -73.5 -117.5t-190.5 -45.5l-20 57l30 66q94 0 133 20.5t39 60.5q0 26 -17 59t-55 80l-73 89l24 106l403 231l-6 -117l-320 -180l166 -207q50 -63 82 -91.5t68.5 -39.5t98.5 -11
zM-59 810q-17 17 -17 41t17 41t40 17q24 0 41 -17t17 -41t-17 -41t-41 -17q-23 0 -40 17zM101 810q-17 17 -17 41t17 41t41 17q23 0 40.5 -17t17.5 -41t-17.5 -41t-40.5 -17q-24 0 -41 17z" />
    <glyph glyph-name="uniFB9C" unicode="&#x6b1;" horiz-adv-x="464" arabic-form="initial" 
d="M420 812l-395 -225l21 88l379 219zM419 649l-292 -164q99 -48 151 -90.5t70.5 -83.5t18.5 -94q0 -102 -89.5 -159.5t-277.5 -57.5l-20 57l30 66q103 0 160 12.5t79 35.5t22 58q0 28 -18.5 53t-78 60.5t-176.5 86.5l24 110l404 230zM-89 811q-17 17 -17 41t17 41t40 17
q24 0 41 -17t17 -41t-17 -41t-41 -17q-23 0 -40 17zM71 811q-17 17 -17 41t17 41t41 17q23 0 40.5 -17t17.5 -41t-17.5 -41t-40.5 -17q-24 0 -41 17z" />
    <glyph glyph-name="uniFB97" unicode="&#x6b3;" horiz-adv-x="993" arabic-form="final" 
d="M911 812l-395 -225l21 88l379 219zM1013 60l-20 -60q-91 0 -153.5 35.5t-124.5 127.5q-5 -71 -78 -119.5t-233 -57.5l-1 -2h-38h-31v1q-116 5 -180 28t-90 66.5t-26 115.5q0 40 10 82t28 79l80 -25q-19 -63 -19 -111q0 -41 19.5 -64.5t71 -35t149.5 -13.5q148 3 202 28.5
t54 68.5q0 26 -17 59t-55 80l-73 89l24 106l403 231l-6 -120l-318 -180l178 -221q46 -57 75.5 -82.5t63.5 -34t96 -8.5zM335 -173q-17 17 -17 41t17 40.5t41 16.5t41 -16.5t17 -40.5t-17 -41t-41 -17t-41 17zM335.5 -327.5q-16.5 16.5 -16.5 41.5q0 24 16.5 41t41.5 17
q23 0 40.5 -17t17.5 -41t-17 -41t-41 -17q-25 0 -41.5 16.5z" />
    <glyph glyph-name="uniFB99" unicode="&#x6b3;" horiz-adv-x="542" arabic-form="medial" 
d="M453 812l-394 -225l21 88l378 219zM562 60l-20 -60q-91 0 -153.5 35.5t-124.5 127.5q-6 -72 -73.5 -117.5t-190.5 -45.5l-20 57l30 66q94 0 133 20.5t39 60.5q0 26 -17 59t-55 80l-73 89l24 106l403 231l-6 -117l-320 -180l166 -207q50 -63 82 -91.5t68.5 -39.5t98.5 -11
zM247 -173q-17 17 -17 41t17 40.5t41 16.5t41 -16.5t17 -40.5t-17 -41t-41 -17t-41 17zM247.5 -327.5q-16.5 16.5 -16.5 41.5q0 24 16.5 41t41.5 17q23 0 40.5 -17t17.5 -41t-17 -41t-41 -17q-25 0 -41.5 16.5z" />
    <glyph glyph-name="uniFB98" unicode="&#x6b3;" horiz-adv-x="464" arabic-form="initial" 
d="M420 812l-395 -225l21 88l379 219zM419 649l-292 -164q99 -48 151 -90.5t70.5 -83.5t18.5 -94q0 -102 -89.5 -159.5t-277.5 -57.5l-20 57l30 66q103 0 160 12.5t79 35.5t22 58q0 28 -18.5 53t-78 60.5t-176.5 86.5l24 110l404 230zM78 -173q-17 17 -17 41t17 40.5
t41 16.5t41 -16.5t17 -40.5t-17 -41t-41 -17t-41 17zM78.5 -327.5q-16.5 16.5 -16.5 41.5q0 24 16.5 41t41.5 17q23 0 40.5 -17t17.5 -41t-17 -41t-41 -17q-25 0 -41.5 16.5z" />
    <glyph glyph-name="uniFEDE" unicode="&#x644;" horiz-adv-x="712" arabic-form="final" 
d="M712 0q-52 0 -87 27q-17 -130 -95 -187.5t-218 -57.5q-137 0 -203.5 67t-66.5 188q0 102 51 202l80 -24q-27 -73 -27 -159q0 -70 42 -110.5t134 -40.5q75 0 119 19t64 61t20 114v661l105 13v-562q0 -52 21 -70t71 -18l10 -64z" />
    <glyph glyph-name="uniFEE0" unicode="&#x644;" horiz-adv-x="261" arabic-form="medial" 
d="M281 58l-20 -58q-87 0 -130 59q-23 -34 -54.5 -46.5t-76.5 -12.5l-20 57l30 66q32 0 46.5 8t18.5 24.5t4 51.5v553l104 14v-566q0 -47 19.5 -66t68.5 -19z" />
    <glyph glyph-name="uniFEDF" unicode="&#x644;" horiz-adv-x="254" arabic-form="initial" 
d="M-20 57l30 66q42 0 60 21.5t18 78.5v537l105 13v-552q0 -82 -19.5 -130t-61.5 -69.5t-112 -21.5z" />
    <glyph glyph-name="uni06B5.init" unicode="&#x6b5;" horiz-adv-x="254" 
d="M-20 57l30 66q42 0 60 21.5t18 78.5v537l105 13v-552q0 -82 -19.5 -130t-61.5 -69.5t-112 -21.5zM141 895l51 85l58 -24l-80 -143h-60l-78 143l58 24z" />
    <glyph glyph-name="uni06B5.medi" unicode="&#x6b5;" horiz-adv-x="261" 
d="M281 58l-20 -58q-87 0 -130 59q-23 -34 -54.5 -46.5t-76.5 -12.5l-20 57l30 66q32 0 46.5 8t18.5 24.5t4 51.5v553l104 14v-566q0 -47 19.5 -66t68.5 -19zM131 892l51 85l58 -24l-80 -143h-60l-78 143l58 24z" />
    <glyph glyph-name="uni06B5.fina" unicode="&#x6b5;" horiz-adv-x="712" 
d="M712 0q-52 0 -87 27q-17 -130 -95 -187.5t-218 -57.5q-137 0 -203.5 67t-66.5 188q0 102 51 202l80 -24q-27 -73 -27 -159q0 -70 42 -110.5t134 -40.5q75 0 119 19t64 61t20 114v661l105 13v-562q0 -52 21 -70t71 -18l10 -64zM578 892l51 85l58 -24l-80 -143h-60l-78 143
l58 24z" />
    <glyph glyph-name="uni06B6.init" unicode="&#x6b6;" horiz-adv-x="254" 
d="M-20 57l30 66q42 0 60 21.5t18 78.5v537l105 13v-552q0 -82 -19.5 -130t-61.5 -69.5t-112 -21.5zM95 858q-18 18 -18 44t18 44t44 18t44 -18t18 -44t-18 -44t-44 -18t-44 18z" />
    <glyph glyph-name="uni06B6.medi" unicode="&#x6b6;" horiz-adv-x="261" 
d="M281 58l-20 -58q-87 0 -130 59q-23 -34 -54.5 -46.5t-76.5 -12.5l-20 57l30 66q32 0 46.5 8t18.5 24.5t4 51.5v553l104 14v-566q0 -47 19.5 -66t68.5 -19zM85 855q-18 18 -18 44t18 44t44 18t44 -18t18 -44t-18 -44t-44 -18t-44 18z" />
    <glyph glyph-name="uni06B6.fina" unicode="&#x6b6;" horiz-adv-x="712" 
d="M712 0q-52 0 -87 27q-17 -130 -95 -187.5t-218 -57.5q-137 0 -203.5 67t-66.5 188q0 102 51 202l80 -24q-27 -73 -27 -159q0 -70 42 -110.5t134 -40.5q75 0 119 19t64 61t20 114v661l105 13v-562q0 -52 21 -70t71 -18l10 -64zM532 855q-18 18 -18 44t18 44t44 18t44 -18
t18 -44t-18 -44t-44 -18t-44 18z" />
    <glyph glyph-name="uni06B7.init" unicode="&#x6b7;" horiz-adv-x="254" 
d="M-20 57l30 66q42 0 60 21.5t18 78.5v537l105 13v-552q0 -82 -19.5 -130t-61.5 -69.5t-112 -21.5zM102 987.5q-16 16.5 -16 39.5t16 39.5t39 16.5t39 -16.5t16 -39.5t-16 -39.5t-39 -16.5t-39 16.5zM14.5 859q-16.5 16 -16.5 39t16.5 39.5t40.5 16.5q22 0 38.5 -16.5
t16.5 -39.5q0 -22 -16.5 -38.5t-38.5 -16.5q-24 0 -40.5 16zM188.5 859.5q-16.5 16.5 -16.5 38.5q0 23 16.5 39.5t38.5 16.5q24 0 40.5 -16.5t16.5 -39.5t-16.5 -39t-40.5 -16q-22 0 -38.5 16.5z" />
    <glyph glyph-name="uni06B7.medi" unicode="&#x6b7;" horiz-adv-x="261" 
d="M281 58l-20 -58q-87 0 -130 59q-23 -34 -54.5 -46.5t-76.5 -12.5l-20 57l30 66q32 0 46.5 8t18.5 24.5t4 51.5v553l104 14v-566q0 -47 19.5 -66t68.5 -19zM92 984.5q-16 16.5 -16 39.5t16 39.5t39 16.5t39 -16.5t16 -39.5t-16 -39.5t-39 -16.5t-39 16.5zM4.5 856
q-16.5 16 -16.5 39t16.5 39.5t40.5 16.5q22 0 38.5 -16.5t16.5 -39.5q0 -22 -16.5 -38.5t-38.5 -16.5q-24 0 -40.5 16zM178.5 856.5q-16.5 16.5 -16.5 38.5q0 23 16.5 39.5t38.5 16.5q24 0 40.5 -16.5t16.5 -39.5t-16.5 -39t-40.5 -16q-22 0 -38.5 16.5z" />
    <glyph glyph-name="uni06B7.fina" unicode="&#x6b7;" horiz-adv-x="712" 
d="M712 0q-52 0 -87 27q-17 -130 -95 -187.5t-218 -57.5q-137 0 -203.5 67t-66.5 188q0 102 51 202l80 -24q-27 -73 -27 -159q0 -70 42 -110.5t134 -40.5q75 0 119 19t64 61t20 114v661l105 13v-562q0 -52 21 -70t71 -18l10 -64zM539 984.5q-16 16.5 -16 39.5t16 39.5
t39 16.5t39 -16.5t16 -39.5t-16 -39.5t-39 -16.5t-39 16.5zM451.5 856q-16.5 16 -16.5 39t16.5 39.5t40.5 16.5q22 0 38.5 -16.5t16.5 -39.5q0 -22 -16.5 -38.5t-38.5 -16.5q-24 0 -40.5 16zM625.5 856.5q-16.5 16.5 -16.5 38.5q0 23 16.5 39.5t38.5 16.5q24 0 40.5 -16.5
t16.5 -39.5t-16.5 -39t-40.5 -16q-22 0 -38.5 16.5z" />
    <glyph glyph-name="uni06B8.init" unicode="&#x6b8;" horiz-adv-x="254" 
d="M-20 57l30 66q42 0 60 21.5t18 78.5v537l105 13v-552q0 -82 -19.5 -130t-61.5 -69.5t-112 -21.5zM91.5 -106.5q16.5 -16.5 16.5 -38.5q0 -24 -16.5 -40.5t-38.5 -16.5q-24 0 -40.5 16.5t-16.5 40.5q0 23 16.5 39t40.5 16q22 0 38.5 -16.5zM265.5 -106q16.5 -16 16.5 -39
q0 -24 -16.5 -40.5t-40.5 -16.5q-22 0 -38.5 16.5t-16.5 40.5q0 22 16.5 38.5t38.5 16.5q24 0 40.5 -16zM178 -234.5q16 -16.5 16 -39.5t-16 -39.5t-39 -16.5t-39 16.5t-16 39.5t16 39.5t39 16.5t39 -16.5z" />
    <glyph glyph-name="uni06B8.medi" unicode="&#x6b8;" horiz-adv-x="261" 
d="M281 58l-20 -58q-87 0 -130 59q-23 -34 -54.5 -46.5t-76.5 -12.5l-20 57l30 66q32 0 46.5 8t18.5 24.5t4 51.5v553l104 14v-566q0 -47 19.5 -66t68.5 -19zM82.5 -106.5q16.5 -16.5 16.5 -38.5q0 -24 -16.5 -40.5t-38.5 -16.5q-24 0 -40.5 16.5t-16.5 40.5q0 23 16.5 39
t40.5 16q22 0 38.5 -16.5zM256.5 -106q16.5 -16 16.5 -39q0 -24 -16.5 -40.5t-40.5 -16.5q-22 0 -38.5 16.5t-16.5 40.5q0 22 16.5 38.5t38.5 16.5q24 0 40.5 -16zM169 -234.5q16 -16.5 16 -39.5t-16 -39.5t-39 -16.5t-39 16.5t-16 39.5t16 39.5t39 16.5t39 -16.5z" />
    <glyph glyph-name="uni06B8.fina" unicode="&#x6b8;" horiz-adv-x="712" 
d="M712 0q-52 0 -87 27q-17 -130 -95 -187.5t-218 -57.5q-137 0 -203.5 67t-66.5 188q0 102 51 202l80 -24q-27 -73 -27 -159q0 -70 42 -110.5t134 -40.5q75 0 119 19t64 61t20 114v661l105 13v-562q0 -52 21 -70t71 -18l10 -64zM264.5 -322.5q16.5 -16.5 16.5 -38.5
q0 -24 -16.5 -40.5t-38.5 -16.5q-24 0 -40.5 16.5t-16.5 40.5q0 23 16.5 39t40.5 16q22 0 38.5 -16.5zM438.5 -322q16.5 -16 16.5 -39q0 -24 -16.5 -40.5t-40.5 -16.5q-22 0 -38.5 16.5t-16.5 40.5q0 22 16.5 38.5t38.5 16.5q24 0 40.5 -16zM351 -450.5q16 -16.5 16 -39.5
t-16 -39.5t-39 -16.5t-39 16.5t-16 39.5t16 39.5t39 16.5t39 -16.5z" />
    <glyph glyph-name="uniFEE2" unicode="&#x645;" horiz-adv-x="721" arabic-form="final" 
d="M741 59l-20 -59q-43 0 -75 15.5t-51 42.5q-20 -36 -49.5 -55t-67.5 -19q-51 0 -96.5 21t-103.5 58q-31 20 -48.5 29t-29.5 9q-31 0 -40.5 -27.5t-9.5 -75.5q0 -98 46 -330l-119 -18q-17 103 -26 180t-9 156q0 111 32 180t103 69q17 0 38 -8q54 116 109.5 167t129.5 51
q48 0 87 -28.5t62.5 -81.5t23.5 -124q0 -52 24 -70t81 -18zM514 133q20 28 20 79q0 55 -26 83t-68 28q-40 0 -72 -33t-71 -112q51 -35 87.5 -54t75.5 -19q34 0 54 28z" />
    <glyph glyph-name="uniFEE4" unicode="&#x645;" horiz-adv-x="635" arabic-form="medial" 
d="M655 59l-20 -59q-42 0 -74 15.5t-51 41.5q-40 -73 -118 -73q-53 0 -110 25t-121 71q-53 -80 -144 -80h-17l-20 56l30 67h16q30 0 51.5 19.5t49.5 78.5q39 84 74.5 132.5t74.5 70t90 21.5q49 0 88.5 -29.5t63 -82.5t23.5 -122q0 -52 23.5 -70t80.5 -18zM428.5 134.5
q19.5 29.5 19.5 76.5q0 54 -26 83.5t-69 29.5q-27 0 -49 -12.5t-45 -44.5t-52 -92q106 -70 169 -70q33 0 52.5 29.5z" />
    <glyph glyph-name="uniFEE3" unicode="&#x645;" horiz-adv-x="592" arabic-form="initial" 
d="M455 415.5q40 -29.5 63 -83.5t23 -124q0 -105 -39.5 -164.5t-109.5 -59.5q-53 0 -110 25t-121 71q-53 -80 -144 -80h-17l-20 56l30 67h16q30 0 51.5 19.5t49.5 78.5q39 84 74.5 132.5t74.5 70t90 21.5q49 0 89 -29.5zM428.5 134.5q19.5 29.5 19.5 76.5q0 54 -26 83.5
t-69 29.5q-27 0 -49 -12.5t-45 -44.5t-52 -92q106 -70 169 -70q33 0 52.5 29.5z" />
    <glyph glyph-name="uniFEE6" unicode="&#x646;" horiz-adv-x="731" arabic-form="final" 
d="M731 0q-59 0 -97 32q-4 -111 -43 -175t-108 -90t-171 -26h-1q-137 0 -203 66.5t-66 187.5q0 104 51 202l80 -24q-27 -73 -27 -158q0 -71 42 -111.5t134 -40.5q76 0 121.5 18.5t66.5 58.5t21 108q0 58 -15.5 113t-48.5 126l115 46q7 -26 36 -106q21 -63 48.5 -83.5
t74.5 -20.5l10 -66zM275 351q-18 18 -18 44t18 44t44 18t44 -18t18 -44t-18 -44t-44 -18t-44 18z" />
    <glyph glyph-name="uniFEE8" unicode="&#x646;" horiz-adv-x="338" arabic-form="medial" 
d="M358 58l-20 -58q-64 0 -103.5 15t-64.5 55q-25 -40 -63.5 -55t-106.5 -15l-20 57l31 66q52 0 74 9.5t27 28t5 62.5v115h105v-114q0 -42 8.5 -62.5t35 -29.5t82.5 -9zM124 433q-18 18 -18 44t18 44t44 18t44 -18t18 -44t-18 -44t-44 -18t-44 18z" />
    <glyph glyph-name="uniFEE7" unicode="&#x646;" horiz-adv-x="306" arabic-form="initial" 
d="M99.5 129.5q29.5 6.5 40 22t10.5 46.5q0 59 -47 185l109 36q21 -61 32 -123.5t11 -109.5q0 -75 -23.5 -115t-77.5 -55.5t-154 -15.5l-20 57l30 66q60 0 89.5 6.5zM81 501q-18 18 -18 44t18 44t44 18t44 -18t18 -44t-18 -44t-44 -18t-44 18z" />
    <glyph glyph-name="uni06B9.init" unicode="&#x6b9;" horiz-adv-x="306" 
d="M99.5 129.5q29.5 6.5 40 22t10.5 46.5q0 59 -47 185l109 36q21 -61 32 -123.5t11 -109.5q0 -75 -23.5 -115t-77.5 -55.5t-154 -15.5l-20 57l30 66q60 0 89.5 6.5zM101 -196q-18 18 -18 44t18 44t44 18t44 -18t18 -44t-18 -44t-44 -18t-44 18zM81 501q-18 18 -18 44t18 44
t44 18t44 -18t18 -44t-18 -44t-44 -18t-44 18z" />
    <glyph glyph-name="uni06B9.medi" unicode="&#x6b9;" horiz-adv-x="338" 
d="M358 58l-20 -58q-64 0 -103.5 15t-64.5 55q-25 -40 -63.5 -55t-106.5 -15l-20 57l31 66q52 0 74 9.5t27 28t5 62.5v115h105v-114q0 -42 8.5 -62.5t35 -29.5t82.5 -9zM125 -196q-18 18 -18 44t18 44t44 18t44 -18t18 -44t-18 -44t-44 -18t-44 18zM124 433q-18 18 -18 44
t18 44t44 18t44 -18t18 -44t-18 -44t-44 -18t-44 18z" />
    <glyph glyph-name="uni06B9.fina" unicode="&#x6b9;" horiz-adv-x="731" 
d="M731 0q-59 0 -97 32q-4 -111 -43 -175t-108 -90t-171 -26h-1q-137 0 -203 66.5t-66 187.5q0 104 51 202l80 -24q-27 -73 -27 -158q0 -71 42 -111.5t134 -40.5q76 0 121.5 18.5t66.5 58.5t21 108q0 58 -15.5 113t-48.5 126l115 46q7 -26 36 -106q21 -63 48.5 -83.5
t74.5 -20.5l10 -66zM276 -442q-18 18 -18 44t18 44t44 18t44 -18t18 -44t-18 -44t-44 -18t-44 18zM275 351q-18 18 -18 44t18 44t44 18t44 -18t18 -44t-18 -44t-44 -18t-44 18z" />
    <glyph glyph-name="uniFB9F" unicode="&#x6ba;" horiz-adv-x="731" arabic-form="final" 
d="M731 0q-59 0 -97 32q-4 -111 -43 -175t-108 -90t-171 -26h-1q-137 0 -203 66.5t-66 187.5q0 104 51 202l80 -24q-27 -73 -27 -158q0 -71 42 -111.5t134 -40.5q76 0 121.5 18.5t66.5 58.5t21 108q0 58 -15.5 113t-48.5 126l115 46q7 -26 36 -106q21 -63 48.5 -83.5
t74.5 -20.5l10 -66z" />
    <glyph glyph-name="uniFBA1" unicode="&#x6bb;" horiz-adv-x="731" arabic-form="final" 
d="M731 0q-59 0 -97 32q-4 -111 -43 -175t-108 -90t-171 -26h-1q-137 0 -203 66.5t-66 187.5q0 104 51 202l80 -24q-27 -73 -27 -158q0 -71 42 -111.5t134 -40.5q76 0 121.5 18.5t66.5 58.5t21 108q0 58 -15.5 113t-48.5 126l115 46q7 -26 36 -106q21 -63 48.5 -83.5
t74.5 -20.5l10 -66zM425.5 489q21.5 -26 21.5 -65q0 -33 -24.5 -61t-76.5 -28h-155l7 59h32l2 4v151h58v-71q20 20 38 28.5t38 8.5q38 0 59.5 -26zM379.5 401.5q12.5 7.5 12.5 24.5q0 29 -32 29q-22 0 -44.5 -17t-43.5 -44h64q31 0 43.5 7.5z" />
    <glyph glyph-name="uniFBA3" unicode="&#x6bb;" horiz-adv-x="338" arabic-form="medial" 
d="M358 58l-20 -58q-64 0 -103.5 15t-64.5 55q-25 -40 -63.5 -55t-106.5 -15l-20 57l31 66q52 0 74 9.5t27 28t5 62.5v115h105v-114q0 -42 8.5 -62.5t35 -29.5t82.5 -9zM274.5 571q21.5 -26 21.5 -65q0 -33 -24.5 -61t-76.5 -28h-155l7 59h32l2 4v151h58v-71q20 20 38 28.5
t38 8.5q38 0 59.5 -26zM228.5 483.5q12.5 7.5 12.5 24.5q0 29 -32 29q-22 0 -44.5 -17t-43.5 -44h64q31 0 43.5 7.5z" />
    <glyph glyph-name="uniFBA2" unicode="&#x6bb;" horiz-adv-x="306" arabic-form="initial" 
d="M99.5 129.5q29.5 6.5 40 22t10.5 46.5q0 59 -47 185l109 36q21 -61 32 -123.5t11 -109.5q0 -75 -23.5 -115t-77.5 -55.5t-154 -15.5l-20 57l30 66q60 0 89.5 6.5zM231.5 639q21.5 -26 21.5 -65q0 -33 -24.5 -61t-76.5 -28h-155l7 59h32l2 4v151h58v-71q20 20 38 28.5
t38 8.5q38 0 59.5 -26zM185.5 551.5q12.5 7.5 12.5 24.5q0 29 -32 29q-22 0 -44.5 -17t-43.5 -44h64q31 0 43.5 7.5z" />
    <glyph glyph-name="uni06BC.init" unicode="&#x6bc;" horiz-adv-x="296" 
d="M80.5 501q-18.5 18 -18.5 44q0 27 18.5 45t44.5 18t44 -18t18 -45q0 -26 -18 -44t-44 -18t-44.5 18zM242 93.5q-13 -35.5 -42 -56.5q24 -26 24 -62q0 -38 -26 -63.5t-65 -25.5t-65.5 25.5t-26.5 63.5q0 15 4 26q-14 -1 -45 -1l-20 57l30 66q60 0 89.5 6.5t40 22
t10.5 46.5q0 59 -47 185l109 36q21 -61 32 -123.5t11 -109.5q0 -57 -13 -92.5zM131 10l-14 -3q-22 -8 -22 -32q0 -14 10.5 -24.5t27.5 -10.5t27 10.5t10 24.5q0 16 -10 25.5t-27 9.5h-2z" />
    <glyph glyph-name="uni06BC.medi" unicode="&#x6bc;" horiz-adv-x="342" 
d="M123.5 432.5q-18.5 18.5 -18.5 44.5t18.5 44t44.5 18t44 -18t18 -44t-18 -44.5t-44 -18.5t-44.5 18.5zM234.5 15q-39.5 15 -64.5 55q-2 -5 -10 -15q20 -12 31.5 -32t11.5 -45q0 -38 -26 -63.5t-66 -25.5q-39 0 -65.5 25.5t-26.5 63.5q0 11 3 22h-22l-20 57l31 66
q52 0 74 9.5t27 28t5 62.5v115h105v-114q0 -42 8.5 -62.5t35 -29.5t82.5 -9l10 -65l-20 -58q-64 0 -103.5 15zM139 -46.5q10 10.5 10 24.5q0 16 -10.5 25.5t-27.5 9.5t-27 -9.5t-10 -25.5q0 -14 10 -24.5t27 -10.5q18 0 28 10.5z" />
    <glyph glyph-name="uni06BC.fina" unicode="&#x6bc;" horiz-adv-x="718" 
d="M274.5 350.5q-18.5 18.5 -18.5 44.5t18.5 44t44.5 18t44 -18t18 -44t-18 -44.5t-44 -18.5t-44.5 18.5zM731 0q-59 0 -97 32q-6 -140 -66.5 -206.5t-174.5 -79.5q5 -17 5 -32q0 -39 -25.5 -64.5t-65.5 -25.5q-39 0 -65.5 26t-26.5 64q0 17 7 36q-92 20 -136 83t-44 162
q0 104 51 202l80 -24q-27 -73 -27 -158q0 -71 42 -111.5t134 -40.5q76 0 121.5 18.5t66.5 58.5t21 108q0 58 -15.5 113t-48.5 126l115 46q7 -26 36 -106q21 -63 48.5 -83.5t74.5 -20.5l10 -66zM331 -259h-19v0h-1q-19 0 -28 1q-14 -9 -14 -28q0 -14 10.5 -24.5t27.5 -10.5
t27 10.5t10 24.5q0 17 -13 27z" />
    <glyph glyph-name="uni06BD.init" unicode="&#x6bd;" horiz-adv-x="306" 
d="M99.5 129.5q29.5 6.5 40 22t10.5 46.5q0 59 -47 185l109 36q21 -61 32 -123.5t11 -109.5q0 -75 -23.5 -115t-77.5 -55.5t-154 -15.5l-20 57l30 66q60 0 89.5 6.5zM88 630.5q-16 16.5 -16 39.5t16 39.5t39 16.5t39 -16.5t16 -39.5t-16 -39.5t-39 -16.5t-39 16.5zM0.5 502
q-16.5 16 -16.5 39t16.5 39.5t40.5 16.5q22 0 38.5 -16.5t16.5 -39.5q0 -22 -16.5 -38.5t-38.5 -16.5q-24 0 -40.5 16zM174.5 502.5q-16.5 16.5 -16.5 38.5q0 23 16.5 39.5t38.5 16.5q24 0 40.5 -16.5t16.5 -39.5t-16.5 -39t-40.5 -16q-22 0 -38.5 16.5z" />
    <glyph glyph-name="uni06BD.medi" unicode="&#x6bd;" horiz-adv-x="338" 
d="M358 58l-20 -58q-64 0 -103.5 15t-64.5 55q-25 -40 -63.5 -55t-106.5 -15l-20 57l31 66q52 0 74 9.5t27 28t5 62.5v115h105v-114q0 -42 8.5 -62.5t35 -29.5t82.5 -9zM131 562.5q-16 16.5 -16 39.5t16 39.5t39 16.5t39 -16.5t16 -39.5t-16 -39.5t-39 -16.5t-39 16.5z
M43.5 434q-16.5 16 -16.5 39t16.5 39.5t40.5 16.5q22 0 38.5 -16.5t16.5 -39.5q0 -22 -16.5 -38.5t-38.5 -16.5q-24 0 -40.5 16zM217.5 434.5q-16.5 16.5 -16.5 38.5q0 23 16.5 39.5t38.5 16.5q24 0 40.5 -16.5t16.5 -39.5t-16.5 -39t-40.5 -16q-22 0 -38.5 16.5z" />
    <glyph glyph-name="uni06BD.fina" unicode="&#x6bd;" horiz-adv-x="731" 
d="M731 0q-59 0 -97 32q-4 -111 -43 -175t-108 -90t-171 -26h-1q-137 0 -203 66.5t-66 187.5q0 104 51 202l80 -24q-27 -73 -27 -158q0 -71 42 -111.5t134 -40.5q76 0 121.5 18.5t66.5 58.5t21 108q0 58 -15.5 113t-48.5 126l115 46q7 -26 36 -106q21 -63 48.5 -83.5
t74.5 -20.5l10 -66zM282 480.5q-16 16.5 -16 39.5t16 39.5t39 16.5t39 -16.5t16 -39.5t-16 -39.5t-39 -16.5t-39 16.5zM194.5 352q-16.5 16 -16.5 39t16.5 39.5t40.5 16.5q22 0 38.5 -16.5t16.5 -39.5q0 -22 -16.5 -38.5t-38.5 -16.5q-24 0 -40.5 16zM368.5 352.5
q-16.5 16.5 -16.5 38.5q0 23 16.5 39.5t38.5 16.5q24 0 40.5 -16.5t16.5 -39.5t-16.5 -39t-40.5 -16q-22 0 -38.5 16.5z" />
    <glyph glyph-name="uniFEEA" unicode="&#x647;" horiz-adv-x="518" arabic-form="final" 
d="M538 56l-20 -56h-28q-113 0 -150 94q-26 -31 -65.5 -48.5t-83.5 -17.5q-76 0 -122 43.5t-46 113.5q0 57 36.5 109t105.5 86.5t161 41.5v88l105 13v-305q0 -54 16.5 -74.5t53.5 -20.5h27zM144.5 155q21.5 -17 64.5 -17q66 0 117 47v131q-98 -4 -150.5 -37t-52.5 -78
q0 -29 21.5 -46z" />
    <glyph glyph-name="uniFEEC" unicode="&#x647;" horiz-adv-x="498" arabic-form="medial" 
d="M498 0h-103q71 -48 71 -132q0 -68 -43 -106.5t-108 -38.5q-63 0 -117.5 35t-89.5 98t-42 144h-66l-20 56l30 67h56q8 95 44.5 172.5t91.5 122.5t116 45q70 0 110.5 -43.5t40.5 -119.5q0 -48 -24 -96.5t-68 -80.5h131l10 -66zM239.5 318q-32.5 -26 -56.5 -76.5t-33 -118.5
h35q53 0 95.5 20.5t66.5 55t24 74.5q0 34 -17 52.5t-50 18.5q-32 0 -64.5 -26zM347 -142.5q17 16.5 17 43.5q0 45 -37.5 72t-102.5 27h-74q12 -77 52.5 -118t94.5 -41q33 0 50 16.5z" />
    <glyph glyph-name="uniFEEB" unicode="&#x647;" horiz-adv-x="646" arabic-form="initial" 
d="M440.5 390q89.5 -63 122 -109.5t32.5 -107.5q0 -48 -23.5 -91.5t-63.5 -70.5t-85 -27q-108 0 -199 47q-77 -31 -180 -31h-44l-20 56l30 67h57q17 0 47 2q-51 70 -51 150q0 52 23.5 95t64.5 66q-33 17 -59 33l61 103q198 -119 287.5 -182zM164 206q23 -32 64 -57
q45 18 69.5 49t24.5 74t-27 71t-66 28q-37 0 -62.5 -27t-25.5 -70q0 -36 23 -68zM483.5 116q21.5 17 21.5 45q0 27 -22.5 54t-82.5 69v-6q0 -49 -16 -92t-47 -78q41 -9 86 -9q39 0 60.5 17z" />
    <glyph glyph-name="uniFBA5" unicode="&#x6c0;" horiz-adv-x="518" arabic-form="final" 
d="M538 56l-20 -56h-28q-113 0 -150 94q-26 -31 -65.5 -48.5t-83.5 -17.5q-76 0 -122 43.5t-46 113.5q0 57 36.5 109t105.5 86.5t161 41.5v88l105 13v-305q0 -54 16.5 -74.5t53.5 -20.5h27zM144.5 155q21.5 -17 64.5 -17q66 0 117 47v131q-98 -4 -150.5 -37t-52.5 -78
q0 -29 21.5 -46zM490 603l-221 -35l-8 61l63 10q-38 34 -38 68q0 38 27.5 64t78.5 26q38 0 83 -25l-38 -59q-26 16 -47 16q-18 0 -26 -9t-8 -21q0 -22 31 -49l93 15z" />
    <glyph glyph-name="uniFBA7" unicode="&#x6c1;" horiz-adv-x="601" arabic-form="final" 
d="M23 -31q41 193 105 275t151 82q42 0 70 -13t46 -32.5t40 -52.5q23 -34 42.5 -55t52 -35.5t81.5 -14.5l10 -67l-20 -56q-76 0 -126 21.5t-76.5 50t-54.5 71.5q-19 31 -33.5 45.5t-34.5 14.5q-49 0 -80.5 -60t-63.5 -196z" />
    <glyph glyph-name="uniFBA9" unicode="&#x6c1;" horiz-adv-x="601" arabic-form="medial" 
d="M621 57l-20 -57h-33q-157 0 -157 -147q0 -52 20 -137l-94 -31q-151 170 -156 374q-27 -30 -63 -44.5t-85 -14.5h-33l-20 57l30 66h35q44 0 74.5 21t54 65t48.5 121l8 26l100 -28q-45 -152 -45 -238q0 -60 9 -104t34 -104v8q0 114 63 173.5t190 59.5h30z" />
    <glyph glyph-name="uniFBA8" unicode="&#x6c1;" horiz-adv-x="306" arabic-form="initial" 
d="M99.5 129.5q29.5 6.5 40 22t10.5 46.5q0 59 -47 185l109 36q21 -61 32 -123.5t11 -109.5q0 -75 -23.5 -115t-77.5 -55.5t-154 -15.5l-20 57l30 66q60 0 89.5 6.5zM88 -248q-19 18 -19 50q0 34 22 80l35 76h41l-14 -100q47 -13 47 -63q0 -26 -18 -43.5t-45 -17.5
q-30 0 -49 18z" />
    <glyph glyph-name="uni06C2.fina" unicode="&#x6c2;" horiz-adv-x="601" 
d="M23 -31q41 193 105 275t151 82q42 0 70 -13t46 -32.5t40 -52.5q23 -34 42.5 -55t52 -35.5t81.5 -14.5l10 -67l-20 -56q-76 0 -126 21.5t-76.5 50t-54.5 71.5q-19 31 -33.5 45.5t-34.5 14.5q-49 0 -80.5 -60t-63.5 -196zM391 403l-221 -35l-8 61l63 10q-38 34 -38 68
q0 38 27.5 64t78.5 26q38 0 83 -25l-38 -59q-26 16 -47 16q-18 0 -26 -9t-8 -21q0 -22 31 -49l93 15z" />
    <glyph glyph-name="uniFBAB" unicode="&#x6be;" horiz-adv-x="592" arabic-form="final" 
d="M592 0h-103q71 -47 71 -132q0 -68 -42.5 -106.5t-108.5 -38.5q-63 0 -117 35t-89 98t-42 145q-92 4 -143 36l50 108q38 -18 93 -21q8 94 44.5 172t91.5 122.5t116 44.5q70 0 110 -43.5t40 -119.5q0 -48 -24 -96.5t-67 -80.5h131l9 -66zM334 318q-32 -26 -56 -76t-33 -119
h35q53 0 95.5 20.5t66.5 55t24 74.5q0 34 -17.5 52.5t-50.5 18.5q-32 0 -64 -26zM441.5 -142.5q17.5 16.5 17.5 43.5q0 45 -38 72t-103 27h-73q11 -77 52 -118t94 -41q33 0 50.5 16.5z" />
    <glyph glyph-name="uniFBAD" unicode="&#x6be;" horiz-adv-x="498" arabic-form="medial" 
d="M498 0h-103q71 -48 71 -132q0 -68 -43 -106.5t-108 -38.5q-63 0 -117.5 35t-89.5 98t-42 144h-66l-20 56l30 67h56q8 95 44.5 172.5t91.5 122.5t116 45q70 0 110.5 -43.5t40.5 -119.5q0 -48 -24 -96.5t-68 -80.5h131l10 -66zM239.5 318q-32.5 -26 -56.5 -76.5t-33 -118.5
h35q53 0 95.5 20.5t66.5 55t24 74.5q0 34 -17 52.5t-50 18.5q-32 0 -64.5 -26zM347 -142.5q17 16.5 17 43.5q0 45 -37.5 72t-102.5 27h-74q12 -77 52.5 -118t94.5 -41q33 0 50 16.5z" />
    <glyph glyph-name="uniFBAC" unicode="&#x6be;" horiz-adv-x="646" arabic-form="initial" 
d="M440.5 390q89.5 -63 122 -109.5t32.5 -107.5q0 -48 -23.5 -91.5t-63.5 -70.5t-85 -27q-108 0 -199 47q-77 -31 -180 -31h-44l-20 56l30 67h57q17 0 47 2q-51 70 -51 150q0 52 23.5 95t64.5 66q-33 17 -59 33l61 103q198 -119 287.5 -182zM164 206q23 -32 64 -57
q45 18 69.5 49t24.5 74t-27 71t-66 28q-37 0 -62.5 -27t-25.5 -70q0 -36 23 -68zM483.5 116q21.5 17 21.5 45q0 27 -22.5 54t-82.5 69v-6q0 -49 -16 -92t-47 -78q41 -9 86 -9q39 0 60.5 17z" />
    <glyph glyph-name="uni06FF.init" unicode="&#x6ff;" horiz-adv-x="646" 
d="M440.5 390q89.5 -63 122 -109.5t32.5 -107.5q0 -48 -23.5 -91.5t-63.5 -70.5t-85 -27q-108 0 -199 47q-77 -31 -180 -31h-44l-20 56l30 67h57q17 0 47 2q-51 70 -51 150q0 52 23.5 95t64.5 66q-33 17 -59 33l61 103q198 -119 287.5 -182zM164 206q23 -32 64 -57
q45 18 69.5 49t24.5 74t-27 71t-66 28q-37 0 -62.5 -27t-25.5 -70q0 -36 23 -68zM483.5 116q21.5 17 21.5 45q0 27 -22.5 54t-82.5 69v-6q0 -49 -16 -92t-47 -78q41 -9 86 -9q39 0 60.5 17zM274 591l78 142h60l80 -142l-58 -24l-51 84l-51 -84z" />
    <glyph glyph-name="uni06FF.medi" unicode="&#x6ff;" horiz-adv-x="498" 
d="M498 0h-103q71 -48 71 -132q0 -68 -43 -106.5t-108 -38.5q-63 0 -117.5 35t-89.5 98t-42 144h-66l-20 56l30 67h56q8 95 44.5 172.5t91.5 122.5t116 45q70 0 110.5 -43.5t40.5 -119.5q0 -48 -24 -96.5t-68 -80.5h131l10 -66zM239.5 318q-32.5 -26 -56.5 -76.5t-33 -118.5
h35q53 0 95.5 20.5t66.5 55t24 74.5q0 34 -17 52.5t-50 18.5q-32 0 -64.5 -26zM347 -142.5q17 16.5 17 43.5q0 45 -37.5 72t-102.5 27h-74q12 -77 52.5 -118t94.5 -41q33 0 50 16.5zM209 555l78 142h60l80 -142l-58 -24l-51 84l-51 -84z" />
    <glyph glyph-name="uni06FF.fina" unicode="&#x6ff;" horiz-adv-x="592" 
d="M592 0h-103q71 -47 71 -132q0 -68 -42.5 -106.5t-108.5 -38.5q-63 0 -117 35t-89 98t-42 145q-92 4 -143 36l50 108q38 -18 93 -21q8 94 44.5 172t91.5 122.5t116 44.5q70 0 110 -43.5t40 -119.5q0 -48 -24 -96.5t-67 -80.5h131l9 -66zM334 318q-32 -26 -56 -76t-33 -119
h35q53 0 95.5 20.5t66.5 55t24 74.5q0 34 -17.5 52.5t-50.5 18.5q-32 0 -64 -26zM441.5 -142.5q17.5 16.5 17.5 43.5q0 45 -38 72t-103 27h-73q11 -77 52 -118t94 -41q33 0 50.5 16.5zM304 555l78 142h60l80 -142l-58 -24l-51 84l-51 -84z" />
    <glyph glyph-name="uniFE94" unicode="&#x629;" horiz-adv-x="518" arabic-form="final" 
d="M538 56l-20 -56h-28q-113 0 -150 94q-26 -31 -65.5 -48.5t-83.5 -17.5q-76 0 -122 43.5t-46 113.5q0 57 36.5 109t105.5 86.5t161 41.5v88l105 13v-305q0 -54 16.5 -74.5t53.5 -20.5h27zM144.5 155q21.5 -17 64.5 -17q66 0 117 47v131q-98 -4 -150.5 -37t-52.5 -78
q0 -29 21.5 -46zM257 627q-17 17 -17 41t17 41t40 17q24 0 41 -17t17 -41t-17 -41t-41 -17q-23 0 -40 17zM417 627q-17 17 -17 41t17 41t41 17q23 0 40.5 -17t17.5 -41t-17.5 -41t-40.5 -17q-24 0 -41 17z" />
    <glyph glyph-name="uni06C3.fina" unicode="&#x6c3;" horiz-adv-x="601" 
d="M23 -31q41 193 105 275t151 82q42 0 70 -13t46 -32.5t40 -52.5q23 -34 42.5 -55t52 -35.5t81.5 -14.5l10 -67l-20 -56q-76 0 -126 21.5t-76.5 50t-54.5 71.5q-19 31 -33.5 45.5t-34.5 14.5q-49 0 -80.5 -60t-63.5 -196zM158 427q-17 17 -17 41t17 41t40 17q24 0 41 -17
t17 -41t-17 -41t-41 -17q-23 0 -40 17zM318 427q-17 17 -17 41t17 41t41 17q23 0 40.5 -17t17.5 -41t-17.5 -41t-40.5 -17q-24 0 -41 17z" />
    <glyph glyph-name="uniFEEE" unicode="&#x648;" horiz-adv-x="545" arabic-form="final" 
d="M545 0h-95q-25 -109 -112.5 -173.5t-257.5 -103.5l-38 113q135 30 209 70t102 94h-65q-105 0 -163 51.5t-58 137.5q0 58 26 106.5t70.5 76.5t96.5 28q55 0 100 -31.5t72 -94t29 -151.5h94l10 -66zM371 118q-4 87 -34 128t-81 41q-43 0 -71 -25t-28 -64q0 -43 31.5 -63
t98.5 -20q45 0 84 3z" />
    <glyph glyph-name="uni06C4.fina" unicode="&#x6c4;" horiz-adv-x="545" 
d="M545 0h-95q-25 -109 -112.5 -173.5t-257.5 -103.5l-38 113q14 2 32 8q-20 22 -20 54q0 36 25 60t61 24q35 0 60 -24t25 -60v-5q96 44 128 107h-65q-105 0 -163 51.5t-58 137.5q0 58 26 106.5t70.5 76.5t96.5 28q55 0 100 -31.5t72 -94t29 -151.5h94l10 -66zM371 118
q-4 87 -34 128t-81 41q-43 0 -71 -25t-28 -64q0 -43 31.5 -63t98.5 -20q45 0 84 3zM114.5 -78.5q-9.5 -9.5 -9.5 -23.5q0 -13 9.5 -22.5t25.5 -9.5t25.5 9.5t9.5 22.5q0 14 -9.5 23.5t-25.5 9.5t-25.5 -9.5z" />
    <glyph glyph-name="uni06CA.fina" unicode="&#x6ca;" horiz-adv-x="545" 
d="M545 0h-95q-25 -109 -112.5 -173.5t-257.5 -103.5l-38 113q135 30 209 70t102 94h-65q-105 0 -163 51.5t-58 137.5q0 58 26 106.5t70.5 76.5t96.5 28q55 0 100 -31.5t72 -94t29 -151.5h94l10 -66zM371 118q-4 87 -34 128t-81 41q-43 0 -71 -25t-28 -64q0 -43 31.5 -63
t98.5 -20q45 0 84 3zM140 501q-17 17 -17 41t17 41t40 17q24 0 41 -17t17 -41t-17 -41t-41 -17q-23 0 -40 17zM300 501q-17 17 -17 41t17 41t41 17q23 0 40.5 -17t17.5 -41t-17.5 -41t-40.5 -17q-24 0 -41 17z" />
    <glyph glyph-name="uni06CF.fina" unicode="&#x6cf;" horiz-adv-x="545" 
d="M545 0h-95q-25 -109 -112.5 -173.5t-257.5 -103.5l-38 113q135 30 209 70t102 94h-65q-105 0 -163 51.5t-58 137.5q0 58 26 106.5t70.5 76.5t96.5 28q55 0 100 -31.5t72 -94t29 -151.5h94l10 -66zM371 118q-4 87 -34 128t-81 41q-43 0 -71 -25t-28 -64q0 -43 31.5 -63
t98.5 -20q45 0 84 3zM215 485q-18 18 -18 44t18 44t44 18t44 -18t18 -44t-18 -44t-44 -18t-44 18z" />
    <glyph glyph-name="uniFE86" unicode="&#x624;" horiz-adv-x="545" arabic-form="final" 
d="M545 0h-95q-25 -109 -112.5 -173.5t-257.5 -103.5l-38 113q135 30 209 70t102 94h-65q-105 0 -163 51.5t-58 137.5q0 58 26 106.5t70.5 76.5t96.5 28q55 0 100 -31.5t72 -94t29 -151.5h94l10 -66zM371 118q-4 87 -34 128t-81 41q-43 0 -71 -25t-28 -64q0 -43 31.5 -63
t98.5 -20q45 0 84 3zM373 477l-221 -35l-8 61l63 10q-38 34 -38 68q0 38 27.5 64t78.5 26q38 0 83 -25l-38 -59q-26 16 -47 16q-18 0 -26 -9t-8 -21q0 -22 31 -49l93 15z" />
    <glyph glyph-name="uniFBE1" unicode="&#x6c5;" horiz-adv-x="545" arabic-form="final" 
d="M545 0h-95q-25 -109 -112.5 -173.5t-257.5 -103.5l-38 113q109 24 185 58l-155 4l-35 57l270 -11q30 24 46 56h-65q-105 0 -163 51.5t-58 137.5q0 58 26 106.5t70.5 76.5t96.5 28q55 0 100 -31.5t72 -94t29 -151.5h94l10 -66zM371 118q-4 87 -34 128t-81 41
q-43 0 -71 -25t-28 -64q0 -43 31.5 -63t98.5 -20q45 0 84 3z" />
    <glyph glyph-name="uniFBDA" unicode="&#x6c6;" horiz-adv-x="545" arabic-form="final" 
d="M545 0h-95q-25 -109 -112.5 -173.5t-257.5 -103.5l-38 113q135 30 209 70t102 94h-65q-105 0 -163 51.5t-58 137.5q0 58 26 106.5t70.5 76.5t96.5 28q55 0 100 -31.5t72 -94t29 -151.5h94l10 -66zM371 118q-4 87 -34 128t-81 41q-43 0 -71 -25t-28 -64q0 -43 31.5 -63
t98.5 -20q45 0 84 3zM261 522l51 85l58 -24l-80 -143h-60l-78 143l58 24z" />
    <glyph glyph-name="uniFBD8" unicode="&#x6c7;" horiz-adv-x="545" arabic-form="final" 
d="M545 0h-95q-25 -109 -112.5 -173.5t-257.5 -103.5l-38 113q135 30 209 70t102 94h-65q-105 0 -163 51.5t-58 137.5q0 58 26 106.5t70.5 76.5t96.5 28q55 0 100 -31.5t72 -94t29 -151.5h94l10 -66zM371 118q-4 87 -34 128t-81 41q-43 0 -71 -25t-28 -64q0 -43 31.5 -63
t98.5 -20q45 0 84 3zM336.5 659.5q21.5 -24.5 21.5 -60.5q0 -48 -38.5 -94t-123.5 -76l-28 57q47 14 76 33q-59 28 -59 79q0 39 27 62.5t62 23.5q41 0 62.5 -24.5zM253.5 613q-7.5 -7 -7.5 -21q0 -22 38 -39q16 19 16 38q0 13 -7 21t-20 8q-12 0 -19.5 -7z" />
    <glyph glyph-name="uniFBDC" unicode="&#x6c8;" horiz-adv-x="545" arabic-form="final" 
d="M545 0h-95q-25 -109 -112.5 -173.5t-257.5 -103.5l-38 113q135 30 209 70t102 94h-65q-105 0 -163 51.5t-58 137.5q0 58 26 106.5t70.5 76.5t96.5 28q55 0 100 -31.5t72 -94t29 -151.5h94l10 -66zM371 118q-4 87 -34 128t-81 41q-43 0 -71 -25t-28 -64q0 -43 31.5 -63
t98.5 -20q45 0 84 3zM295 636v-186h-68v178z" />
    <glyph glyph-name="uniFBE3" unicode="&#x6c9;" horiz-adv-x="545" arabic-form="final" 
d="M545 0h-95q-25 -109 -112.5 -173.5t-257.5 -103.5l-38 113q135 30 209 70t102 94h-65q-105 0 -163 51.5t-58 137.5q0 58 26 106.5t70.5 76.5t96.5 28q55 0 100 -31.5t72 -94t29 -151.5h94l10 -66zM371 118q-4 87 -34 128t-81 41q-43 0 -71 -25t-28 -64q0 -43 31.5 -63
t98.5 -20q45 0 84 3zM152 491l78 142h60l80 -142l-58 -24l-51 84l-51 -84z" />
    <glyph glyph-name="uniFBDF" unicode="&#x6cb;" horiz-adv-x="545" arabic-form="final" 
d="M545 0h-95q-25 -109 -112.5 -173.5t-257.5 -103.5l-38 113q135 30 209 70t102 94h-65q-105 0 -163 51.5t-58 137.5q0 58 26 106.5t70.5 76.5t96.5 28q55 0 100 -31.5t72 -94t29 -151.5h94l10 -66zM371 118q-4 87 -34 128t-81 41q-43 0 -71 -25t-28 -64q0 -43 31.5 -63
t98.5 -20q45 0 84 3zM222 614.5q-16 16.5 -16 39.5t16 39.5t39 16.5t39 -16.5t16 -39.5t-16 -39.5t-39 -16.5t-39 16.5zM134.5 486q-16.5 16 -16.5 39t16.5 39.5t40.5 16.5q22 0 38.5 -16.5t16.5 -39.5q0 -22 -16.5 -38.5t-38.5 -16.5q-24 0 -40.5 16zM308.5 486.5
q-16.5 16.5 -16.5 38.5q0 23 16.5 39.5t38.5 16.5q24 0 40.5 -16.5t16.5 -39.5t-16.5 -39t-40.5 -16q-22 0 -38.5 16.5z" />
    <glyph glyph-name="uniFEF0" unicode="&#x649;" horiz-adv-x="727" arabic-form="final" 
d="M727 0q-36 0 -72 14q7 -19 7 -34q0 -53 -39 -98.5t-118 -72.5t-193 -27q-137 0 -203.5 67t-66.5 188q0 102 51 202l80 -24q-27 -73 -27 -159q0 -70 42 -110.5t134 -40.5q74 0 130 14t85.5 35t29.5 41q0 25 -35.5 44t-125.5 43l50 105l77 -22q71 -22 115.5 -32t88.5 -10
l10 -66z" />
    <glyph glyph-name="uniFEF2" unicode="&#x64a;" horiz-adv-x="727" arabic-form="final" 
d="M727 0q-36 0 -72 14q7 -19 7 -34q0 -53 -39 -98.5t-118 -72.5t-193 -27q-137 0 -203.5 67t-66.5 188q0 102 51 202l80 -24q-27 -73 -27 -159q0 -70 42 -110.5t134 -40.5q74 0 130 14t85.5 35t29.5 41q0 25 -35.5 44t-125.5 43l50 105l77 -22q71 -22 115.5 -32t88.5 -10
l10 -66zM196 -393q-17 17 -17 41t17 41t40 17q24 0 41 -17t17 -41t-17 -41t-41 -17q-23 0 -40 17zM356 -393q-17 17 -17 41t17 41t41 17q23 0 40.5 -17t17.5 -41t-17.5 -41t-40.5 -17q-24 0 -41 17z" />
    <glyph glyph-name="uniFEF4" unicode="&#x64a;" horiz-adv-x="338" arabic-form="medial" 
d="M358 58l-20 -58q-64 0 -103.5 15t-64.5 55q-25 -40 -63.5 -55t-106.5 -15l-20 57l31 66q52 0 74 9.5t27 28t5 62.5v115h105v-114q0 -42 8.5 -62.5t35 -29.5t82.5 -9zM48 -184q-17 17 -17 41t17 41t40 17q24 0 41 -17t17 -41t-17 -41t-41 -17q-23 0 -40 17zM208 -184
q-17 17 -17 41t17 41t41 17q23 0 40.5 -17t17.5 -41t-17.5 -41t-40.5 -17q-24 0 -41 17z" />
    <glyph glyph-name="uniFEF3" unicode="&#x64a;" horiz-adv-x="306" arabic-form="initial" 
d="M99.5 129.5q29.5 6.5 40 22t10.5 46.5q0 59 -47 185l109 36q21 -61 32 -123.5t11 -109.5q0 -75 -23.5 -115t-77.5 -55.5t-154 -15.5l-20 57l30 66q60 0 89.5 6.5zM24 -184q-17 17 -17 41t17 41t40 17q24 0 41 -17t17 -41t-17 -41t-41 -17q-23 0 -40 17zM184 -184
q-17 17 -17 41t17 41t41 17q23 0 40.5 -17t17.5 -41t-17.5 -41t-40.5 -17q-24 0 -41 17z" />
    <glyph glyph-name="uniFE8A" unicode="&#x626;" horiz-adv-x="727" arabic-form="final" 
d="M727 0q-36 0 -72 14q7 -19 7 -34q0 -53 -39 -98.5t-118 -72.5t-193 -27q-137 0 -203.5 67t-66.5 188q0 102 51 202l80 -24q-27 -73 -27 -159q0 -70 42 -110.5t134 -40.5q74 0 130 14t85.5 35t29.5 41q0 25 -35.5 44t-125.5 43l50 105l77 -22q71 -22 115.5 -32t88.5 -10
l10 -66zM262 333l-221 -35l-8 61l63 10q-38 34 -38 68q0 38 27.5 64t78.5 26q38 0 83 -25l-38 -59q-26 16 -47 16q-18 0 -26 -9t-8 -21q0 -22 31 -49l93 15z" />
    <glyph glyph-name="uniFE8C" unicode="&#x626;" horiz-adv-x="338" arabic-form="medial" 
d="M358 58l-20 -58q-64 0 -103.5 15t-64.5 55q-25 -40 -63.5 -55t-106.5 -15l-20 57l31 66q52 0 74 9.5t27 28t5 62.5v115h105v-114q0 -42 8.5 -62.5t35 -29.5t82.5 -9zM282 425l-221 -35l-8 61l63 10q-38 34 -38 68q0 38 27.5 64t78.5 26q38 0 83 -25l-38 -59
q-26 16 -47 16q-18 0 -26 -9t-8 -21q0 -22 31 -49l93 15z" />
    <glyph glyph-name="uniFE8B" unicode="&#x626;" horiz-adv-x="306" arabic-form="initial" 
d="M99.5 129.5q29.5 6.5 40 22t10.5 46.5q0 59 -47 185l109 36q21 -61 32 -123.5t11 -109.5q0 -75 -23.5 -115t-77.5 -55.5t-154 -15.5l-20 57l30 66q60 0 89.5 6.5zM239 493l-221 -35l-8 61l63 10q-38 34 -38 68q0 38 27.5 64t78.5 26q38 0 83 -25l-38 -59q-26 16 -47 16
q-18 0 -26 -9t-8 -21q0 -22 31 -49l93 15z" />
    <glyph glyph-name="uni06CE.init" unicode="&#x6ce;" horiz-adv-x="306" 
d="M99.5 129.5q29.5 6.5 40 22t10.5 46.5q0 59 -47 185l109 36q21 -61 32 -123.5t11 -109.5q0 -75 -23.5 -115t-77.5 -55.5t-154 -15.5l-20 57l30 66q60 0 89.5 6.5zM24 -184q-17 17 -17 41t17 41t40 17q24 0 41 -17t17 -41t-17 -41t-41 -17q-23 0 -40 17zM184 -184
q-17 17 -17 41t17 41t41 17q23 0 40.5 -17t17.5 -41t-17.5 -41t-40.5 -17q-24 0 -41 17zM127 538l51 85l58 -24l-80 -143h-60l-78 143l58 24z" />
    <glyph glyph-name="uni06CE.medi" unicode="&#x6ce;" horiz-adv-x="338" 
d="M358 58l-20 -58q-64 0 -103.5 15t-64.5 55q-25 -40 -63.5 -55t-106.5 -15l-20 57l31 66q52 0 74 9.5t27 28t5 62.5v115h105v-114q0 -42 8.5 -62.5t35 -29.5t82.5 -9zM48 -184q-17 17 -17 41t17 41t40 17q24 0 41 -17t17 -41t-17 -41t-41 -17q-23 0 -40 17zM208 -184
q-17 17 -17 41t17 41t41 17q23 0 40.5 -17t17.5 -41t-17.5 -41t-40.5 -17q-24 0 -41 17zM170 470l51 85l58 -24l-80 -143h-60l-78 143l58 24z" />
    <glyph glyph-name="uni06CE.fina" unicode="&#x6ce;" horiz-adv-x="727" 
d="M727 0q-36 0 -72 14q7 -19 7 -34q0 -53 -39 -98.5t-118 -72.5t-193 -27q-137 0 -203.5 67t-66.5 188q0 102 51 202l80 -24q-27 -73 -27 -159q0 -70 42 -110.5t134 -40.5q74 0 130 14t85.5 35t29.5 41q0 25 -35.5 44t-125.5 43l50 105l77 -22q71 -22 115.5 -32t88.5 -10
l10 -66zM150 378l51 85l58 -24l-80 -143h-60l-78 143l58 24z" />
    <glyph glyph-name="uniFBFD" unicode="&#x6cc;" horiz-adv-x="727" arabic-form="final" 
d="M727 0q-36 0 -72 14q7 -19 7 -34q0 -53 -39 -98.5t-118 -72.5t-193 -27q-137 0 -203.5 67t-66.5 188q0 102 51 202l80 -24q-27 -73 -27 -159q0 -70 42 -110.5t134 -40.5q74 0 130 14t85.5 35t29.5 41q0 25 -35.5 44t-125.5 43l50 105l77 -22q71 -22 115.5 -32t88.5 -10
l10 -66z" />
    <glyph glyph-name="uniFBFF" unicode="&#x6cc;" horiz-adv-x="338" arabic-form="medial" 
d="M358 58l-20 -58q-64 0 -103.5 15t-64.5 55q-25 -40 -63.5 -55t-106.5 -15l-20 57l31 66q52 0 74 9.5t27 28t5 62.5v115h105v-114q0 -42 8.5 -62.5t35 -29.5t82.5 -9zM48 -184q-17 17 -17 41t17 41t40 17q24 0 41 -17t17 -41t-17 -41t-41 -17q-23 0 -40 17zM208 -184
q-17 17 -17 41t17 41t41 17q23 0 40.5 -17t17.5 -41t-17.5 -41t-40.5 -17q-24 0 -41 17z" />
    <glyph glyph-name="uniFBFE" unicode="&#x6cc;" horiz-adv-x="306" arabic-form="initial" 
d="M99.5 129.5q29.5 6.5 40 22t10.5 46.5q0 59 -47 185l109 36q21 -61 32 -123.5t11 -109.5q0 -75 -23.5 -115t-77.5 -55.5t-154 -15.5l-20 57l30 66q60 0 89.5 6.5zM24 -184q-17 17 -17 41t17 41t40 17q24 0 41 -17t17 -41t-17 -41t-41 -17q-23 0 -40 17zM184 -184
q-17 17 -17 41t17 41t41 17q23 0 40.5 -17t17.5 -41t-17.5 -41t-40.5 -17q-24 0 -41 17z" />
    <glyph glyph-name="uni06CD.fina" unicode="&#x6cd;" horiz-adv-x="777" 
d="M777 0q-36 0 -72 14q7 -19 7 -34q0 -53 -39 -98.5t-118 -72.5t-193 -27q-137 0 -203.5 67t-66.5 188q0 43 10 88q-46 -15 -94 -21l-13 57q79 23 149 78l80 -24q-28 -75 -28 -159q0 -70 42 -110.5t134 -40.5q74 0 130 14t85.5 35t29.5 41q0 25 -35.5 44t-125.5 43l50 105
l77 -22q71 -22 115.5 -32t88.5 -10l10 -66z" />
    <glyph glyph-name="uni0620.init" unicode="&#x620;" horiz-adv-x="306" 
d="M237 -25q0 -38 -26 -63.5t-65 -25.5t-65.5 25.5t-26.5 63.5q0 15 4 26q-18 -1 -58 -1l-20 57l30 66q60 0 89.5 6.5t40 22t10.5 46.5q0 59 -47 185l109 36q21 -61 32 -123.5t11 -109.5q0 -53 -11.5 -87.5t-36.5 -55.5q30 -28 30 -68zM173.5 -49.5q10.5 10.5 10.5 24.5
q0 16 -10.5 25.5t-27.5 9.5t-27.5 -9.5t-10.5 -25.5q0 -14 10.5 -24.5t27.5 -10.5t27.5 10.5z" />
    <glyph glyph-name="uni0620.medi" unicode="&#x620;" horiz-adv-x="338" 
d="M234.5 15q-39.5 15 -64.5 55l-7 -11q24 -11 38 -32.5t14 -48.5q0 -38 -25.5 -63.5t-65.5 -25.5q-39 0 -65.5 25.5t-26.5 63.5q0 12 3 23q-11 -1 -35 -1l-20 57l31 66q52 0 74 9.5t27 28t5 62.5v115h105v-114q0 -42 8.5 -62.5t35 -29.5t82.5 -9l10 -65l-20 -58
q-64 0 -103.5 15zM151.5 -46.5q10.5 10.5 10.5 24.5q0 16 -10.5 25.5t-27.5 9.5t-27.5 -9.5t-10.5 -25.5q0 -14 10.5 -24.5t27.5 -10.5t27.5 10.5z" />
    <glyph glyph-name="uni0620.fina" unicode="&#x620;" horiz-adv-x="727" 
d="M727 0q-36 0 -72 14q7 -19 7 -34q0 -47 -30 -87.5t-91 -69t-149 -37.5q9 -18 9 -40q0 -39 -25.5 -64.5t-65.5 -25.5q-39 0 -65.5 26t-26.5 64q0 24 11 44q-95 18 -141 82t-46 165q0 102 51 202l80 -24q-27 -73 -27 -159q0 -70 42 -110.5t134 -40.5q74 0 130 14t85.5 35
t29.5 41q0 25 -35.5 44t-125.5 43l50 105l77 -22q71 -22 115.5 -32t88.5 -10l10 -66zM337 -278.5q10 10.5 10 24.5q0 15 -10.5 25t-26.5 10q-17 0 -27.5 -10t-10.5 -25q0 -14 10.5 -24.5t27.5 -10.5t27 10.5z" />
    <glyph glyph-name="uniFBE5" unicode="&#x6d0;" horiz-adv-x="727" arabic-form="final" 
d="M727 0q-36 0 -72 14q7 -19 7 -34q0 -53 -39 -98.5t-118 -72.5t-193 -27q-137 0 -203.5 67t-66.5 188q0 102 51 202l80 -24q-27 -73 -27 -159q0 -70 42 -110.5t134 -40.5q74 0 130 14t85.5 35t29.5 41q0 25 -35.5 44t-125.5 43l50 105l77 -22q71 -22 115.5 -32t88.5 -10
l10 -66zM276 -382q-17 17 -17 41t17 40.5t41 16.5t41 -16.5t17 -40.5t-17 -41t-41 -17t-41 17zM276.5 -536.5q-16.5 16.5 -16.5 41.5q0 24 16.5 41t41.5 17q23 0 40.5 -17t17.5 -41t-17 -41t-41 -17q-25 0 -41.5 16.5z" />
    <glyph glyph-name="uniFBE7" unicode="&#x6d0;" horiz-adv-x="338" arabic-form="medial" 
d="M358 58l-20 -58q-64 0 -103.5 15t-64.5 55q-25 -40 -63.5 -55t-106.5 -15l-20 57l31 66q52 0 74 9.5t27 28t5 62.5v115h105v-114q0 -42 8.5 -62.5t35 -29.5t82.5 -9zM128 -173q-17 17 -17 41t17 40.5t41 16.5t41 -16.5t17 -40.5t-17 -41t-41 -17t-41 17zM128.5 -327.5
q-16.5 16.5 -16.5 41.5q0 24 16.5 41t41.5 17q23 0 40.5 -17t17.5 -41t-17 -41t-41 -17q-25 0 -41.5 16.5z" />
    <glyph glyph-name="uniFBE6" unicode="&#x6d0;" horiz-adv-x="306" arabic-form="initial" 
d="M99.5 129.5q29.5 6.5 40 22t10.5 46.5q0 59 -47 185l109 36q21 -61 32 -123.5t11 -109.5q0 -75 -23.5 -115t-77.5 -55.5t-154 -15.5l-20 57l30 66q60 0 89.5 6.5zM105 -173q-17 17 -17 41t17 40.5t41 16.5t41 -16.5t17 -40.5t-17 -41t-41 -17t-41 17zM105.5 -327.5
q-16.5 16.5 -16.5 41.5q0 24 16.5 41t41.5 17q23 0 40.5 -17t17.5 -41t-17 -41t-41 -17q-25 0 -41.5 16.5z" />
    <glyph glyph-name="uni06D1.init" unicode="&#x6d1;" horiz-adv-x="306" 
d="M99.5 129.5q29.5 6.5 40 22t10.5 46.5q0 59 -47 185l109 36q21 -61 32 -123.5t11 -109.5q0 -75 -23.5 -115t-77.5 -55.5t-154 -15.5l-20 57l30 66q60 0 89.5 6.5zM97.5 -106.5q16.5 -16.5 16.5 -38.5q0 -24 -16.5 -40.5t-38.5 -16.5q-24 0 -40.5 16.5t-16.5 40.5
q0 23 16.5 39t40.5 16q22 0 38.5 -16.5zM271.5 -106q16.5 -16 16.5 -39q0 -24 -16.5 -40.5t-40.5 -16.5q-22 0 -38.5 16.5t-16.5 40.5q0 22 16.5 38.5t38.5 16.5q24 0 40.5 -16zM184 -234.5q16 -16.5 16 -39.5t-16 -39.5t-39 -16.5t-39 16.5t-16 39.5t16 39.5t39 16.5
t39 -16.5z" />
    <glyph glyph-name="uni06D1.medi" unicode="&#x6d1;" horiz-adv-x="338" 
d="M358 58l-20 -58q-64 0 -103.5 15t-64.5 55q-25 -40 -63.5 -55t-106.5 -15l-20 57l31 66q52 0 74 9.5t27 28t5 62.5v115h105v-114q0 -42 8.5 -62.5t35 -29.5t82.5 -9zM121.5 -106.5q16.5 -16.5 16.5 -38.5q0 -24 -16.5 -40.5t-38.5 -16.5q-24 0 -40.5 16.5t-16.5 40.5
q0 23 16.5 39t40.5 16q22 0 38.5 -16.5zM295.5 -106q16.5 -16 16.5 -39q0 -24 -16.5 -40.5t-40.5 -16.5q-22 0 -38.5 16.5t-16.5 40.5q0 22 16.5 38.5t38.5 16.5q24 0 40.5 -16zM208 -234.5q16 -16.5 16 -39.5t-16 -39.5t-39 -16.5t-39 16.5t-16 39.5t16 39.5t39 16.5
t39 -16.5z" />
    <glyph glyph-name="uni06D1.fina" unicode="&#x6d1;" horiz-adv-x="727" 
d="M727 0q-36 0 -72 14q7 -19 7 -34q0 -53 -39 -98.5t-118 -72.5t-193 -27q-137 0 -203.5 67t-66.5 188q0 102 51 202l80 -24q-27 -73 -27 -159q0 -70 42 -110.5t134 -40.5q74 0 130 14t85.5 35t29.5 41q0 25 -35.5 44t-125.5 43l50 105l77 -22q71 -22 115.5 -32t88.5 -10
l10 -66zM269.5 -315.5q16.5 -16.5 16.5 -38.5q0 -24 -16.5 -40.5t-38.5 -16.5q-24 0 -40.5 16.5t-16.5 40.5q0 23 16.5 39t40.5 16q22 0 38.5 -16.5zM443.5 -315q16.5 -16 16.5 -39q0 -24 -16.5 -40.5t-40.5 -16.5q-22 0 -38.5 16.5t-16.5 40.5q0 22 16.5 38.5t38.5 16.5
q24 0 40.5 -16zM356 -443.5q16 -16.5 16 -39.5t-16 -39.5t-39 -16.5t-39 16.5t-16 39.5t16 39.5t39 16.5t39 -16.5z" />
    <glyph glyph-name="uniFBAF" unicode="&#x6d2;" horiz-adv-x="784" arabic-form="final" 
d="M224 -288q-67 0 -112 21t-66.5 54.5t-21.5 72.5q0 66 39.5 126.5t120.5 98.5t197 38h414l9 -66l-20 -57h-425q-80 0 -134 -17t-80 -44.5t-26 -59.5q0 -22 15.5 -33.5t54.5 -11.5h584l-38 -122h-511z" />
    <glyph glyph-name="uniFBB1" unicode="&#x6d3;" horiz-adv-x="784" arabic-form="final" 
d="M224 -288q-67 0 -112 21t-66.5 54.5t-21.5 72.5q0 66 39.5 126.5t120.5 98.5t197 38h414l9 -66l-20 -57h-425q-80 0 -134 -17t-80 -44.5t-26 -59.5q0 -22 15.5 -33.5t54.5 -11.5h584l-38 -122h-511zM371 240l-221 -35l-8 61l63 10q-38 34 -38 68q0 38 27.5 64t78.5 26
q38 0 83 -25l-38 -59q-26 16 -47 16q-18 0 -26 -9t-8 -21q0 -22 31 -49l93 15z" />
    <glyph glyph-name="uni0676.fina" unicode="&#x676;" horiz-adv-x="545" 
d="M443 536l-221 -35l-8 61l63 10q-38 34 -38 68q0 38 27.5 64t78.5 26q38 0 83 -25l-38 -59q-26 16 -47 16q-18 0 -26 -9t-8 -21q0 -22 31 -49l93 15zM545 0h-95q-25 -109 -112.5 -173.5t-257.5 -103.5l-38 113q135 30 209 70t102 94h-65q-105 0 -163 51.5t-58 137.5
q0 58 26 106.5t70.5 76.5t96.5 28q55 0 100 -31.5t72 -94t29 -151.5h94l10 -66zM371 118q-4 87 -34 128t-81 41q-43 0 -71 -25t-28 -64q0 -43 31.5 -63t98.5 -20q45 0 84 3z" />
    <glyph glyph-name="uni0677.fina" unicode="&#x677;" horiz-adv-x="545" 
d="M545 0h-95q-25 -109 -112.5 -173.5t-257.5 -103.5l-38 113q135 30 209 70t102 94h-65q-105 0 -163 51.5t-58 137.5q0 58 26 106.5t70.5 76.5t96.5 28q55 0 100 -31.5t72 -94t29 -151.5h94l10 -66zM371 118q-4 87 -34 128t-81 41q-43 0 -71 -25t-28 -64q0 -43 31.5 -63
t98.5 -20q45 0 84 3zM373 477l-221 -35l-8 61l63 10q-38 34 -38 68q0 38 27.5 64t78.5 26q38 0 83 -25l-38 -59q-26 16 -47 16q-18 0 -26 -9t-8 -21q0 -22 31 -49l93 15zM334.5 926.5q21.5 -24.5 21.5 -60.5q0 -48 -38.5 -94t-123.5 -76l-28 57q47 14 76 33q-59 28 -59 79
q0 39 27 62.5t62 23.5q41 0 62.5 -24.5zM251.5 880q-7.5 -7 -7.5 -21q0 -22 38 -39q16 19 16 38q0 13 -7 21t-20 8q-12 0 -19.5 -7z" />
    <glyph glyph-name="uni0678.init" unicode="&#x678;" horiz-adv-x="306" 
d="M265 576l-221 -35l-8 61l63 10q-38 34 -38 68q0 38 27.5 64t78.5 26q38 0 83 -25l-38 -59q-26 16 -47 16q-18 0 -26 -9t-8 -21q0 -22 31 -49l93 15zM99.5 129.5q29.5 6.5 40 22t10.5 46.5q0 59 -47 185l109 36q21 -61 32 -123.5t11 -109.5q0 -75 -23.5 -115t-77.5 -55.5
t-154 -15.5l-20 57l30 66q60 0 89.5 6.5z" />
    <glyph glyph-name="uni0678.medi" unicode="&#x678;" horiz-adv-x="338" 
d="M77 532l63 10q-38 34 -38 68q0 38 27.5 64t78.5 26q38 0 83 -25l-38 -59q-26 16 -47 16q-18 0 -26.5 -9t-8.5 -21q0 -23 32 -49l93 15l10 -62l-221 -35zM358 58l-20 -58q-64 0 -103.5 15t-64.5 55q-25 -40 -63.5 -55t-106.5 -15l-20 57l31 66q52 0 74 9.5t27 28t5 62.5
v115h105v-114q0 -42 8.5 -62.5t35 -29.5t82.5 -9z" />
    <glyph glyph-name="uni0678.fina" unicode="&#x678;" horiz-adv-x="727" 
d="M727 0q-36 0 -72 14q7 -19 7 -34q0 -53 -39 -98.5t-118 -72.5t-193 -27q-137 0 -203.5 67t-66.5 188q0 102 51 202l80 -24q-27 -73 -27 -159q0 -70 42 -110.5t134 -40.5q74 0 130 14t85.5 35t29.5 41q0 25 -35.5 44t-125.5 43l50 105l77 -22q71 -22 115.5 -32t88.5 -10
l10 -66zM645 297l-221 -35l-8 61l63 10q-38 34 -38 68q0 38 27.5 64t78.5 26q38 0 83 -25l-38 -59q-26 16 -47 16q-18 0 -26 -9t-8 -21q0 -22 31 -49l93 15z" />
    <glyph glyph-name="uni06D5.fina" unicode="&#x6d5;" horiz-adv-x="518" 
d="M538 56l-20 -56h-28q-113 0 -150 94q-26 -31 -65.5 -48.5t-83.5 -17.5q-76 0 -122 43.5t-46 113.5q0 57 36.5 109t105.5 86.5t161 41.5v88l105 13v-305q0 -54 16.5 -74.5t53.5 -20.5h27zM144.5 155q21.5 -17 64.5 -17q66 0 117 47v131q-98 -4 -150.5 -37t-52.5 -78
q0 -29 21.5 -46z" />
    <glyph glyph-name="uniFE70" unicode="&#xfe70;" horiz-adv-x="600" arabic-form="isolated" 
d="M30 748l224 43l-2 -65l-224 -43zM30 651l224 43l-2 -65l-224 -43z" />
    <glyph glyph-name="uniFE72" unicode="&#xfe72;" horiz-adv-x="600" arabic-form="isolated" 
d="M301.5 810.5q20.5 -24.5 20.5 -61.5q0 -45 -36 -92.5t-103 -79.5l-53 24q0 23 -4 34t-15 11q-8 0 -15.5 -5t-18.5 -17l-33 38q37 44 70 44q25 0 41.5 -17t21.5 -49q21 12 39 27q-64 29 -64 82q0 40 26.5 63t62.5 23q40 0 60.5 -24.5zM220.5 763.5q-7.5 -7.5 -7.5 -21.5
q0 -25 37 -40q15 22 15 40q0 13 -7 21t-18 8q-12 0 -19.5 -7.5z" />
    <glyph glyph-name="uniFE74" unicode="&#xfe74;" horiz-adv-x="600" arabic-form="isolated" 
d="M32 -98l224 43l-2 -65l-224 -43zM33 -190l224 43l-2 -65l-224 -43z" />
    <glyph glyph-name="uniFE76" unicode="&#xfe76;" horiz-adv-x="600" arabic-form="isolated" 
d="M30 648l224 43l-2 -65l-224 -43z" />
    <glyph glyph-name="uniFE78" unicode="&#xfe78;" horiz-adv-x="600" arabic-form="isolated" 
d="M174.5 799.5q21.5 -24.5 21.5 -60.5q0 -48 -38.5 -94t-123.5 -76l-28 57q47 14 76 33q-59 28 -59 79q0 39 27 62.5t62 23.5q41 0 62.5 -24.5zM91.5 753q-7.5 -7 -7.5 -21q0 -22 38 -39q16 19 16 38q0 13 -7 21t-20 8q-12 0 -19.5 -7z" />
    <glyph glyph-name="uniFE7C" unicode="&#xfe7c;" horiz-adv-x="600" arabic-form="isolated" 
d="M265.5 743q5.5 -25 5.5 -43q0 -38 -20.5 -59.5t-55.5 -21.5q-38 0 -55 26q-21 -30 -59 -30q-27 0 -49.5 20t-22.5 58q0 31 16 70l53 -12q-6 -22 -6 -43q0 -12 4.5 -19.5t13.5 -7.5q10 0 16.5 8t6.5 25v33h54v-36q0 -13 5.5 -20t14.5 -7q21 0 21 33q0 26 -11 54l54 17
q9 -20 14.5 -45z" />
    <glyph glyph-name="uniFC61" unicode="&#xfc61;" arabic-form="isolated" 
d="M265.5 743q5.5 -25 5.5 -43q0 -38 -20.5 -59.5t-55.5 -21.5q-38 0 -55 26q-21 -30 -59 -30q-27 0 -49.5 20t-22.5 58q0 31 16 70l53 -12q-6 -22 -6 -43q0 -12 4.5 -19.5t13.5 -7.5q10 0 16.5 8t6.5 25v33h54v-36q0 -13 5.5 -20t14.5 -7q21 0 21 33q0 26 -11 54l54 17
q9 -20 14.5 -45zM214.5 1015.5q21.5 -24.5 21.5 -60.5q0 -48 -38.5 -94t-123.5 -76l-28 57q47 14 76 33q-59 28 -59 79q0 39 27 62.5t62 23.5q41 0 62.5 -24.5zM131.5 969q-7.5 -7 -7.5 -21q0 -22 38 -39q16 19 16 38q0 13 -7 21t-20 8q-12 0 -19.5 -7z" />
    <glyph glyph-name="uniFC63" unicode="&#xfc63;" arabic-form="isolated" 
d="M265.5 743q5.5 -25 5.5 -43q0 -38 -20.5 -59.5t-55.5 -21.5q-38 0 -55 26q-21 -30 -59 -30q-27 0 -49.5 20t-22.5 58q0 31 16 70l53 -12q-6 -22 -6 -43q0 -12 4.5 -19.5t13.5 -7.5q10 0 16.5 8t6.5 25v33h54v-36q0 -13 5.5 -20t14.5 -7q21 0 21 33q0 26 -11 54l54 17
q9 -20 14.5 -45zM173 991v-186h-68v178z" />
    <glyph glyph-name="uniFE7E" unicode="&#xfe7e;" horiz-adv-x="600" arabic-form="isolated" 
d="M169.5 603.5q-28.5 -26.5 -69.5 -26.5t-69.5 26.5t-28.5 69.5t28.5 69.5t69.5 26.5t69.5 -26.5t28.5 -69.5t-28.5 -69.5zM130 701.5q-11 10.5 -30 10.5t-30 -10.5t-11 -28.5t11 -28.5t30 -10.5t30 10.5t11 28.5t-11 28.5z" />
    <glyph glyph-name=".notdef" horiz-adv-x="666" 
d="M543 -350h-420v1400h420v-1400zM178 998v-1296h311v1296h-311zM409.5 419q25.5 -32 25.5 -83q0 -53 -22.5 -82t-72.5 -36v-45q0 -11 -7.5 -17.5t-17.5 -6.5t-17.5 6.5t-7.5 17.5v84q53 3 72 19.5t19 57.5q0 33 -13 51t-48 18q-29 0 -52 -11q-8 -3 -13 -3q-11 0 -17.5 6.5
t-6.5 16.5q0 19 29.5 29t63.5 10q60 0 85.5 -32zM340 110q10 -10 10 -25q0 -16 -10 -26.5t-25 -10.5t-25 10.5t-10 26.5q0 15 10 25t25 10t25 -10z" />
    <glyph glyph-name="nonmarkingreturn" unicode="&#xd;" horiz-adv-x="250" 
 />
    <glyph glyph-name="space" unicode=" " horiz-adv-x="250" 
 />
    <glyph glyph-name="A" unicode="A" horiz-adv-x="583" 
d="M404 160h-229l-43 -160h-137l215 691h163l214 -691h-140zM377 260l-88 330l-88 -330h176z" />
    <glyph glyph-name="Aacute" unicode="&#xc1;" horiz-adv-x="583" 
d="M404 160h-229l-43 -160h-137l215 691h163l214 -691h-140zM377 260l-88 330l-88 -330h176zM423 836l-229 -83l-33 66l212 117z" />
    <glyph glyph-name="Aacute.loclHUN" horiz-adv-x="583" 
d="M404 160h-229l-43 -160h-137l215 691h163l214 -691h-140zM377 260l-88 330l-88 -330h176zM425 890l-138 -152l-59 35l101 174z" />
    <glyph glyph-name="Abreve" unicode="&#x102;" horiz-adv-x="583" 
d="M404 160h-229l-43 -160h-137l215 691h163l214 -691h-140zM377 260l-88 330l-88 -330h176zM178 795q-44 41 -50 103l75 15q10 -31 32 -49t55 -18t56 18t32 49l76 -15q-6 -62 -50.5 -103t-113.5 -41q-68 0 -112 41z" />
    <glyph glyph-name="uni1EAE" unicode="&#x1eae;" horiz-adv-x="583" 
d="M404 160h-229l-43 -160h-137l215 691h163l214 -691h-140zM377 260l-88 330l-88 -330h176zM179 779q-44 41 -50 103l75 15q10 -31 32 -49t55 -18t56 18t32 49l76 -15q-6 -62 -50.5 -103t-113.5 -41q-68 0 -112 41zM442 1021l-148 -134l-50 45l125 159z" />
    <glyph glyph-name="uni1EB6" unicode="&#x1eb6;" horiz-adv-x="583" 
d="M404 160h-229l-43 -160h-137l215 691h163l214 -691h-140zM377 260l-88 330l-88 -330h176zM178 795q-44 41 -50 103l75 15q10 -31 32 -49t55 -18t56 18t32 49l76 -15q-6 -62 -50.5 -103t-113.5 -41q-68 0 -112 41zM233.5 -199q-22.5 22 -22.5 56q0 33 22.5 54.5t58.5 21.5
q35 0 57.5 -21.5t22.5 -54.5q0 -34 -22.5 -56t-57.5 -22q-36 0 -58.5 22z" />
    <glyph glyph-name="uni1EB0" unicode="&#x1eb0;" horiz-adv-x="583" 
d="M404 160h-229l-43 -160h-137l215 691h163l214 -691h-140zM377 260l-88 330l-88 -330h176zM179 779q-44 41 -50 103l75 15q10 -31 32 -49t55 -18t56 18t32 49l76 -15q-6 -62 -50.5 -103t-113.5 -41q-68 0 -112 41zM342 932l-50 -45l-148 134l72 70z" />
    <glyph glyph-name="uni1EB2" unicode="&#x1eb2;" horiz-adv-x="583" 
d="M404 160h-229l-43 -160h-137l215 691h163l214 -691h-140zM377 260l-88 330l-88 -330h176zM179 779q-44 41 -50 103l75 15q10 -31 32 -49t55 -18t56 18t32 49l76 -15q-6 -62 -50.5 -103t-113.5 -41q-68 0 -112 41zM250 966q38 4 54.5 12.5t16.5 28.5q0 16 -11.5 24.5
t-30.5 8.5q-28 0 -59 -13l-24 59q43 25 102 25q56 0 86.5 -26.5t30.5 -71.5q0 -37 -21.5 -59.5t-61.5 -29.5v-45h-82v87z" />
    </font>
</defs>
</svg>
